<svg xmlns="http://www.w3.org/2000/svg" viewBox="11134.5 192.5 2500.7 2718.3" fill="none"><path d="M12691.6,2838.9C12705.2,2836.5 12720.3,2830.5 12738.4,2820.3C12742.7,2817.8 12751.4,2813.8 12757.9,2811.4C12770.4,2806.5 12775.5,2803.9 12787.5,2796.0C12791.8,2793.2 12799.6,2788.9 12804.9,2786.4C12810.2,2783.9 12820.1,2778.1 12827.0,2773.5C12833.9,2768.9 12843.8,2763.1 12849.0,2760.5C12854.2,2757.9 12862.5,2753.2 12867.5,2750.0C12872.4,2746.9 12882.4,2740.9 12889.5,2736.8C12918.5,2720.0 12931.1,2710.5 12935.3,2702.4C12939.4,2694.5 12941.8,2673.5 12943.0,2635.0C12943.5,2619.3 12944.2,2603.8 12944.5,2600.5C12945.8,2586.1 12948.0,2467.6 12947.8,2428.0C12947.5,2385.7 12947.4,2384.4 12945.3,2379.8C12942.1,2372.9 12934.8,2365.6 12924.0,2358.5C12914.1,2352.0 12900.8,2339.3 12893.3,2329.0C12887.9,2321.6 12878.6,2305.5 12873.4,2294.5C12867.9,2282.9 12864.9,2273.7 12861.0,2257.0C12859.3,2249.6 12855.5,2236.3 12852.5,2227.5C12849.6,2218.7 12845.5,2205.0 12843.6,2197.0C12841.6,2189.0 12838.2,2176.4 12835.9,2169.0C12829.6,2148.1 12826.3,2133.2 12823.1,2111.5C12821.5,2100.5 12819.0,2083.6 12817.5,2074.0C12816.1,2064.4 12813.4,2050.4 12811.5,2043.0C12809.6,2035.6 12806.3,2021.4 12804.1,2011.5C12801.9,2001.6 12798.7,1987.7 12797.0,1980.5C12795.3,1973.3 12793.1,1962.3 12791.9,1956.0C12787.9,1932.8 12784.4,1923.5 12776.3,1914.9C12769.5,1907.6 12764.2,1904.5 12751.4,1900.5C12741.9,1897.5 12739.4,1896.3 12735.1,1892.4C12728.1,1886.1 12725.8,1881.3 12725.2,1871.9C12724.6,1862.0 12726.0,1858.1 12731.7,1853.0C12739.7,1846.0 12743.1,1845.5 12783.0,1845.5C12821.4,1845.6 12823.8,1845.9 12832.2,1852.3C12839.6,1857.9 12841.7,1862.1 12845.9,1879.0C12848.1,1887.5 12851.4,1900.7 12853.4,1908.2C12858.4,1927.6 12862.5,1948.0 12865.0,1966.0C12866.2,1974.5 12868.2,1987.1 12869.5,1994.0C12870.8,2000.9 12872.9,2012.1 12874.0,2019.0C12875.2,2025.9 12877.7,2038.3 12879.5,2046.5C12883.9,2065.9 12887.2,2084.9 12891.0,2113.5C12892.7,2126.2 12894.6,2138.2 12895.1,2140.3C12896.4,2145.2 12902.9,2152.3 12908.6,2155.1C12915.0,2158.1 12919.7,2157.3 12933.7,2150.6C12951.9,2142.0 12960.0,2140.9 12974.4,2145.6C12977.2,2146.5 12989.9,2152.3 13002.5,2158.6C13025.5,2170.0 13025.5,2170.0 13040.6,2184.7C13055.4,2199.2 13055.9,2199.7 13060.8,2210.0C13063.5,2215.8 13067.5,2225.0 13069.6,2230.5C13073.1,2239.8 13073.4,2241.4 13073.8,2253.7C13074.3,2269.7 13073.3,2274.8 13065.0,2296.5C13056.7,2318.4 13054.6,2322.2 13044.5,2333.4C13029.3,2350.3 13023.0,2358.2 13020.2,2364.0C13017.5,2369.5 13017.5,2369.5 13016.8,2411.5C13016.4,2434.6 13015.4,2471.3 13014.6,2493.0C13013.8,2514.7 13012.6,2547.8 13012.0,2566.5C13011.5,2585.2 13010.5,2609.5 13010.0,2620.5C13008.1,2657.8 13008.3,2659.6 13015.6,2666.0C13026.0,2675.1 13032.7,2674.1 13053.4,2660.6C13060.0,2656.3 13072.4,2649.3 13081.1,2644.9C13090.7,2640.1 13100.3,2634.5 13105.5,2630.5C13110.3,2626.8 13121.0,2619.6 13129.3,2614.4C13149.3,2601.8 13158.4,2595.2 13169.3,2585.1C13174.3,2580.6 13181.8,2574.2 13185.9,2571.0C13197.2,2562.3 13212.7,2545.6 13223.8,2530.0C13227.1,2525.3 13232.6,2517.9 13235.9,2513.5C13244.3,2502.5 13247.0,2496.9 13253.3,2478.5C13256.3,2469.7 13260.2,2458.9 13262.0,2454.5C13266.3,2443.9 13270.3,2430.6 13273.5,2416.3C13278.0,2396.1 13279.9,2389.0 13286.0,2371.0C13289.2,2361.4 13293.0,2348.8 13294.5,2343.1C13298.4,2327.4 13303.8,2314.2 13314.0,2295.0C13325.1,2274.1 13326.7,2271.4 13333.5,2263.0C13336.3,2259.4 13342.3,2251.0 13346.8,2244.2C13351.3,2237.5 13360.0,2225.8 13366.2,2218.4C13383.3,2197.9 13388.4,2190.9 13393.6,2181.3C13396.2,2176.5 13401.3,2168.2 13405.0,2163.0C13416.2,2147.2 13430.0,2117.7 13434.4,2100.2C13438.6,2084.0 13443.0,2060.5 13445.5,2042.0C13447.8,2025.0 13450.4,2012.1 13455.4,1993.5C13456.7,1988.5 13458.6,1978.4 13459.5,1971.0C13460.4,1963.6 13462.2,1952.8 13463.5,1947.0C13464.8,1941.2 13466.6,1928.8 13467.5,1919.5C13468.4,1910.2 13470.0,1897.4 13471.1,1891.2C13473.5,1876.7 13473.5,1871.4 13471.1,1867.4C13466.6,1860.0 13456.0,1855.2 13448.6,1857.0C13446.3,1857.6 13438.2,1861.2 13430.5,1865.1C13418.0,1871.4 13414.5,1872.6 13396.9,1877.0C13381.7,1880.7 13373.8,1883.3 13362.0,1888.5C13352.9,1892.4 13339.1,1897.3 13328.0,1900.5C13307.1,1906.5 13282.0,1915.5 13271.6,1920.7C13260.8,1926.2 13256.1,1931.2 13248.5,1946.0C13241.3,1959.9 13234.9,1968.2 13221.4,1981.0C13208.3,1993.5 13184.1,2008.0 13167.0,2013.6C13158.7,2016.4 13157.9,2016.4 13136.5,2016.4C13114.5,2016.4 13114.5,2016.4 13105.3,2013.3C13099.4,2011.3 13090.2,2006.8 13079.9,2000.9C13060.8,1989.8 13046.1,1977.3 13036.5,1964.0C13033.2,1959.5 13027.6,1952.1 13024.1,1947.6C13015.6,1936.7 13010.7,1926.2 13007.6,1911.9C13004.6,1898.4 13004.3,1889.2 13006.6,1876.5C13008.7,1864.7 13008.1,1853.0 13005.2,1847.0C13004.0,1844.5 12999.9,1838.8 12996.2,1834.3C12992.4,1829.7 12986.8,1821.3 12983.7,1815.5C12975.1,1799.4 12960.3,1778.5 12951.7,1770.3C12945.0,1763.9 12943.2,1762.9 12936.3,1760.7C12928.5,1758.2 12928.5,1758.2 12848.5,1759.0C12804.5,1759.5 12762.9,1760.1 12756.0,1760.5C12749.1,1760.8 12720.5,1761.2 12692.5,1761.5C12633.2,1762.0 12634.0,1761.9 12625.5,1770.3C12618.7,1777.2 12617.6,1781.3 12618.3,1796.7C12618.6,1803.2 12619.3,1818.2 12619.9,1830.0C12621.7,1867.7 12623.3,2047.0 12622.1,2069.5C12620.9,2091.9 12621.7,2107.4 12624.9,2123.2C12628.1,2138.8 12630.7,2144.9 12643.3,2166.3C12648.0,2174.5 12652.3,2186.7 12656.0,2203.0C12658.5,2213.5 12660.7,2219.7 12667.4,2234.5C12669.9,2240.0 12673.7,2251.4 12676.0,2259.9C12678.2,2268.4 12681.2,2278.1 12682.6,2281.4C12693.2,2306.8 12695.7,2315.7 12704.0,2357.5C12707.3,2373.9 12710.2,2386.0 12712.0,2390.2C12717.5,2403.4 12726.4,2412.7 12743.2,2423.0C12748.9,2426.5 12755.9,2431.7 12758.9,2434.4C12764.6,2439.8 12776.9,2457.7 12783.0,2469.7C12796.6,2496.2 12792.3,2533.5 12771.4,2569.0C12762.4,2584.4 12745.1,2600.1 12728.5,2608.1C12707.4,2618.3 12681.3,2619.7 12658.4,2612.0C12644.7,2607.3 12626.6,2596.6 12616.7,2587.1C12610.8,2581.5 12597.7,2565.4 12590.8,2555.0C12583.7,2544.7 12580.0,2529.4 12580.0,2510.9C12580.0,2492.8 12583.4,2478.1 12590.2,2467.3C12604.4,2444.6 12614.6,2432.5 12627.6,2422.7C12630.9,2420.2 12636.1,2415.4 12639.2,2412.1C12646.6,2404.2 12649.0,2397.8 12649.0,2386.5C12649.0,2376.5 12646.7,2368.5 12637.9,2347.4C12634.7,2339.7 12630.9,2329.1 12629.4,2323.9C12624.3,2305.2 12620.6,2295.4 12614.4,2283.6C12608.8,2272.7 12604.8,2261.7 12599.5,2242.6C12598.6,2239.3 12594.9,2231.0 12591.4,2224.1C12587.8,2217.3 12582.6,2205.1 12579.9,2197.1C12577.1,2189.1 12572.5,2177.6 12569.8,2171.5C12561.1,2152.5 12554.0,2134.9 12550.5,2123.5C12543.5,2101.3 12543.9,2111.5 12543.0,1932.5C12542.5,1833.5 12541.7,1761.7 12541.0,1748.0C12539.3,1715.8 12540.9,1709.2 12552.2,1701.0C12560.9,1694.7 12552.0,1695.1 12718.5,1693.9C12979.0,1692.2 12954.2,1692.1 12963.5,1695.2C12967.9,1696.7 12973.5,1699.2 12976.0,1700.8C12983.0,1705.2 13005.2,1730.7 13011.1,1741.0C13013.0,1744.3 13018.0,1752.5 13022.3,1759.3C13026.6,1766.0 13032.4,1775.9 13035.1,1781.3C13041.1,1793.1 13046.3,1799.0 13053.9,1802.7C13058.8,1805.2 13060.6,1805.5 13068.5,1805.4C13076.2,1805.4 13079.1,1804.8 13089.0,1801.4C13100.1,1797.6 13100.9,1797.5 13113.0,1797.6C13122.6,1797.7 13128.3,1798.3 13137.5,1800.4C13158.0,1804.9 13164.0,1807.3 13179.0,1816.5C13183.7,1819.3 13191.2,1823.9 13195.8,1826.6C13200.6,1829.4 13208.7,1835.7 13214.7,1841.3C13226.9,1852.5 13234.6,1856.9 13243.7,1857.7C13249.2,1858.2 13251.8,1857.5 13285.5,1846.2C13305.3,1839.5 13330.5,1831.8 13341.5,1829.1C13362.0,1824.0 13372.2,1820.7 13393.8,1812.6C13400.6,1810.0 13412.7,1806.1 13420.6,1803.9C13438.9,1798.9 13446.2,1796.2 13457.8,1789.9C13462.9,1787.2 13471.2,1783.3 13476.3,1781.4C13481.3,1779.4 13488.4,1776.3 13492.0,1774.4C13503.0,1768.7 13530.2,1743.9 13535.9,1734.5C13543.9,1721.2 13554.9,1678.1 13558.0,1647.8C13562.5,1602.9 13565.2,1507.6 13563.1,1466.4C13561.4,1432.6 13558.7,1419.5 13548.9,1398.2C13546.6,1393.4 13543.0,1385.0 13540.8,1379.5C13535.3,1365.6 13528.3,1352.5 13519.2,1339.0C13512.6,1329.2 13509.8,1326.0 13499.5,1317.2C13486.5,1305.9 13459.2,1287.1 13447.0,1281.0C13442.9,1278.9 13433.4,1275.1 13426.0,1272.5C13418.6,1269.9 13407.7,1265.8 13401.9,1263.4C13389.7,1258.4 13378.3,1255.0 13366.0,1252.5C13361.3,1251.6 13349.5,1249.1 13339.7,1246.9C13329.9,1244.7 13315.2,1242.0 13307.2,1240.9C13299.1,1239.8 13285.3,1237.6 13276.5,1236.0C13267.7,1234.4 13257.8,1232.9 13254.5,1232.5C13247.8,1231.9 13239.8,1233.6 13232.7,1237.1C13227.8,1239.6 13210.8,1251.7 13200.1,1260.2C13191.6,1267.0 13187.3,1269.3 13170.7,1276.0C13164.0,1278.6 13154.7,1282.4 13150.0,1284.4C13136.6,1290.0 13130.1,1291.3 13118.6,1290.8C13109.9,1290.4 13106.5,1289.7 13094.0,1285.6C13077.6,1280.2 13074.5,1280.1 13065.0,1284.7C13057.0,1288.6 13044.7,1301.5 13037.0,1314.0C13033.5,1319.6 13027.6,1328.1 13023.8,1332.8C13019.8,1337.9 13014.5,1346.4 13011.1,1353.0C13003.7,1367.8 12987.5,1392.4 12982.0,1397.4C12977.0,1401.9 12971.9,1404.3 12961.3,1407.1C12949.3,1410.3 12899.2,1411.0 12723.5,1410.3C12571.5,1409.7 12571.5,1409.7 12563.8,1407.4C12554.6,1404.5 12547.4,1398.6 12543.6,1390.7C12539.0,1381.5 12538.8,1374.6 12540.0,1298.5C12540.5,1260.0 12541.5,1195.2 12542.0,1154.5C12543.3,1058.3 12544.7,1003.6 12546.0,993.0C12549.1,969.3 12555.7,949.8 12566.4,933.3C12572.0,924.4 12574.2,919.4 12578.5,904.8C12580.9,896.9 12584.7,887.6 12589.5,878.1C12593.5,870.1 12598.0,859.7 12599.5,855.0C12604.8,837.7 12607.3,831.3 12611.8,823.0C12621.9,804.3 12623.8,799.0 12627.9,780.3C12630.5,768.4 12633.3,761.5 12640.8,748.8C12650.1,733.0 12653.2,725.0 12653.8,715.4C12654.1,709.1 12653.9,706.5 12652.5,703.7C12650.5,699.4 12643.2,692.5 12632.0,684.5C12618.0,674.4 12610.8,666.9 12600.6,652.0C12583.8,627.4 12581.6,621.1 12581.7,596.0C12581.7,581.4 12582.0,578.4 12584.3,569.6C12587.0,559.4 12592.2,548.7 12602.5,532.1C12609.7,520.4 12615.5,514.2 12627.7,505.1C12641.9,494.5 12649.2,490.4 12660.0,486.8C12669.3,483.7 12670.0,483.6 12688.0,483.6C12708.3,483.5 12713.9,484.5 12725.5,489.9C12733.5,493.6 12753.0,507.7 12760.7,515.3C12768.1,522.5 12771.1,527.9 12777.9,546.2C12785.9,567.7 12786.4,570.3 12786.4,588.5C12786.3,607.1 12785.3,612.7 12778.3,630.0C12768.6,654.3 12764.8,660.0 12745.0,680.5C12736.8,689.0 12729.0,697.8 12727.7,700.2C12724.5,705.6 12722.4,713.1 12721.0,724.0C12719.2,736.9 12717.6,742.5 12711.6,755.7C12708.6,762.3 12703.3,775.8 12700.0,785.6C12696.6,795.5 12691.0,810.5 12687.5,819.0C12681.6,833.5 12678.7,841.7 12671.1,866.3C12669.4,871.7 12665.6,881.4 12662.5,887.9C12659.5,894.3 12655.0,906.5 12652.4,915.0C12649.1,926.2 12646.1,933.9 12641.0,943.7C12633.8,957.8 12629.7,968.8 12625.4,986.0C12622.9,996.0 12622.8,998.6 12621.5,1043.0C12620.7,1068.6 12619.6,1099.4 12619.0,1111.5C12618.4,1123.6 12617.5,1158.9 12617.0,1190.0C12616.5,1221.1 12615.5,1259.1 12614.8,1274.5C12613.1,1312.5 12613.2,1321.7 12615.3,1325.6C12616.2,1327.4 12619.0,1330.6 12621.6,1332.9C12630.7,1340.9 12619.4,1340.3 12777.5,1341.0C12890.4,1341.5 12919.8,1341.4 12924.8,1340.4C12932.9,1338.7 12939.9,1335.5 12947.6,1329.7C12956.3,1323.3 12979.0,1298.3 12986.5,1287.0C12990.0,1281.8 12995.8,1274.2 12999.4,1270.1C13003.0,1266.0 13007.2,1260.2 13008.8,1257.1C13011.2,1252.1 13011.5,1250.5 13011.5,1241.0C13011.4,1232.1 13011.0,1229.0 13008.2,1220.1C13004.5,1208.2 13004.2,1201.6 13006.6,1189.0C13009.9,1171.6 13016.1,1157.5 13030.6,1134.9C13041.6,1117.7 13046.6,1112.8 13074.1,1092.3C13089.3,1081.0 13113.4,1075.8 13141.3,1078.0C13171.1,1080.4 13183.1,1084.3 13200.1,1097.3C13204.7,1100.8 13209.6,1104.3 13211.0,1105.0C13218.8,1109.1 13236.2,1129.6 13246.9,1147.3C13253.8,1158.7 13262.7,1167.0 13271.2,1169.9C13274.6,1171.1 13285.1,1173.2 13294.5,1174.5C13303.9,1175.9 13316.5,1177.9 13322.5,1179.0C13328.5,1180.1 13339.8,1182.1 13347.5,1183.4C13355.2,1184.8 13368.0,1188.0 13376.0,1190.5C13384.0,1193.1 13398.2,1197.3 13407.5,1200.0C13416.9,1202.7 13429.0,1206.5 13434.3,1208.5C13448.2,1213.5 13453.3,1213.0 13461.4,1206.0C13467.3,1200.8 13468.4,1197.8 13468.4,1187.0C13468.5,1176.2 13466.5,1150.6 13464.5,1135.0C13463.7,1129.2 13462.1,1116.5 13461.0,1106.7C13459.6,1094.8 13457.5,1083.7 13454.8,1073.2C13448.9,1050.2 13444.4,1030.7 13440.5,1011.6C13437.0,994.6 13437.0,994.6 13426.0,971.7C13414.6,948.0 13413.7,946.5 13403.3,933.4C13399.8,929.0 13393.6,920.8 13389.3,915.0C13379.5,901.5 13341.4,854.5 13333.4,846.0C13327.0,839.2 13309.7,815.2 13306.2,808.3C13302.8,801.6 13300.0,792.4 13296.9,777.1C13293.3,759.3 13291.9,754.1 13287.3,743.1C13281.7,729.7 13278.3,718.9 13273.5,700.0C13268.6,680.5 13264.2,667.1 13258.3,653.0C13256.1,647.8 13252.6,638.3 13250.5,632.0C13246.1,618.5 13243.4,612.9 13234.1,597.7C13216.9,569.7 13214.9,567.3 13191.1,545.7C13160.0,517.5 13148.1,508.1 13117.5,487.6C13109.8,482.5 13099.7,475.1 13095.0,471.2C13090.3,467.3 13082.9,462.0 13078.5,459.4C13074.1,456.8 13064.7,451.0 13057.5,446.6C13050.4,442.1 13041.4,437.5 13037.7,436.2C13031.2,434.0 13030.6,434.0 13025.6,435.4C13020.0,437.1 13012.8,442.6 13010.5,447.1C13008.6,450.8 13008.6,464.5 13010.5,480.9C13012.2,495.6 13013.4,513.6 13015.5,556.0C13018.6,619.3 13019.3,641.2 13019.4,678.0C13019.7,725.7 13018.7,722.8 13042.0,746.5C13049.6,754.2 13056.5,762.1 13057.5,764.0C13061.5,771.8 13070.3,795.1 13072.6,803.9C13074.5,811.4 13075.0,815.7 13075.0,826.2C13075.0,841.0 13074.0,846.0 13067.9,860.6C13059.5,880.8 13056.9,884.8 13043.6,897.8C13036.9,904.4 13029.3,910.9 13026.9,912.3C13020.2,916.1 12987.9,929.8 12981.3,931.5C12971.5,934.1 12959.7,934.4 12946.6,932.5C12937.0,931.2 12933.9,931.0 12930.1,932.0C12918.8,934.8 12910.1,943.2 12905.2,956.2C12899.7,970.4 12894.2,991.3 12891.0,1010.1C12889.0,1021.7 12885.9,1034.6 12882.4,1046.0C12875.4,1069.0 12872.2,1082.8 12866.5,1113.5C12862.3,1136.5 12856.6,1162.2 12851.9,1179.5C12850.9,1183.3 12848.5,1194.2 12846.6,1203.5C12841.9,1226.6 12840.2,1231.0 12832.5,1238.7C12827.2,1244.0 12825.3,1245.2 12818.9,1247.2C12811.8,1249.4 12810.3,1249.5 12777.5,1249.5C12739.0,1249.5 12735.9,1249.1 12728.1,1242.3C12722.2,1237.3 12720.0,1232.2 12720.0,1223.5C12720.0,1212.6 12721.3,1209.4 12728.4,1202.4C12734.6,1196.3 12734.9,1196.1 12749.1,1191.6C12757.0,1189.1 12765.5,1185.8 12768.0,1184.2C12773.7,1180.6 12782.2,1171.6 12784.8,1166.4C12787.4,1161.2 12796.2,1127.1 12799.4,1109.2C12800.9,1101.3 12803.6,1090.1 12805.5,1084.2C12810.9,1067.5 12815.4,1045.1 12820.5,1009.7C12823.5,989.2 12824.1,986.5 12833.4,952.5C12837.4,937.6 12842.2,920.2 12843.9,913.6C12845.6,907.1 12849.3,896.6 12852.0,890.4C12855.1,883.5 12858.0,874.7 12859.6,867.8C12861.0,861.6 12863.6,850.4 12865.5,843.0C12867.3,835.6 12869.6,825.0 12870.5,819.5C12873.1,803.1 12874.7,798.6 12884.2,779.7C12895.1,757.8 12900.1,751.9 12915.0,743.3C12931.5,733.7 12934.3,731.7 12940.9,725.5C12944.3,722.2 12948.4,717.2 12949.8,714.5C12953.0,708.5 12953.0,711.1 12951.3,632.0C12950.1,576.5 12948.0,531.4 12945.4,503.0C12944.6,493.9 12943.3,477.5 12942.5,466.5C12939.6,426.6 12937.1,419.3 12919.5,400.3C12911.7,391.8 12890.9,373.7 12883.0,368.4C12880.5,366.7 12874.0,363.0 12868.5,360.0C12863.0,357.1 12853.1,351.5 12846.5,347.5C12839.9,343.5 12831.6,338.8 12828.0,337.0C12824.4,335.2 12816.7,330.7 12810.9,327.0C12805.1,323.2 12797.0,318.6 12792.9,316.6C12768.5,305.0 12748.8,296.2 12736.5,291.4C12728.8,288.3 12717.0,282.7 12710.3,278.8C12694.8,269.9 12685.9,267.0 12674.1,267.0C12662.3,267.0 12655.2,269.3 12636.5,278.9C12628.2,283.2 12617.9,288.1 12613.5,289.9C12609.1,291.6 12600.5,295.7 12594.5,299.1C12588.5,302.4 12575.8,308.8 12566.4,313.4C12557.0,318.0 12545.0,324.5 12539.8,327.8C12534.5,331.2 12526.7,336.0 12522.4,338.5C12518.1,341.1 12510.5,346.4 12505.5,350.4C12500.6,354.4 12493.1,360.0 12489.0,362.7C12478.3,369.9 12472.4,374.7 12460.9,385.8C12444.8,401.2 12439.4,410.1 12437.1,424.7C12436.5,428.6 12436.0,443.9 12436.0,458.7C12435.9,473.4 12435.5,498.6 12434.9,514.5C12434.4,531.0 12433.6,735.9 12433.1,989.5C12432.4,1315.0 12431.9,1443.7 12431.0,1465.7C12429.8,1493.7 12429.8,1496.3 12431.4,1500.5C12433.7,1506.3 12440.7,1512.5 12447.2,1514.5C12453.7,1516.4 12638.4,1517.5 12936.5,1517.5C13146.5,1517.4 13146.5,1517.4 13152.5,1515.0C13159.1,1512.4 13169.3,1503.0 13180.5,1489.0C13189.7,1477.7 13196.2,1473.0 13217.5,1462.6C13245.4,1448.9 13253.5,1446.7 13275.5,1446.8C13295.3,1446.9 13302.3,1449.1 13328.5,1463.5C13338.2,1468.9 13344.9,1474.9 13356.5,1488.9C13366.2,1500.6 13369.5,1506.1 13372.4,1514.9C13376.5,1527.4 13377.3,1533.7 13376.7,1549.2C13376.3,1560.4 13375.6,1565.6 13373.6,1573.0C13369.2,1588.8 13364.6,1596.8 13351.5,1611.8C13338.2,1627.0 13335.0,1629.6 13322.0,1635.7C13291.2,1650.3 13260.6,1654.6 13238.0,1647.5C13233.3,1646.0 13223.5,1641.9 13216.2,1638.4C13204.8,1632.9 13201.9,1631.0 13194.9,1624.3C13190.4,1620.0 13182.9,1612.1 13178.2,1606.6C13168.7,1595.6 13163.6,1591.9 13154.0,1588.9C13146.8,1586.6 13160.1,1586.5 12998.0,1590.5C12872.6,1593.7 12597.2,1595.1 12497.5,1593.1C12461.0,1592.3 12458.1,1592.4 12452.3,1594.2C12444.8,1596.4 12437.0,1603.0 12434.5,1609.2C12432.9,1613.2 12432.8,1631.7 12432.9,1912.0C12433.2,2432.2 12433.8,2533.0 12436.9,2643.5C12437.9,2677.1 12438.6,2680.5 12447.1,2693.6C12457.8,2710.3 12500.6,2748.2 12524.0,2761.7C12528.7,2764.4 12538.1,2770.4 12545.0,2775.0C12551.9,2779.5 12561.1,2784.9 12565.5,2787.0C12569.9,2789.0 12578.7,2793.9 12585.0,2797.7C12597.0,2805.0 12647.7,2830.3 12659.0,2834.7C12671.8,2839.6 12681.0,2840.8 12691.6,2838.9Z M12096.4,2837.5C12109.1,2835.3 12133.6,2826.9 12144.4,2821.0C12149.6,2818.3 12160.0,2813.4 12167.6,2810.1C12175.3,2806.9 12184.4,2802.5 12188.0,2800.2C12191.6,2797.9 12199.5,2793.0 12205.5,2789.3C12228.6,2775.0 12272.3,2741.8 12287.5,2727.0C12291.9,2722.8 12298.2,2717.2 12301.6,2714.7C12312.0,2706.9 12317.0,2699.8 12320.5,2687.8C12323.5,2677.2 12324.1,2671.5 12325.0,2638.5C12328.5,2516.2 12328.7,2482.9 12327.9,2208.0C12327.5,2058.7 12327.1,1863.8 12327.1,1775.0C12327.0,1661.7 12326.7,1612.3 12325.9,1609.5C12325.2,1606.8 12323.0,1603.8 12319.5,1600.3C12310.7,1591.7 12310.2,1591.6 12259.0,1591.7C12221.0,1591.8 11650.4,1591.6 11618.5,1591.5C11606.9,1591.5 11606.2,1591.6 11599.8,1594.8C11594.1,1597.6 11590.7,1600.6 11577.5,1614.3C11561.5,1631.1 11559.5,1632.6 11537.0,1645.7C11521.4,1654.8 11500.7,1659.2 11483.1,1657.2C11456.8,1654.2 11425.9,1636.0 11407.4,1612.7C11399.8,1603.0 11390.9,1585.8 11387.9,1574.6C11386.1,1567.8 11385.8,1564.7 11386.2,1553.1C11386.6,1541.1 11387.0,1538.4 11389.8,1530.3C11396.7,1510.2 11403.3,1499.8 11419.6,1483.9C11433.1,1470.8 11436.5,1468.3 11450.5,1461.1C11464.8,1453.7 11477.1,1450.0 11489.5,1449.3C11509.7,1448.2 11524.7,1451.8 11548.5,1463.7C11563.5,1471.2 11563.5,1471.2 11584.5,1492.5C11604.0,1512.3 11605.9,1513.9 11610.9,1515.4C11622.5,1518.8 11881.4,1519.7 12220.5,1517.4C12297.2,1516.9 12302.9,1516.8 12309.0,1515.0C12316.6,1512.8 12323.4,1507.5 12325.9,1502.0C12327.4,1498.7 12327.5,1457.6 12327.3,1009.5C12327.0,446.2 12326.9,426.8 12324.5,419.0C12320.7,406.6 12316.4,400.3 12300.5,384.1C12285.6,368.9 12270.6,356.7 12246.0,339.8C12240.8,336.2 12232.3,329.8 12227.1,325.7C12216.8,317.5 12189.1,301.2 12170.3,292.4C12163.8,289.3 12150.0,282.7 12139.5,277.5C12113.0,264.5 12106.6,262.5 12092.0,262.5C12081.6,262.5 12079.6,262.8 12070.8,265.9C12065.4,267.7 12044.5,277.6 12024.3,287.8C12004.0,298.0 11980.1,310.1 11971.0,314.5C11961.9,319.0 11950.6,325.2 11945.9,328.3C11941.1,331.3 11931.7,336.9 11924.9,340.5C11918.1,344.2 11909.8,349.1 11906.4,351.5C11903.1,353.9 11894.0,359.2 11886.3,363.3C11878.6,367.4 11869.7,372.6 11866.6,374.9C11863.6,377.2 11856.6,381.9 11851.3,385.4C11840.6,392.3 11831.5,401.2 11828.1,407.9C11824.6,414.7 11822.2,425.7 11821.0,440.6C11820.4,448.2 11819.5,456.2 11819.0,458.4C11813.8,482.2 11811.3,561.6 11814.5,597.5C11815.3,606.3 11816.0,618.2 11816.0,624.0C11816.0,629.8 11816.7,641.9 11817.5,651.0C11818.3,660.1 11819.0,673.8 11819.0,681.6C11819.0,689.3 11819.5,698.3 11820.1,701.6C11822.4,714.0 11831.9,726.4 11849.4,740.0C11861.7,749.5 11871.0,759.0 11877.7,769.0C11885.0,780.0 11899.5,808.4 11901.9,816.5C11905.4,828.5 11908.9,852.3 11910.0,871.8C11911.3,894.5 11913.0,904.8 11917.4,918.8C11922.4,934.3 11923.5,939.2 11927.4,962.5C11929.3,974.0 11932.3,990.1 11934.0,998.3C11936.8,1011.7 11938.8,1019.1 11946.5,1045.0C11947.9,1049.7 11950.9,1062.4 11953.1,1073.3C11955.3,1084.2 11958.2,1097.0 11959.6,1101.8C11961.0,1106.6 11963.7,1115.9 11965.6,1122.4C11967.5,1129.0 11969.9,1140.3 11971.0,1147.4C11973.4,1164.0 11975.4,1170.0 11980.2,1175.5C11986.0,1182.1 11990.9,1183.9 12006.2,1185.6C12021.6,1187.2 12027.4,1189.5 12034.0,1196.6C12040.4,1203.6 12042.3,1208.8 12042.8,1220.7C12043.1,1226.9 12042.8,1232.2 12042.0,1234.4C12040.2,1239.9 12032.1,1246.6 12024.2,1249.0C12017.8,1251.0 12016.1,1251.1 11985.0,1250.5C11941.1,1249.6 11933.3,1247.9 11921.3,1236.7C11907.8,1224.0 11906.9,1221.0 11906.0,1186.0C11905.3,1160.7 11905.0,1157.3 11902.1,1143.0C11900.4,1134.5 11897.0,1120.5 11894.5,1112.0C11888.5,1091.1 11885.7,1078.9 11882.0,1057.0C11878.5,1036.0 11876.4,1027.9 11870.8,1013.0C11868.7,1007.2 11864.6,993.3 11861.9,982.1C11855.3,955.3 11853.9,951.8 11847.5,945.4C11843.2,941.1 11841.0,939.8 11835.2,938.0C11828.8,936.1 11827.4,936.0 11818.6,936.9C11797.2,939.3 11791.7,938.1 11767.0,925.3C11745.6,914.1 11741.0,910.8 11726.0,895.3C11715.4,884.3 11712.4,880.4 11705.9,869.4C11696.9,854.1 11695.5,850.7 11693.5,839.4C11691.7,829.2 11691.6,820.8 11693.1,808.5C11695.1,791.2 11696.8,786.9 11708.5,767.5C11715.9,755.3 11720.8,749.7 11729.0,744.0C11735.2,739.8 11743.0,731.8 11745.3,727.4C11749.1,720.1 11749.2,717.0 11749.6,647.5C11749.9,587.6 11751.1,520.3 11752.7,470.5C11753.3,451.1 11752.7,448.7 11745.9,442.6C11739.2,436.6 11731.9,434.3 11725.2,436.0C11717.4,437.9 11712.7,440.5 11705.4,446.7C11696.8,454.1 11694.5,455.7 11683.4,462.0C11673.2,467.9 11654.3,481.3 11642.2,491.2C11637.6,495.0 11627.9,502.0 11620.7,506.9C11613.4,511.8 11603.2,519.6 11597.9,524.2C11592.7,528.8 11582.8,537.0 11576.0,542.5C11569.2,548.0 11560.7,555.2 11557.1,558.5C11544.4,570.4 11529.5,597.3 11523.4,619.5C11519.1,635.4 11514.9,647.7 11508.0,664.0C11504.9,671.6 11500.9,684.1 11497.8,696.0C11494.7,708.2 11489.9,723.2 11484.9,736.2C11480.6,747.6 11477.0,757.3 11477.0,757.8C11477.0,760.7 11468.2,785.7 11464.7,792.5C11462.5,796.9 11458.4,805.7 11455.5,812.1C11449.9,824.6 11446.9,829.4 11437.9,840.5C11434.8,844.4 11429.9,851.3 11427.0,856.0C11421.0,865.8 11415.2,872.7 11398.4,890.0C11391.6,897.0 11383.3,906.9 11379.4,912.5C11375.7,918.0 11369.9,925.9 11366.7,930.0C11363.5,934.1 11359.0,940.6 11356.6,944.5C11335.5,979.3 11333.9,982.6 11328.0,1004.9C11325.8,1013.3 11321.9,1024.7 11319.4,1030.3C11313.8,1042.7 11311.1,1052.9 11307.2,1077.0C11303.9,1096.8 11302.6,1107.6 11301.0,1129.0C11300.4,1136.4 11298.8,1150.1 11297.4,1159.4C11294.7,1178.7 11294.2,1197.2 11296.4,1202.3C11298.3,1207.1 11305.5,1212.8 11311.8,1214.6C11318.0,1216.4 11322.4,1215.9 11332.0,1212.3C11347.9,1206.3 11353.3,1204.8 11368.4,1202.0C11377.3,1200.3 11390.4,1197.4 11397.5,1195.5C11420.6,1189.6 11448.7,1184.6 11468.6,1183.0C11498.1,1180.7 11508.1,1173.5 11520.0,1146.3C11522.4,1140.9 11526.0,1133.7 11528.2,1130.4C11533.9,1121.2 11545.7,1110.6 11559.5,1102.1C11566.1,1098.0 11574.0,1093.2 11577.0,1091.3C11588.2,1084.4 11612.3,1078.9 11631.0,1078.8C11643.6,1078.8 11658.7,1081.3 11670.6,1085.4C11679.7,1088.5 11681.6,1089.5 11696.8,1099.4C11707.1,1106.1 11711.7,1109.9 11720.7,1119.4C11726.9,1125.8 11733.4,1133.2 11735.2,1135.8C11739.5,1142.0 11750.1,1165.3 11753.5,1176.0C11757.1,1187.3 11757.9,1203.6 11755.6,1216.5C11753.5,1228.1 11753.6,1237.2 11755.9,1243.7C11758.5,1251.2 11766.4,1263.9 11773.8,1272.2C11777.3,1276.2 11782.5,1282.9 11785.3,1287.0C11792.4,1297.5 11818.6,1323.9 11828.0,1330.1C11832.2,1332.9 11839.0,1336.2 11843.5,1337.6C11851.5,1340.3 11851.5,1340.3 11926.5,1340.0C11967.8,1339.8 12030.1,1339.6 12065.0,1339.5C12135.4,1339.3 12132.0,1339.7 12139.8,1332.6C12145.1,1327.8 12147.7,1321.2 12148.9,1309.9C12149.5,1304.6 12150.3,1243.3 12150.7,1170.5C12151.7,983.8 12151.8,998.1 12149.1,987.5C12146.3,976.5 12142.1,965.6 12134.1,948.2C12130.7,940.8 12125.6,926.9 12122.5,916.7C12119.3,906.3 12114.3,893.0 12110.9,885.7C12107.6,878.7 12102.8,866.5 12100.1,858.6C12097.4,850.8 12092.4,838.3 12089.0,830.9C12085.6,823.5 12080.4,810.3 12077.3,801.5C12074.3,792.7 12068.3,778.1 12064.0,769.0C12053.8,747.4 12051.6,741.1 12048.0,722.2C12044.5,704.6 12042.9,698.8 12039.2,691.5C12036.2,685.4 12025.5,674.1 12017.9,669.0C12012.4,665.2 11998.3,651.0 11990.7,641.5C11985.4,634.9 11979.9,623.0 11976.0,609.5C11968.8,585.0 11971.7,551.7 11982.7,533.2C11987.8,524.7 12003.5,508.1 12011.8,502.7C12020.8,496.7 12032.9,490.7 12041.5,488.0C12050.5,485.2 12072.8,484.1 12086.3,486.0C12100.6,487.9 12109.1,491.1 12124.0,500.0C12139.4,509.3 12143.6,513.2 12156.0,530.2C12169.9,549.3 12172.5,558.5 12172.5,589.0C12172.5,617.7 12170.3,624.2 12153.4,646.7C12141.9,661.9 12136.6,667.7 12128.5,673.5C12119.5,679.9 12110.3,690.1 12108.9,695.2C12108.3,697.6 12108.0,703.1 12108.2,707.6C12108.6,714.9 12109.2,716.7 12114.7,728.6C12118.0,735.7 12122.2,746.1 12123.9,751.8C12125.7,757.6 12130.7,769.3 12135.5,778.8C12140.1,788.0 12145.5,800.0 12147.5,805.5C12151.9,817.4 12157.3,828.4 12164.3,839.4C12167.1,843.9 12172.0,854.0 12175.2,861.9C12178.4,869.9 12182.7,879.3 12184.9,882.9C12191.2,893.6 12193.1,897.8 12197.2,910.5C12201.1,922.4 12202.4,925.1 12211.4,940.5C12216.5,949.4 12220.3,960.0 12222.5,972.3C12225.3,987.4 12226.1,1028.5 12226.9,1193.0C12227.7,1355.9 12227.7,1356.5 12229.9,1364.0C12232.8,1374.3 12233.6,1384.7 12232.0,1390.7C12231.0,1394.2 12229.1,1397.0 12225.0,1401.2C12215.2,1411.0 12234.7,1410.1 12023.0,1410.0C11906.3,1410.0 11833.8,1409.5 11827.6,1408.9C11809.5,1407.1 11794.8,1400.9 11785.9,1391.4C11778.3,1383.3 11765.0,1365.9 11761.4,1359.3C11758.1,1353.5 11745.0,1332.9 11736.1,1319.6C11732.1,1313.5 11715.8,1294.9 11709.5,1289.2C11705.3,1285.3 11702.3,1283.6 11697.3,1282.0C11689.4,1279.6 11685.0,1280.1 11668.9,1285.5C11652.8,1290.9 11648.5,1291.4 11633.5,1289.5C11626.4,1288.6 11617.4,1287.0 11613.5,1286.0C11603.5,1283.4 11579.1,1273.9 11572.3,1269.9C11569.2,1268.0 11559.5,1259.7 11550.9,1251.3C11535.7,1236.5 11535.0,1236.1 11528.1,1234.0C11521.7,1232.0 11520.3,1231.9 11514.4,1232.9C11510.8,1233.6 11502.2,1235.9 11495.2,1238.1C11486.6,1240.8 11479.3,1242.4 11472.1,1243.1C11456.5,1244.7 11417.9,1249.7 11399.0,1252.6C11378.6,1255.7 11369.9,1257.9 11354.5,1263.7C11347.9,1266.2 11336.6,1270.2 11329.5,1272.7C11313.2,1278.4 11307.6,1281.2 11297.0,1289.1C11277.3,1303.6 11258.7,1321.6 11246.3,1338.1C11240.4,1346.0 11220.5,1385.5 11217.1,1396.0C11214.7,1403.8 11212.7,1414.0 11209.5,1436.0C11205.2,1466.2 11204.6,1478.3 11204.5,1536.5C11204.5,1592.5 11205.5,1615.1 11209.6,1649.5C11210.3,1656.1 11211.7,1667.8 11212.5,1675.5C11215.2,1700.2 11218.7,1710.2 11231.1,1729.1C11238.8,1740.7 11268.6,1772.2 11276.3,1776.7C11279.2,1778.4 11286.5,1782.7 11292.5,1786.2C11298.5,1789.8 11305.8,1794.1 11308.5,1795.8C11311.2,1797.6 11320.9,1801.7 11330.0,1805.0C11339.0,1808.3 11350.3,1812.8 11355.0,1814.9C11366.9,1820.4 11373.8,1822.3 11399.8,1827.5C11457.0,1838.8 11475.9,1843.0 11485.5,1846.5C11508.2,1854.7 11510.1,1855.2 11517.6,1854.8C11527.9,1854.1 11534.3,1850.8 11544.9,1840.6C11552.5,1833.3 11555.4,1831.3 11567.6,1825.1C11575.2,1821.2 11585.3,1815.7 11589.9,1813.0C11604.9,1804.2 11619.1,1800.6 11639.0,1800.6C11652.2,1800.7 11652.9,1800.8 11667.9,1805.3C11676.4,1807.9 11685.2,1810.0 11687.5,1810.0C11698.7,1810.0 11708.6,1803.4 11718.0,1789.6C11720.6,1785.7 11725.2,1779.5 11728.2,1775.8C11731.1,1772.1 11735.5,1765.4 11737.9,1760.9C11740.3,1756.4 11745.3,1748.2 11749.0,1742.6C11752.6,1737.1 11757.6,1728.9 11760.0,1724.5C11767.8,1710.2 11776.2,1703.0 11790.5,1698.3C11798.5,1695.6 11798.5,1695.6 11879.5,1694.9C11924.0,1694.5 12016.2,1693.9 12084.3,1693.6C12205.1,1693.1 12208.2,1693.1 12214.4,1695.0C12221.9,1697.4 12229.4,1703.4 12232.1,1709.5C12234.7,1715.1 12234.6,1729.4 12231.8,1743.5C12229.7,1754.3 12229.7,1757.1 12228.9,1899.5C12228.5,1979.2 12227.8,2047.0 12227.5,2050.0C12227.2,2053.0 12226.3,2065.2 12225.4,2077.0C12222.9,2113.0 12219.8,2126.9 12211.2,2140.1C12203.4,2152.0 12201.4,2155.9 12196.6,2167.3C12193.9,2174.0 12189.2,2182.5 12184.6,2189.3C12179.7,2196.6 12175.5,2204.5 12172.5,2212.0C12169.9,2218.3 12164.7,2229.4 12160.9,2236.7C12157.2,2244.0 12152.9,2253.9 12151.5,2258.7C12145.4,2279.2 12142.5,2287.0 12136.4,2300.3C12131.9,2309.9 12128.2,2320.2 12124.5,2332.9C12118.9,2352.6 12117.4,2356.7 12111.5,2369.5C12107.2,2378.6 12105.9,2388.4 12107.9,2395.8C12109.7,2402.2 12120.8,2413.5 12132.8,2420.9C12142.8,2427.1 12150.6,2434.3 12163.8,2449.7C12178.6,2467.1 12187.0,2492.0 12185.7,2514.0C12185.0,2525.0 12182.7,2533.6 12177.0,2547.4C12171.2,2561.2 12167.4,2566.8 12154.6,2579.9C12143.0,2591.8 12135.9,2597.1 12122.5,2603.7C12093.0,2618.4 12066.3,2617.5 12034.0,2600.8C12018.2,2592.7 12015.2,2590.2 12000.3,2574.2C11986.2,2558.9 11982.2,2552.7 11977.4,2538.0C11974.8,2530.2 11974.6,2528.2 11974.6,2514.5C11974.6,2502.0 11975.0,2498.1 11976.9,2491.1C11980.1,2479.2 11983.7,2471.8 11991.4,2461.5C11995.1,2456.6 12000.3,2448.9 12003.0,2444.5C12008.9,2434.7 12015.9,2427.9 12026.0,2422.0C12045.2,2410.8 12052.6,2398.5 12055.1,2373.7C12057.0,2354.1 12059.8,2341.3 12064.6,2329.5C12067.1,2323.4 12070.9,2311.4 12073.0,2302.8C12075.4,2293.4 12079.0,2282.5 12082.0,2275.7C12088.2,2261.3 12089.5,2257.6 12096.5,2235.0C12105.6,2205.2 12108.1,2197.9 12111.2,2191.0C12115.1,2182.4 12116.4,2178.9 12121.1,2163.6C12125.3,2150.2 12128.2,2143.5 12133.2,2136.2C12137.3,2130.2 12142.7,2118.5 12144.4,2111.6C12148.6,2095.6 12149.1,2086.1 12148.4,2047.5C12147.6,2004.5 12149.5,1834.9 12151.1,1805.5C12152.5,1780.8 12151.8,1775.9 12145.8,1769.4C12143.6,1767.0 12139.8,1764.1 12137.3,1762.9C12132.7,1760.7 12132.7,1760.7 12041.1,1760.7C11990.7,1760.8 11923.4,1761.1 11891.5,1761.5C11829.0,1762.2 11827.4,1762.3 11818.0,1767.7C11811.6,1771.4 11795.6,1787.2 11790.0,1795.5C11787.4,1799.3 11781.1,1808.1 11776.0,1815.0C11765.6,1829.0 11758.1,1843.5 11755.0,1855.5C11753.4,1861.8 11753.0,1866.6 11753.0,1879.9C11753.0,1898.7 11751.9,1904.5 11744.9,1924.5C11738.0,1944.2 11733.4,1952.3 11719.5,1968.5C11708.1,1981.8 11705.1,1984.8 11699.0,1989.0C11689.1,1995.7 11664.3,2009.0 11656.8,2011.6C11640.5,2017.1 11614.6,2016.8 11596.0,2010.8C11588.6,2008.4 11564.3,1996.5 11556.0,1991.2C11549.5,1987.1 11532.6,1972.5 11525.4,1964.9C11520.2,1959.3 11512.7,1947.3 11504.4,1931.0C11498.2,1918.7 11490.1,1910.3 11481.5,1907.1C11475.0,1904.6 11473.4,1904.3 11449.5,1900.5C11426.3,1896.7 11404.8,1891.9 11383.3,1885.6C11373.0,1882.6 11360.2,1879.0 11355.0,1877.5C11349.8,1876.1 11339.2,1872.3 11331.5,1869.2C11314.2,1862.2 11308.7,1861.7 11301.9,1866.5C11292.0,1873.4 11291.0,1879.4 11296.0,1900.0C11297.7,1906.9 11301.1,1924.4 11303.6,1939.0C11306.0,1953.6 11309.9,1974.7 11312.1,1986.0C11314.3,1997.3 11316.5,2009.0 11317.1,2012.0C11317.7,2015.0 11320.1,2024.7 11322.5,2033.5C11324.9,2042.3 11328.0,2056.0 11329.4,2064.0C11333.3,2086.6 11343.1,2124.8 11349.0,2140.5C11356.5,2160.4 11359.7,2166.0 11371.1,2179.0C11376.6,2185.2 11385.9,2197.2 11391.7,2205.4C11398.5,2215.1 11406.4,2224.6 11413.5,2232.0C11421.8,2240.5 11427.1,2247.1 11433.5,2257.0C11444.7,2274.2 11448.4,2281.9 11451.1,2293.9C11455.6,2314.2 11457.3,2319.7 11462.1,2330.3C11466.9,2340.7 11468.6,2346.1 11478.1,2381.0C11480.4,2389.5 11485.2,2403.9 11488.8,2413.0C11492.3,2422.1 11496.3,2434.4 11497.7,2440.5C11502.4,2461.5 11504.0,2465.8 11512.4,2478.7C11514.8,2482.5 11518.4,2488.9 11520.5,2493.0C11525.6,2503.3 11531.7,2512.4 11538.1,2519.5C11541.1,2522.8 11545.8,2528.4 11548.5,2531.9C11553.9,2538.8 11577.1,2560.7 11586.0,2567.4C11589.0,2569.6 11598.0,2576.7 11606.0,2583.1C11635.8,2606.9 11643.7,2612.9 11652.5,2618.3C11657.5,2621.3 11665.1,2627.0 11669.4,2630.8C11674.4,2635.3 11681.1,2639.9 11688.1,2643.6C11694.1,2646.9 11703.4,2653.0 11708.8,2657.3C11722.1,2668.0 11732.7,2671.8 11740.2,2668.7C11745.0,2666.7 11752.0,2660.3 11753.9,2656.0C11756.0,2651.4 11756.4,2600.0 11755.2,2493.0C11754.7,2444.6 11754.7,2409.4 11755.4,2397.3C11757.0,2364.4 11755.0,2360.1 11723.6,2332.6C11717.4,2327.2 11716.3,2325.6 11710.5,2313.6C11703.2,2298.4 11697.9,2283.9 11695.5,2272.1C11694.2,2265.5 11693.9,2260.1 11694.2,2247.6C11694.6,2233.4 11695.0,2230.7 11697.2,2224.9C11699.8,2217.8 11708.6,2204.0 11715.2,2196.5C11719.0,2192.2 11738.9,2175.0 11745.7,2170.2C11750.0,2167.1 11782.3,2152.4 11793.0,2148.7C11805.0,2144.5 11814.9,2144.5 11828.0,2148.7C11841.6,2153.1 11842.6,2153.3 11848.5,2151.5C11855.7,2149.5 11862.9,2142.9 11866.3,2135.3C11872.8,2120.6 11882.5,2077.5 11888.0,2038.4C11889.6,2026.7 11893.0,2006.8 11895.6,1994.3C11900.3,1971.5 11900.3,1971.5 11900.4,1938.5C11900.6,1911.5 11901.0,1903.9 11902.4,1897.0C11907.8,1870.9 11914.3,1859.4 11927.4,1853.0C11937.1,1848.3 11944.0,1847.0 11965.0,1845.9C11975.7,1845.4 11988.3,1844.5 11993.0,1844.0C12010.3,1842.0 12017.7,1843.4 12025.3,1850.0C12031.5,1855.5 12033.4,1860.7 12032.8,1870.5C12032.1,1880.6 12028.1,1888.9 12020.0,1896.3C12014.8,1901.2 12012.8,1902.2 12003.1,1905.5C11994.0,1908.5 11991.1,1910.0 11987.0,1913.7C11978.0,1921.8 11975.1,1929.0 11972.4,1949.9C11971.5,1956.8 11970.2,1964.5 11969.5,1967.0C11962.9,1991.0 11960.6,2001.4 11958.0,2018.4C11953.7,2047.2 11947.4,2078.5 11943.5,2091.0C11938.9,2105.5 11937.9,2110.0 11933.1,2133.5C11928.3,2157.2 11925.4,2167.4 11919.9,2180.7C11914.5,2193.6 11909.3,2209.8 11908.0,2217.4C11907.5,2220.8 11906.6,2230.3 11906.0,2238.6C11904.9,2256.3 11903.4,2261.6 11894.5,2281.5C11891.0,2289.2 11886.6,2299.5 11884.6,2304.3C11879.1,2318.0 11876.7,2321.5 11862.1,2336.3C11852.1,2346.5 11846.4,2351.4 11840.4,2355.0C11831.2,2360.6 11822.8,2369.0 11820.0,2375.4C11818.9,2377.8 11817.6,2382.6 11817.2,2386.1C11816.3,2392.7 11817.3,2514.1 11818.3,2515.7C11818.6,2516.1 11819.3,2526.2 11819.9,2538.0C11821.4,2565.3 11823.7,2595.8 11825.6,2612.5C11826.4,2619.7 11827.5,2635.7 11828.0,2648.0C11829.5,2683.0 11830.9,2694.0 11835.0,2702.0C11836.9,2705.7 11846.0,2714.8 11849.7,2716.9C11850.9,2717.5 11856.3,2721.6 11861.6,2726.0C11866.9,2730.4 11874.7,2736.1 11878.9,2738.7C11883.1,2741.3 11891.8,2746.7 11898.2,2750.7C11904.7,2754.7 11913.6,2759.8 11918.0,2762.0C11922.4,2764.2 11931.5,2769.5 11938.2,2773.7C11944.9,2777.8 11955.4,2783.7 11961.6,2786.6C11967.8,2789.5 11975.4,2793.5 11978.5,2795.4C11985.6,2800.0 11995.6,2805.0 12006.7,2809.6C12011.5,2811.6 12022.2,2816.7 12030.5,2821.0C12045.5,2828.8 12065.0,2836.3 12074.5,2837.9C12082.2,2839.2 12087.0,2839.1 12096.4,2837.5Z M12090.6,2554.9C12106.7,2549.9 12117.6,2541.7 12123.3,2530.1C12126.4,2523.7 12126.5,2523.3 12126.5,2509.5C12126.5,2495.6 12126.5,2495.4 12123.1,2488.5C12118.4,2478.8 12104.4,2464.8 12094.5,2459.9C12085.2,2455.3 12076.3,2455.1 12068.0,2459.2C12061.7,2462.3 12042.5,2477.5 12036.3,2484.2C12028.8,2492.4 12027.5,2496.0 12027.5,2508.0C12027.5,2517.9 12027.7,2519.0 12030.7,2525.1C12033.1,2529.9 12036.2,2533.8 12041.8,2539.1C12050.3,2547.3 12056.8,2551.2 12067.4,2554.6C12076.3,2557.5 12082.0,2557.6 12090.6,2554.9Z M12697.9,2555.9C12700.3,2555.4 12705.8,2553.6 12710.2,2551.9C12716.8,2549.3 12719.5,2547.5 12725.6,2541.8C12730.4,2537.2 12733.9,2532.8 12735.7,2529.1C12738.2,2524.1 12738.5,2522.4 12738.5,2513.5C12738.5,2503.8 12738.4,2503.3 12734.7,2496.3C12728.7,2485.1 12720.7,2478.1 12705.8,2471.1C12692.8,2464.9 12681.6,2461.0 12677.0,2461.0C12675.5,2461.0 12671.2,2461.9 12667.6,2463.0C12651.5,2468.0 12637.1,2489.8 12637.0,2509.1C12636.9,2536.5 12657.7,2556.8 12686.0,2556.9C12690.1,2556.9 12695.5,2556.5 12697.9,2555.9Z M12977.5,2305.0C12982.6,2303.1 12985.2,2301.1 12994.6,2291.6C13009.0,2277.2 13010.5,2274.2 13010.5,2260.0C13010.5,2249.9 13010.4,2249.3 13007.0,2243.3C13005.1,2239.8 12998.5,2231.7 12992.2,2225.1C12983.0,2215.3 12979.7,2212.5 12974.2,2209.8C12968.1,2206.8 12966.8,2206.5 12958.0,2206.5C12949.7,2206.5 12947.7,2206.9 12942.7,2209.2C12935.1,2212.8 12924.8,2222.7 12921.3,2229.9C12919.0,2234.6 12918.5,2237.1 12918.2,2245.6C12917.7,2257.8 12919.3,2264.2 12924.8,2271.6C12926.8,2274.4 12931.0,2280.3 12934.0,2284.6C12949.2,2306.5 12959.9,2311.5 12977.5,2305.0Z M11799.4,2304.0C11810.1,2300.6 11828.6,2284.8 11840.8,2268.5C11851.5,2254.2 11853.5,2249.6 11853.5,2239.0C11853.5,2229.3 11852.4,2226.6 11845.7,2219.2C11834.9,2207.5 11819.0,2200.0 11807.7,2201.4C11800.3,2202.4 11784.2,2208.0 11777.6,2212.1C11761.3,2221.9 11749.0,2242.0 11749.0,2258.4C11749.1,2273.9 11766.8,2300.4 11779.8,2304.4C11786.4,2306.4 11791.7,2306.3 11799.4,2304.0Z M11642.7,1958.5C11652.5,1955.4 11664.5,1948.1 11673.6,1939.6C11687.3,1927.0 11692.5,1915.8 11691.8,1901.0C11691.1,1886.7 11687.2,1881.8 11667.0,1869.5C11651.9,1860.4 11644.5,1857.8 11633.5,1857.7C11620.6,1857.7 11609.9,1861.7 11593.5,1872.5C11583.4,1879.2 11574.7,1888.2 11571.2,1895.7C11568.9,1900.7 11568.5,1902.8 11568.5,1910.5C11568.5,1918.3 11568.9,1920.2 11571.3,1925.1C11576.6,1936.0 11599.8,1954.6 11613.4,1958.9C11622.3,1961.8 11632.9,1961.6 11642.7,1958.5Z M13144.5,1953.7C13166.6,1946.1 13179.3,1934.9 13185.0,1918.0C13188.0,1909.2 13187.5,1898.9 13183.7,1890.7C13180.5,1883.6 13171.8,1874.3 13162.5,1868.0C13148.1,1858.3 13136.8,1854.4 13125.6,1855.3C13110.1,1856.5 13096.5,1863.7 13082.9,1877.7C13072.1,1888.8 13070.5,1892.2 13070.5,1904.0C13070.5,1913.1 13070.7,1914.0 13074.4,1921.4C13078.7,1930.2 13089.6,1942.5 13096.6,1946.6C13102.0,1949.8 13115.8,1954.8 13122.3,1956.0C13129.4,1957.2 13136.2,1956.5 13144.5,1953.7Z M11506.5,1598.3C11516.8,1595.2 11529.1,1586.9 11539.1,1576.3C11547.8,1567.2 11548.5,1565.4 11548.5,1552.5C11548.5,1542.3 11548.3,1541.1 11545.8,1536.9C11542.7,1531.7 11528.2,1517.5 11520.6,1512.4C11515.0,1508.6 11501.8,1504.0 11496.6,1504.0C11490.8,1504.0 11477.7,1507.9 11468.2,1512.5C11443.4,1524.4 11435.9,1543.9 11447.2,1567.7C11452.0,1578.0 11460.8,1586.3 11474.0,1592.8C11490.3,1600.9 11495.2,1601.7 11506.5,1598.3Z M13283.4,1593.0C13294.9,1589.3 13302.5,1584.4 13311.7,1574.7C13321.2,1564.7 13323.3,1560.0 13323.8,1548.0C13324.3,1534.5 13322.1,1528.9 13312.6,1519.5C13304.1,1511.2 13295.4,1505.9 13284.7,1502.5C13275.2,1499.4 13270.2,1499.4 13261.4,1502.1C13243.2,1507.7 13228.9,1518.4 13222.7,1530.9C13219.6,1537.2 13219.5,1538.0 13219.5,1549.5C13219.5,1561.5 13219.5,1561.5 13223.3,1568.7C13230.1,1581.4 13241.8,1590.4 13257.0,1594.4C13265.8,1596.7 13272.8,1596.4 13283.4,1593.0Z M13141.9,1231.5C13152.1,1228.2 13160.3,1222.7 13171.6,1211.5C13183.9,1199.2 13187.5,1192.2 13187.5,1180.0C13187.5,1168.0 13184.1,1161.1 13172.7,1150.3C13159.1,1137.5 13147.1,1132.4 13132.6,1133.2C13121.9,1133.9 13116.0,1136.3 13101.4,1145.8C13087.6,1154.9 13077.3,1165.1 13072.0,1175.0C13068.8,1180.9 13068.5,1182.3 13068.5,1189.5C13068.5,1196.4 13068.9,1198.1 13071.1,1202.0C13078.5,1214.5 13089.6,1223.4 13103.7,1228.1C13123.3,1234.6 13130.0,1235.2 13141.9,1231.5Z M11656.2,1228.5C11674.1,1224.4 11678.4,1222.5 11685.1,1216.3C11693.4,1208.6 11694.5,1205.6 11694.5,1191.5C11694.5,1180.5 11694.3,1179.1 11691.8,1174.0C11688.2,1166.6 11680.0,1158.9 11665.6,1149.1C11646.1,1135.8 11631.9,1132.9 11614.2,1138.5C11600.7,1142.8 11579.8,1159.6 11574.4,1170.6C11572.0,1175.6 11571.8,1176.8 11572.2,1185.8C11572.5,1194.2 11572.9,1196.2 11575.3,1200.2C11578.4,1205.5 11594.5,1221.0 11600.8,1224.7C11614.8,1233.0 11632.1,1234.2 11656.2,1228.5Z M11824.5,880.6C11832.1,877.2 11842.2,867.3 11846.0,859.7C11848.5,854.7 11849.0,852.5 11849.0,846.4C11849.0,837.6 11847.6,833.3 11840.0,817.5C11833.2,803.3 11828.9,798.1 11815.0,787.6C11799.1,775.6 11788.0,773.3 11775.5,779.5C11768.1,783.1 11759.7,792.3 11755.3,801.6C11752.1,808.3 11751.5,810.6 11751.2,818.1C11750.7,828.1 11751.3,830.5 11758.1,844.6C11764.3,857.6 11770.0,863.9 11783.8,872.7C11802.1,884.4 11812.1,886.3 11824.5,880.6Z M12969.4,874.0C12980.3,871.2 12988.3,866.7 12997.3,858.1C13003.2,852.4 13005.9,848.9 13008.8,843.2C13012.2,836.3 13012.5,834.9 13012.8,825.5C13013.4,810.8 13011.8,805.9 13003.4,797.0C12996.2,789.4 12989.9,785.7 12980.9,783.8C12976.1,782.8 12974.6,782.9 12968.5,784.8C12957.1,788.3 12946.1,796.4 12940.1,805.8C12938.5,808.4 12934.4,817.0 12930.9,825.0C12925.7,837.1 12924.6,840.7 12924.2,846.6C12923.9,850.8 12924.3,855.2 12925.0,857.4C12927.6,865.5 12936.3,872.1 12947.2,874.5C12956.0,876.4 12960.5,876.3 12969.4,874.0Z M12689.2,641.0C12702.1,637.0 12720.8,620.5 12725.0,609.3C12734.6,583.5 12719.3,556.3 12690.1,547.6C12679.9,544.6 12667.9,546.3 12657.8,552.3C12651.5,555.9 12642.7,565.7 12638.9,573.1C12636.0,578.8 12635.6,580.6 12635.2,589.5C12634.7,601.4 12636.3,606.7 12643.9,618.2C12651.5,629.7 12661.9,638.3 12672.3,641.5C12678.2,643.4 12681.8,643.3 12689.2,641.0Z M12085.9,635.1C12089.2,634.1 12093.9,632.1 12096.3,630.7C12103.1,626.7 12112.3,616.1 12116.7,607.3C12120.5,599.6 12120.5,599.6 12120.5,587.1C12120.5,575.2 12120.3,574.2 12117.6,569.1C12106.7,548.3 12081.2,537.4 12059.4,544.1C12045.0,548.6 12033.4,556.6 12028.7,565.5C12026.9,568.8 12026.5,571.2 12026.5,579.0C12026.5,587.3 12026.8,589.2 12029.2,594.0C12030.7,597.0 12034.0,602.0 12036.6,605.0C12039.1,608.0 12043.1,613.4 12045.4,617.0C12056.7,634.2 12069.8,640.1 12085.9,635.1Z" fill="#ffffff"/></svg>