<svg xmlns="http://www.w3.org/2000/svg" viewBox="249.2 257.5 16992.1 2588.3" fill="none"><path d="M383.5,2537.0C413.2,2536.4 477.8,2535.9 527.0,2535.9C661.5,2535.7 667.1,2535.3 679.8,2523.7C687.6,2516.4 689.5,2508.9 686.9,2494.5C686.3,2491.2 685.7,2473.2 685.5,2454.5C685.3,2435.8 684.6,2393.7 683.9,2361.0C682.3,2283.0 682.4,2172.8 684.1,2145.5C684.9,2131.0 685.3,2099.6 685.1,2044.4C684.9,1960.4 685.2,1951.5 689.1,1943.3C692.1,1937.1 700.1,1930.3 706.7,1928.4C713.0,1926.6 715.9,1926.9 731.0,1931.3C741.5,1934.3 741.5,1934.3 757.0,1933.2C775.3,1931.9 970.7,1933.4 980.5,1934.9C1026.4,1942.0 1035.4,1943.8 1042.6,1946.9C1048.8,1949.7 1055.5,1956.3 1062.3,1966.5C1065.6,1971.5 1070.2,1977.8 1072.3,1980.5C1074.5,1983.2 1079.1,1991.3 1082.6,1998.5C1086.1,2005.7 1091.5,2014.9 1094.6,2019.0C1100.8,2027.3 1102.6,2030.6 1107.7,2042.5C1109.6,2046.9 1114.3,2055.2 1118.2,2061.0C1122.1,2066.7 1127.3,2075.7 1129.8,2081.0C1132.3,2086.2 1138.1,2096.4 1142.6,2103.7C1147.2,2110.9 1153.0,2121.1 1155.4,2126.2C1157.9,2131.3 1162.7,2139.7 1166.1,2144.8C1169.4,2150.0 1174.8,2159.1 1178.1,2165.2C1184.0,2176.3 1190.8,2187.3 1212.1,2219.8C1218.5,2229.5 1226.7,2242.0 1230.3,2247.5C1233.9,2253.0 1242.5,2265.6 1249.3,2275.5C1256.2,2285.4 1267.5,2301.8 1274.5,2312.0C1292.1,2337.8 1302.2,2352.3 1308.4,2360.5C1311.3,2364.3 1316.6,2371.8 1320.0,2377.0C1323.5,2382.2 1328.9,2389.9 1332.1,2394.1C1335.3,2398.3 1340.9,2406.4 1344.6,2412.1C1348.3,2417.8 1353.6,2425.4 1356.5,2429.0C1359.3,2432.6 1364.9,2440.4 1369.0,2446.5C1373.0,2452.6 1379.1,2461.2 1382.6,2465.7C1386.0,2470.1 1392.0,2478.5 1395.8,2484.3C1403.0,2494.9 1418.7,2512.9 1429.8,2523.2C1436.8,2529.6 1445.5,2534.3 1455.1,2536.6C1461.5,2538.2 1462.3,2538.1 1475.6,2535.9C1489.5,2533.7 1489.5,2533.7 1622.5,2533.5C1713.7,2533.3 1763.8,2532.9 1782.0,2532.0C1802.6,2531.0 1811.9,2530.9 1824.0,2531.8C1832.5,2532.5 1848.0,2533.3 1858.5,2533.6C1880.5,2534.4 1885.8,2533.5 1892.6,2527.6C1898.1,2522.9 1899.4,2519.5 1898.8,2511.6C1898.1,2503.6 1895.0,2496.7 1887.6,2487.0C1884.4,2482.9 1879.3,2475.2 1876.3,2470.0C1873.2,2464.8 1867.9,2456.6 1864.4,2451.9C1860.9,2447.2 1855.1,2438.2 1851.5,2432.0C1847.9,2425.8 1842.1,2416.8 1838.6,2412.1C1835.2,2407.4 1829.9,2399.4 1827.0,2394.5C1824.0,2389.6 1819.1,2382.1 1816.0,2378.0C1812.9,2373.9 1807.7,2366.4 1804.5,2361.5C1801.3,2356.6 1795.3,2348.0 1791.0,2342.5C1786.8,2337.0 1781.4,2329.6 1779.0,2326.0C1776.6,2322.4 1771.4,2315.2 1767.5,2309.9C1763.5,2304.7 1758.1,2297.0 1755.5,2292.9C1752.8,2288.9 1747.9,2281.9 1744.5,2277.5C1741.1,2273.1 1735.5,2265.2 1732.0,2260.0C1728.6,2254.8 1722.9,2246.9 1719.5,2242.5C1716.1,2238.1 1710.9,2230.6 1707.9,2226.0C1705.0,2221.3 1698.9,2212.6 1694.5,2206.5C1666.0,2168.1 1665.1,2166.8 1636.3,2124.4C1631.2,2116.9 1625.6,2108.9 1623.7,2106.6C1621.8,2104.3 1616.7,2097.0 1612.5,2090.5C1608.2,2083.9 1602.4,2075.6 1599.5,2072.0C1596.6,2068.4 1590.9,2060.2 1586.7,2053.7C1582.5,2047.3 1576.8,2039.1 1574.1,2035.6C1571.4,2032.0 1566.6,2024.7 1563.5,2019.3C1560.3,2013.9 1554.3,2004.5 1550.0,1998.5C1545.8,1992.5 1540.6,1984.3 1538.5,1980.5C1536.4,1976.7 1531.4,1968.8 1527.4,1962.9C1523.4,1957.1 1517.6,1947.5 1514.4,1941.6C1511.3,1935.6 1506.3,1927.8 1503.4,1924.1C1500.5,1920.5 1496.6,1915.0 1494.9,1912.0C1476.2,1879.1 1476.6,1879.8 1476.2,1872.9C1475.7,1865.0 1476.8,1862.4 1483.7,1855.9C1490.0,1849.8 1512.2,1834.8 1518.0,1832.7C1540.3,1824.6 1545.7,1822.2 1555.1,1816.5C1561.0,1812.9 1570.7,1807.8 1576.6,1805.2C1582.6,1802.5 1592.7,1797.0 1599.0,1792.8C1605.3,1788.7 1614.0,1783.4 1618.4,1780.9C1622.7,1778.5 1629.5,1773.8 1633.4,1770.5C1637.3,1767.2 1643.7,1762.4 1647.5,1759.8C1661.0,1750.6 1698.7,1715.3 1709.8,1701.5C1712.9,1697.7 1719.3,1690.5 1724.0,1685.5C1728.7,1680.5 1735.0,1672.9 1738.0,1668.5C1741.0,1664.1 1746.0,1656.9 1749.3,1652.5C1752.5,1648.1 1758.4,1639.1 1762.3,1632.5C1766.2,1625.9 1771.5,1617.3 1774.2,1613.3C1783.4,1599.5 1808.2,1548.0 1819.5,1519.0C1825.0,1505.1 1834.5,1474.5 1842.4,1445.5C1858.1,1387.9 1863.3,1302.7 1856.5,1216.5C1851.7,1156.1 1846.6,1123.7 1837.3,1094.0C1834.8,1086.0 1830.1,1070.5 1826.9,1059.5C1819.7,1035.1 1818.8,1032.8 1808.2,1011.6C1799.9,994.9 1776.9,957.3 1766.4,943.3C1763.4,939.3 1758.5,931.9 1755.4,926.8C1752.3,921.8 1747.0,914.0 1743.6,909.6C1740.1,905.1 1734.3,897.2 1730.7,892.0C1727.1,886.8 1721.6,879.6 1718.5,876.0C1715.3,872.4 1709.5,865.5 1705.5,860.5C1698.3,851.5 1674.9,828.1 1657.1,812.0C1647.0,802.9 1630.2,789.7 1612.7,777.2C1606.8,773.0 1597.3,766.2 1591.7,762.1C1586.1,758.0 1578.3,752.6 1574.5,750.1C1570.7,747.6 1564.2,743.2 1560.3,740.3C1556.3,737.3 1547.1,731.8 1539.8,727.9C1532.5,724.0 1523.3,718.8 1519.3,716.3C1515.3,713.9 1507.7,709.8 1502.3,707.3C1496.9,704.8 1485.5,699.0 1477.0,694.4C1465.1,688.1 1458.0,685.1 1446.5,681.5C1438.2,678.9 1425.4,674.4 1418.0,671.5C1402.6,665.4 1394.1,662.8 1368.0,656.5C1357.8,654.0 1344.1,650.5 1337.4,648.6C1291.9,635.8 1233.3,627.5 1169.5,624.9C1141.9,623.8 1127.8,624.2 1106.0,626.7C1095.0,628.0 1088.0,628.1 1067.5,627.4C1053.8,626.9 874.2,626.4 668.5,626.3C462.8,626.2 292.2,626.1 289.3,626.0C280.5,625.7 273.5,628.4 267.5,634.4C258.5,643.3 258.7,641.9 258.4,704.0C257.2,939.2 257.2,982.5 258.5,986.5C260.4,992.1 268.7,999.5 275.3,1001.6C282.4,1003.8 319.9,1004.3 391.0,1003.0C478.3,1001.4 1027.6,1000.6 1044.5,1002.0C1052.2,1002.6 1073.1,1003.5 1091.0,1004.0C1126.7,1005.0 1136.9,1006.2 1177.5,1014.1C1201.7,1018.7 1214.5,1022.2 1229.1,1028.0C1234.8,1030.3 1245.3,1034.3 1252.6,1037.0C1266.7,1042.2 1273.0,1045.1 1281.3,1050.4C1284.2,1052.2 1291.7,1056.5 1298.1,1059.9C1304.4,1063.3 1312.1,1068.1 1315.1,1070.6C1318.1,1073.1 1324.5,1078.4 1329.5,1082.4C1334.5,1086.5 1344.4,1095.8 1351.6,1103.2C1362.8,1114.5 1366.6,1119.3 1377.1,1135.0C1390.1,1154.6 1397.9,1169.7 1407.3,1193.5C1421.9,1230.5 1426.7,1257.9 1425.7,1299.5C1425.1,1323.8 1423.6,1333.2 1418.2,1345.7C1407.2,1370.9 1404.9,1376.7 1402.1,1385.6C1397.3,1401.2 1392.6,1412.3 1386.2,1423.3C1382.9,1428.9 1377.4,1438.7 1373.9,1445.0C1368.3,1455.0 1365.8,1458.2 1354.5,1469.9C1347.3,1477.2 1337.2,1486.6 1332.0,1490.6C1326.8,1494.6 1319.2,1500.6 1315.1,1503.9C1310.7,1507.4 1301.9,1512.9 1293.9,1517.0C1286.4,1520.8 1276.4,1526.4 1271.8,1529.2C1267.2,1532.1 1258.7,1536.5 1253.0,1538.9C1247.2,1541.3 1238.0,1545.3 1232.5,1547.7C1206.8,1559.2 1191.3,1563.6 1153.0,1570.4C1100.1,1579.8 1091.2,1580.3 985.0,1580.5C937.4,1580.6 774.1,1581.1 622.0,1581.7C447.5,1582.3 333.6,1582.3 313.3,1581.7C282.1,1580.8 280.8,1580.9 274.2,1582.9C266.4,1585.3 260.0,1590.2 256.8,1596.4C254.2,1601.3 254.2,1597.6 255.9,1675.5C257.5,1749.2 257.5,1733.5 256.5,2022.0C256.1,2158.7 255.7,2324.8 255.8,2391.2C256.0,2510.2 256.0,2511.9 258.0,2517.3C260.3,2523.4 266.2,2530.7 271.6,2534.1C278.9,2538.6 282.0,2539.0 306.5,2538.5C319.1,2538.2 353.8,2537.5 383.5,2537.0Z M4989.5,2536.9C5046.7,2535.8 5093.2,2535.5 5374.7,2534.5C5543.8,2534.0 5530.1,2534.6 5538.4,2527.0C5543.1,2522.6 5544.5,2519.7 5545.4,2511.5C5546.0,2507.1 5547.4,2283.7 5547.5,2203.5C5547.5,2174.5 5547.4,2173.4 5545.3,2169.4C5541.6,2162.5 5533.8,2156.3 5525.8,2153.9C5516.5,2151.1 5503.2,2151.0 5426.0,2153.4C5350.7,2155.7 5294.5,2156.0 5271.5,2154.1C5257.9,2153.0 5215.3,2152.8 5058.0,2152.9C4903.4,2153.1 4576.1,2154.5 4536.5,2155.3C4516.2,2155.7 4501.2,2143.5 4498.0,2124.0C4497.3,2119.8 4496.6,2061.0 4495.9,1955.0C4495.4,1865.6 4494.7,1786.9 4494.4,1780.0C4494.1,1773.1 4494.1,1766.1 4494.5,1764.4C4495.3,1760.1 4502.0,1752.6 4507.5,1750.0C4512.1,1747.8 4512.1,1747.8 4617.3,1747.2C4744.5,1746.4 4842.0,1746.7 4871.0,1748.0C4884.1,1748.6 4975.5,1748.7 5106.0,1748.2C5340.5,1747.4 5339.9,1747.4 5355.1,1747.9C5368.0,1748.3 5374.7,1746.6 5380.7,1741.5C5386.6,1736.5 5388.7,1733.2 5390.5,1726.4C5391.8,1721.3 5392.1,1704.3 5392.5,1604.5C5392.8,1540.7 5393.5,1473.4 5394.2,1455.0C5395.8,1407.2 5395.8,1406.2 5393.7,1400.8C5391.2,1394.5 5384.4,1388.5 5377.1,1386.3C5372.0,1384.8 5358.5,1384.6 5219.0,1384.6C5135.1,1384.5 4961.0,1384.8 4832.0,1385.3C4272.5,1387.1 4231.8,1387.1 4199.5,1385.8C4142.3,1383.4 4129.5,1384.1 4108.5,1390.7C4098.5,1393.9 4095.9,1395.2 4090.9,1399.7C4084.0,1406.0 4082.8,1409.5 4081.9,1426.0C4079.8,1465.9 4078.7,1848.4 4079.9,2088.5C4080.4,2182.3 4080.4,2313.1 4079.9,2382.3C4079.1,2504.4 4079.1,2507.2 4081.0,2513.4C4084.6,2525.0 4093.8,2532.8 4107.0,2535.6C4114.5,2537.1 4101.6,2537.1 4410.5,2535.6C4452.7,2535.4 4475.2,2535.7 4493.0,2536.8C4511.7,2537.9 4523.9,2538.0 4544.5,2537.4C4559.4,2536.9 4587.2,2536.6 4606.5,2536.8C4625.8,2537.0 4651.9,2536.6 4664.5,2536.0C4677.1,2535.4 4726.4,2534.7 4773.9,2534.4C4856.5,2533.9 4861.1,2534.0 4877.4,2535.9C4901.5,2538.8 4901.9,2538.8 4918.0,2538.4C4926.0,2538.2 4958.1,2537.5 4989.5,2536.9Z M10707.2,2536.5C10712.5,2534.6 10720.8,2527.7 10723.9,2522.6C10726.3,2518.8 10730.2,2504.7 10733.0,2490.1C10734.0,2484.7 10737.1,2472.6 10739.8,2463.3C10744.3,2448.2 10749.0,2431.1 10756.6,2403.0C10758.0,2397.8 10762.5,2383.4 10766.5,2371.0C10770.6,2358.6 10776.4,2339.5 10779.5,2328.5C10782.5,2317.5 10787.5,2301.5 10790.6,2293.0C10793.6,2284.5 10798.5,2269.3 10801.5,2259.2C10804.5,2249.1 10809.9,2233.1 10813.4,2223.7C10817.0,2214.2 10821.6,2201.1 10823.5,2194.5C10825.5,2187.9 10829.6,2176.2 10832.5,2168.5C10838.5,2152.9 10841.5,2143.8 10846.0,2127.2C10847.7,2120.9 10851.5,2109.0 10854.6,2100.7C10857.6,2092.3 10862.2,2078.8 10864.6,2070.5C10867.1,2062.2 10873.6,2042.2 10879.0,2026.0C10884.4,2009.8 10891.7,1987.0 10895.3,1975.5C10903.0,1950.1 10916.6,1907.3 10926.2,1878.0C10930.0,1866.2 10936.7,1844.3 10941.0,1829.5C10954.0,1784.8 10956.9,1775.2 10962.0,1759.5C10964.7,1751.2 10968.9,1737.5 10971.4,1729.0C10973.9,1720.5 10978.4,1706.4 10981.5,1697.7C10984.5,1689.0 10989.9,1672.2 10993.5,1660.2C10997.1,1648.3 11003.6,1627.9 11008.0,1615.0C11012.3,1602.1 11017.5,1586.1 11019.3,1579.5C11021.2,1572.9 11024.6,1561.7 11026.8,1554.5C11038.7,1515.7 11041.3,1506.9 11045.9,1490.0C11048.7,1479.8 11053.2,1464.8 11056.0,1456.5C11058.8,1448.2 11064.2,1431.2 11068.0,1418.5C11071.8,1405.8 11077.4,1388.3 11080.4,1379.6C11083.5,1370.9 11088.2,1355.5 11090.9,1345.5C11093.7,1335.5 11098.0,1321.5 11100.6,1314.4C11108.2,1293.2 11111.6,1282.4 11116.4,1264.5C11118.9,1255.1 11122.5,1242.9 11124.5,1237.5C11133.4,1213.2 11135.1,1207.8 11138.0,1196.0C11142.3,1178.8 11148.0,1160.1 11154.0,1143.5C11156.8,1135.8 11160.9,1122.5 11163.1,1114.0C11167.6,1096.9 11170.6,1087.5 11177.3,1069.4C11179.8,1062.7 11183.2,1051.7 11185.0,1044.9C11189.9,1025.6 11192.6,1017.0 11199.0,1001.2C11202.2,993.1 11207.3,977.9 11210.3,967.4C11213.4,956.9 11218.8,940.5 11222.4,930.8C11226.0,921.2 11231.4,904.1 11234.4,892.8C11240.1,871.7 11242.6,864.1 11250.3,845.4C11252.8,839.4 11256.9,827.1 11259.5,818.0C11262.1,808.9 11267.5,792.5 11271.6,781.5C11275.6,770.5 11281.1,754.3 11283.8,745.5C11286.5,736.7 11292.1,720.7 11296.3,710.0C11307.4,681.3 11315.0,655.5 11315.0,646.6C11315.0,635.5 11310.2,629.7 11297.8,625.8C11292.1,624.1 11289.7,623.9 11272.5,624.5C11262.0,624.8 11233.7,625.3 11209.5,625.5C11185.3,625.7 11145.2,626.4 11120.5,627.1C11086.3,628.0 11058.7,628.0 11005.8,627.2C10936.4,626.1 10936.0,626.1 10929.3,628.1C10923.4,630.0 10921.7,631.1 10915.5,637.4C10910.5,642.4 10907.8,646.1 10906.3,650.0C10899.1,668.2 10890.5,692.9 10887.1,704.8C10885.0,712.3 10880.9,725.5 10878.0,734.0C10870.4,756.5 10858.9,794.1 10851.6,820.5C10848.0,833.1 10843.1,849.4 10840.5,856.5C10834.9,872.0 10827.7,894.2 10806.9,960.5C10803.6,971.0 10797.2,990.5 10792.6,1004.0C10775.8,1053.0 10763.9,1089.9 10758.6,1110.0C10755.6,1121.3 10750.4,1138.6 10747.2,1148.5C10739.8,1170.5 10737.3,1178.9 10732.0,1199.5C10729.8,1208.3 10724.6,1225.6 10720.5,1238.0C10716.5,1250.4 10710.2,1270.3 10706.6,1282.3C10702.9,1294.3 10697.8,1310.3 10695.0,1317.8C10692.3,1325.3 10687.8,1339.2 10685.0,1348.5C10676.1,1378.2 10659.5,1429.7 10639.0,1491.0C10619.7,1548.7 10617.3,1556.6 10609.5,1586.5C10607.5,1594.2 10603.1,1608.6 10599.8,1618.5C10596.5,1628.4 10591.0,1647.1 10587.5,1660.0C10584.0,1672.9 10578.7,1690.9 10575.6,1700.0C10572.6,1709.1 10568.3,1723.5 10566.0,1732.0C10558.5,1759.8 10552.9,1779.2 10548.0,1794.5C10545.3,1802.8 10540.8,1817.8 10538.1,1828.0C10532.9,1847.4 10527.1,1864.6 10522.6,1874.2C10517.8,1884.3 10507.7,1891.1 10499.7,1889.6C10487.1,1887.2 10472.9,1865.5 10463.5,1834.0C10460.9,1825.5 10456.6,1812.4 10454.0,1805.0C10448.7,1790.5 10445.8,1780.2 10441.5,1762.0C10440.0,1755.7 10435.3,1739.7 10431.0,1726.5C10426.7,1713.3 10421.1,1694.4 10418.5,1684.5C10416.0,1674.6 10411.0,1657.4 10407.4,1646.2C10403.8,1635.1 10398.7,1616.6 10395.9,1605.2C10393.1,1593.8 10387.5,1574.6 10383.5,1562.5C10379.4,1550.4 10373.4,1529.5 10370.1,1516.0C10366.8,1502.5 10361.6,1483.9 10358.6,1474.6C10355.5,1465.3 10350.9,1449.8 10348.4,1440.1C10346.0,1430.4 10340.8,1413.3 10337.0,1402.0C10333.2,1390.7 10327.6,1371.7 10324.5,1359.7C10321.0,1345.8 10313.9,1322.7 10305.0,1296.7C10297.3,1274.0 10287.5,1244.9 10283.1,1232.0C10278.7,1219.1 10270.8,1195.0 10265.5,1178.5C10260.2,1162.0 10250.5,1132.1 10244.0,1112.0C10232.8,1077.4 10228.0,1061.9 10219.5,1033.0C10212.5,1009.3 10198.6,967.5 10190.8,946.5C10183.6,927.3 10176.1,904.5 10165.8,870.5C10155.2,835.2 10152.3,825.9 10146.0,806.4C10142.2,794.8 10137.1,777.7 10134.6,768.4C10127.7,741.9 10119.2,711.6 10115.0,698.5C10112.9,691.9 10109.3,679.8 10107.0,671.5C10104.7,663.2 10101.5,653.7 10099.9,650.2C10096.4,642.4 10087.5,632.9 10080.6,629.5C10072.4,625.6 10066.0,625.1 10034.4,626.1C10018.5,626.6 9944.3,627.2 9869.5,627.5C9781.5,627.9 9732.1,628.5 9729.5,629.1C9719.6,631.7 9709.1,641.4 9704.7,652.2C9691.4,684.6 9685.9,700.1 9681.0,718.0C9679.2,724.3 9674.1,741.0 9669.5,755.0C9664.9,769.0 9659.0,788.6 9656.5,798.5C9650.4,822.0 9647.4,832.1 9640.5,852.0C9637.4,861.1 9632.6,876.8 9629.9,887.0C9627.1,897.2 9621.3,916.7 9616.9,930.4C9612.5,944.1 9606.9,962.5 9604.4,971.2C9601.9,980.0 9596.1,998.5 9591.5,1012.3C9586.9,1026.2 9581.1,1045.2 9578.5,1054.5C9575.9,1063.8 9571.0,1080.5 9567.5,1091.5C9564.0,1102.5 9558.2,1122.8 9554.6,1136.5C9551.1,1150.2 9545.7,1168.9 9542.6,1178.0C9539.6,1187.1 9534.8,1202.7 9532.1,1212.7C9529.3,1222.6 9525.2,1236.1 9523.0,1242.7C9515.3,1264.7 9509.2,1283.5 9505.5,1295.9C9503.5,1302.8 9499.0,1315.8 9495.5,1324.9C9492.0,1334.0 9487.8,1346.5 9486.0,1352.5C9481.7,1367.8 9479.7,1373.9 9472.3,1394.5C9468.7,1404.4 9462.9,1422.5 9459.4,1434.8C9455.9,1447.0 9450.8,1462.7 9448.1,1469.8C9445.5,1476.8 9441.9,1487.5 9440.2,1493.5C9430.3,1528.2 9427.7,1536.8 9423.0,1549.5C9420.1,1557.2 9415.4,1572.9 9412.4,1584.4C9409.4,1596.0 9404.4,1612.8 9401.1,1621.9C9394.7,1639.9 9390.8,1652.8 9386.1,1671.5C9384.4,1678.1 9379.5,1694.1 9375.0,1706.9C9370.6,1719.8 9364.9,1737.5 9362.4,1746.4C9360.0,1755.3 9354.6,1772.4 9350.5,1784.5C9346.0,1797.8 9341.3,1814.5 9338.5,1826.9C9333.7,1848.0 9329.1,1863.8 9325.8,1870.3C9323.0,1875.9 9317.5,1881.6 9312.6,1883.9C9300.5,1889.8 9289.5,1882.4 9278.5,1860.9C9271.3,1846.9 9269.9,1842.6 9265.1,1821.1C9262.9,1811.4 9257.9,1793.7 9254.0,1781.7C9250.1,1769.7 9244.7,1751.2 9242.1,1740.7C9239.4,1730.1 9235.5,1717.0 9233.5,1711.5C9223.8,1685.1 9221.7,1678.6 9216.5,1658.3C9213.5,1646.3 9208.3,1628.6 9205.0,1619.0C9201.7,1609.4 9197.0,1593.4 9194.5,1583.5C9188.6,1560.4 9187.0,1554.9 9180.5,1535.5C9177.6,1526.7 9172.7,1509.2 9169.6,1496.5C9166.5,1483.8 9161.5,1465.8 9158.5,1456.5C9155.5,1447.2 9150.6,1430.3 9147.5,1419.0C9144.4,1407.7 9139.7,1392.2 9137.1,1384.5C9134.4,1376.8 9129.7,1361.7 9126.5,1351.0C9114.2,1309.1 9111.6,1301.0 9105.5,1285.5C9102.1,1276.7 9096.9,1262.1 9094.1,1253.0C9091.2,1243.9 9086.7,1230.0 9084.0,1222.0C9081.4,1214.0 9076.5,1198.0 9073.1,1186.5C9069.7,1175.0 9063.2,1153.8 9058.5,1139.5C9053.8,1125.2 9048.1,1107.0 9045.6,1099.0C9043.2,1091.0 9038.5,1076.8 9035.2,1067.5C9031.9,1058.2 9027.4,1043.8 9025.1,1035.5C9022.8,1027.2 9017.4,1009.5 9013.0,996.0C9008.6,982.5 9002.8,963.4 9000.1,953.5C8997.4,943.6 8991.9,926.3 8988.0,915.0C8984.1,903.7 8978.0,884.6 8974.5,872.5C8971.1,860.4 8966.2,843.8 8963.6,835.7C8961.1,827.6 8956.5,812.3 8953.4,801.7C8950.4,791.1 8944.8,772.8 8941.0,761.0C8937.2,749.2 8932.1,731.9 8929.6,722.5C8923.9,701.2 8905.7,646.9 8902.4,641.3C8898.9,635.2 8892.5,630.2 8885.5,628.1C8879.7,626.3 8873.2,626.3 8711.5,627.3C8579.3,628.0 8537.7,628.0 8516.4,627.0C8489.8,625.7 8489.2,625.7 8482.3,627.8C8474.5,630.2 8467.2,635.8 8465.0,641.0C8464.2,643.0 8463.9,646.4 8464.3,650.8C8464.9,658.7 8473.6,688.1 8481.4,709.2C8484.4,717.3 8488.3,728.8 8489.9,734.7C8496.1,756.8 8520.7,828.8 8529.4,850.4C8532.5,858.0 8536.8,870.2 8539.0,877.4C8541.1,884.6 8546.5,901.8 8551.0,915.5C8555.4,929.2 8560.0,944.1 8561.1,948.5C8562.2,952.9 8565.8,964.6 8569.0,974.6C8572.2,984.5 8575.8,996.2 8576.9,1000.6C8579.1,1009.4 8585.6,1028.7 8588.9,1036.3C8590.0,1038.9 8593.4,1049.2 8596.4,1059.3C8599.4,1069.3 8604.6,1085.2 8608.0,1094.5C8614.1,1111.5 8618.6,1124.6 8627.5,1152.0C8630.1,1160.0 8633.9,1170.8 8636.0,1176.0C8638.0,1181.2 8641.7,1192.0 8644.0,1200.0C8646.3,1208.0 8651.6,1223.3 8655.7,1234.0C8664.1,1256.0 8678.1,1296.1 8687.1,1324.5C8696.6,1354.4 8715.1,1409.0 8726.3,1440.5C8728.3,1446.0 8732.9,1460.4 8736.5,1472.5C8740.1,1484.6 8745.5,1501.7 8748.5,1510.5C8755.6,1531.6 8770.2,1577.2 8775.0,1593.5C8777.1,1600.7 8781.1,1614.2 8783.8,1623.5C8786.6,1632.8 8792.2,1652.2 8796.4,1666.5C8800.5,1680.8 8805.3,1696.6 8807.0,1701.5C8808.7,1706.5 8812.8,1721.1 8816.1,1734.0C8819.4,1746.9 8825.2,1766.7 8829.0,1778.0C8832.8,1789.3 8837.7,1804.7 8840.0,1812.3C8842.2,1819.8 8846.1,1831.3 8848.6,1837.8C8851.2,1844.2 8856.9,1860.5 8861.5,1874.0C8866.0,1887.5 8872.0,1905.0 8874.8,1913.0C8877.6,1921.0 8883.3,1938.3 8887.5,1951.5C8891.8,1964.7 8898.7,1985.0 8903.0,1996.5C8913.4,2024.7 8921.3,2047.9 8943.5,2115.5C8953.7,2146.8 8964.5,2179.2 8967.5,2187.5C8970.4,2195.8 8974.4,2208.1 8976.5,2215.0C8981.8,2233.4 8987.3,2250.1 8995.0,2271.5C8998.8,2281.9 9004.3,2298.2 9007.4,2307.5C9018.8,2342.6 9035.9,2392.0 9041.0,2404.5C9043.8,2411.7 9049.0,2426.1 9052.5,2436.5C9055.9,2446.9 9061.0,2461.6 9063.8,2469.0C9066.5,2476.4 9070.4,2487.3 9072.3,2493.1C9078.3,2511.2 9082.0,2517.8 9090.4,2525.7C9103.7,2538.4 9091.1,2537.4 9224.0,2537.0C9287.0,2536.8 9369.5,2536.6 9407.5,2536.5C9476.5,2536.3 9476.5,2536.3 9484.5,2533.7C9499.9,2528.6 9509.3,2520.0 9515.4,2505.4C9519.8,2494.9 9526.2,2474.0 9532.9,2448.4C9535.6,2437.9 9541.3,2417.8 9545.5,2403.9C9549.8,2389.9 9554.5,2373.8 9556.2,2368.0C9557.8,2362.2 9562.0,2348.5 9565.5,2337.5C9569.0,2326.5 9573.9,2310.8 9576.3,2302.5C9578.8,2294.2 9583.8,2278.5 9587.3,2267.5C9590.9,2256.5 9595.5,2241.9 9597.5,2235.0C9599.5,2228.1 9606.2,2206.8 9612.5,2187.5C9623.6,2153.7 9630.0,2131.8 9640.9,2091.5C9647.5,2067.3 9673.3,1984.0 9683.5,1954.0C9685.5,1948.2 9689.9,1934.5 9693.4,1923.5C9696.9,1912.5 9702.6,1895.4 9706.2,1885.5C9709.8,1875.6 9714.6,1861.0 9716.9,1853.0C9719.2,1845.0 9725.8,1824.3 9731.5,1807.0C9737.2,1789.7 9744.2,1767.4 9747.0,1757.5C9749.8,1747.6 9755.2,1730.0 9759.0,1718.5C9780.5,1652.5 9803.3,1581.2 9814.7,1544.0C9817.6,1534.4 9823.0,1518.2 9826.7,1508.0C9830.3,1497.8 9835.7,1481.4 9838.7,1471.5C9841.7,1461.6 9847.5,1443.2 9851.6,1430.5C9856.7,1415.0 9860.1,1402.3 9862.2,1391.5C9865.7,1372.9 9870.5,1354.9 9875.0,1342.9C9880.3,1329.1 9890.8,1320.6 9900.4,1322.4C9904.3,1323.1 9911.2,1328.0 9914.3,1332.2C9916.2,1334.8 9920.4,1349.6 9931.5,1393.5C9937.7,1417.5 9944.0,1439.1 9949.0,1453.1C9953.1,1464.2 9954.6,1468.7 9964.9,1499.5C9967.7,1507.8 9972.4,1521.7 9975.4,1530.5C9978.4,1539.3 9982.9,1553.7 9985.5,1562.5C9988.1,1571.3 9992.6,1586.2 9995.5,1595.5C9998.5,1604.8 10003.2,1620.5 10005.9,1630.3C10008.7,1640.0 10012.4,1651.9 10014.1,1656.8C10019.5,1671.8 10023.8,1686.4 10027.5,1702.2C10038.5,1748.8 10044.4,1769.9 10059.0,1814.5C10065.1,1833.2 10072.1,1855.6 10074.6,1864.2C10079.4,1881.4 10095.3,1928.9 10102.0,1946.5C10107.6,1961.1 10119.1,1994.1 10124.6,2011.5C10130.6,2030.3 10148.8,2088.1 10159.4,2122.0C10164.1,2137.1 10170.0,2156.9 10172.4,2166.0C10180.2,2194.8 10185.7,2213.1 10191.5,2228.8C10194.5,2237.2 10199.5,2252.5 10202.6,2262.8C10205.7,2273.1 10211.1,2289.3 10214.6,2298.8C10221.5,2317.0 10225.7,2329.8 10231.4,2349.6C10233.3,2356.2 10237.3,2367.9 10240.3,2375.6C10243.3,2383.2 10247.5,2394.9 10249.5,2401.5C10251.5,2408.1 10258.7,2430.2 10265.5,2450.5C10272.3,2470.8 10279.0,2491.5 10280.5,2496.4C10284.9,2511.0 10288.5,2517.7 10296.4,2525.6C10305.4,2534.6 10311.9,2537.4 10323.0,2537.2C10340.7,2536.7 10522.1,2537.3 10596.0,2538.0C10693.4,2538.9 10700.9,2538.8 10707.2,2536.5Z M15902.7,2536.5C15909.1,2534.6 15916.2,2528.4 15918.5,2522.8C15921.2,2515.9 15922.9,2437.8 15923.6,2283.0C15924.3,2143.6 15923.7,2107.2 15920.4,2070.5C15917.1,2033.4 15917.4,2026.8 15923.4,2014.3C15930.1,2000.6 15950.6,1974.1 15971.6,1952.0C15976.6,1946.8 15983.1,1939.6 15986.0,1936.0C15992.3,1928.3 16003.9,1915.8 16032.2,1886.1C16043.6,1874.1 16054.4,1862.5 16056.2,1860.3C16058.0,1858.0 16068.5,1846.8 16079.5,1835.2C16110.3,1802.9 16124.6,1787.1 16129.6,1780.0C16135.6,1771.4 16139.5,1767.4 16144.5,1765.0C16150.0,1762.3 16153.6,1762.5 16159.7,1765.6C16166.3,1768.8 16170.3,1773.3 16177.4,1785.4C16180.5,1790.7 16185.7,1798.1 16188.9,1801.8C16194.9,1808.8 16198.9,1814.6 16205.9,1826.7C16208.2,1830.7 16212.7,1837.2 16215.8,1841.2C16219.0,1845.2 16224.9,1853.5 16228.9,1859.5C16232.9,1865.5 16238.1,1872.8 16240.4,1875.5C16242.7,1878.2 16247.3,1884.3 16250.6,1889.0C16253.9,1893.7 16259.5,1901.1 16263.1,1905.6C16266.6,1910.0 16273.8,1919.1 16279.0,1925.9C16284.2,1932.6 16293.8,1945.0 16300.3,1953.3C16306.8,1961.7 16316.6,1974.3 16322.1,1981.5C16327.5,1988.7 16334.2,1997.0 16336.8,2000.1C16341.7,2006.0 16354.6,2023.1 16369.0,2042.9C16373.7,2049.3 16380.5,2058.4 16384.1,2063.0C16387.7,2067.7 16392.9,2074.9 16395.7,2079.0C16398.5,2083.1 16403.3,2089.7 16406.5,2093.5C16409.7,2097.3 16416.0,2106.2 16420.5,2113.1C16425.1,2120.1 16431.0,2128.6 16433.7,2132.1C16436.5,2135.6 16441.4,2142.8 16444.7,2148.1C16448.0,2153.4 16453.4,2161.2 16456.7,2165.6C16460.0,2169.9 16465.5,2177.8 16468.9,2183.0C16472.4,2188.2 16477.6,2195.4 16480.4,2199.0C16483.3,2202.6 16488.4,2209.6 16491.7,2214.5C16495.0,2219.4 16501.5,2228.3 16506.1,2234.1C16510.7,2239.9 16516.9,2248.0 16519.8,2252.1C16522.6,2256.2 16527.8,2263.2 16531.3,2267.6C16539.1,2277.9 16551.2,2294.3 16561.3,2308.5C16565.6,2314.6 16572.2,2323.6 16576.0,2328.5C16579.9,2333.4 16586.3,2342.2 16590.3,2348.0C16602.3,2365.2 16612.6,2379.6 16625.2,2396.5C16640.9,2417.8 16647.8,2427.4 16660.9,2446.5C16667.0,2455.3 16675.6,2467.0 16680.2,2472.6C16684.8,2478.1 16693.2,2488.5 16699.0,2495.6C16713.8,2513.8 16723.4,2523.6 16729.4,2526.5C16739.5,2531.4 16744.6,2532.0 16781.5,2533.4C16853.3,2536.1 17109.8,2535.0 17189.0,2531.6C17222.0,2530.2 17223.6,2530.0 17230.2,2524.1C17234.9,2520.0 17236.3,2516.2 17235.8,2509.5C17234.9,2498.7 17230.5,2492.4 17199.5,2458.4C17194.5,2453.0 17188.5,2445.6 17186.1,2442.1C17183.7,2438.7 17179.0,2432.4 17175.6,2428.2C17172.2,2423.9 17167.2,2417.3 17164.5,2413.5C17161.8,2409.7 17155.9,2401.8 17151.4,2396.0C17139.3,2380.7 17127.2,2365.1 17117.3,2352.0C17112.5,2345.7 17105.4,2336.7 17101.4,2332.0C17097.5,2327.3 17092.4,2320.8 17090.0,2317.5C17087.6,2314.2 17082.6,2307.9 17079.0,2303.5C17075.4,2299.1 17070.6,2293.0 17068.5,2290.0C17063.3,2282.6 17047.2,2261.7 17033.5,2244.5C17027.3,2236.8 17019.7,2226.9 17016.5,2222.5C17013.3,2218.1 17008.5,2211.9 17005.8,2208.7C17003.2,2205.5 16999.1,2200.1 16996.9,2196.7C16994.6,2193.3 16988.8,2185.6 16984.0,2179.5C16979.2,2173.4 16972.4,2164.4 16968.9,2159.5C16965.4,2154.6 16959.9,2147.1 16956.6,2143.0C16953.4,2138.9 16948.2,2131.7 16945.2,2127.0C16942.2,2122.3 16937.6,2115.8 16935.0,2112.5C16932.5,2109.2 16926.6,2101.1 16922.1,2094.5C16914.2,2083.0 16908.5,2075.2 16889.2,2050.2C16884.4,2043.9 16877.6,2034.7 16874.2,2029.7C16870.7,2024.6 16865.9,2018.2 16863.6,2015.5C16861.3,2012.8 16856.7,2006.9 16853.4,2002.5C16850.2,1998.1 16843.0,1988.8 16837.5,1981.9C16832.0,1975.0 16824.7,1965.5 16821.3,1960.9C16817.9,1956.3 16812.5,1949.1 16809.3,1944.9C16806.1,1940.6 16799.9,1932.4 16795.5,1926.5C16767.6,1889.1 16756.9,1875.0 16740.3,1854.0C16732.3,1843.8 16728.9,1839.3 16710.4,1815.0C16705.6,1808.7 16698.7,1799.9 16695.0,1795.5C16688.2,1787.3 16672.4,1766.6 16661.2,1751.2C16657.8,1746.4 16651.7,1738.3 16647.8,1733.2C16643.9,1728.1 16638.1,1720.1 16635.0,1715.6C16631.9,1711.1 16625.8,1702.9 16621.4,1697.4C16617.0,1692.0 16611.6,1685.0 16609.4,1682.0C16607.1,1679.0 16602.3,1672.9 16598.6,1668.5C16594.9,1664.1 16589.2,1656.5 16585.8,1651.5C16582.4,1646.6 16576.9,1639.4 16573.6,1635.5C16570.2,1631.7 16565.3,1625.3 16562.6,1621.5C16559.9,1617.7 16554.9,1611.1 16551.5,1607.0C16548.1,1602.9 16542.1,1594.8 16538.1,1589.1C16534.1,1583.5 16528.0,1575.3 16524.5,1570.9C16521.0,1566.6 16515.9,1559.7 16513.1,1555.6C16510.3,1551.6 16505.7,1545.3 16502.7,1541.9C16499.8,1538.4 16495.0,1531.9 16492.0,1527.5C16487.2,1520.3 16478.0,1508.3 16461.9,1488.4C16452.5,1476.9 16451.5,1474.6 16451.5,1466.0C16451.5,1456.7 16452.1,1455.4 16464.8,1438.4C16475.1,1424.6 16482.8,1415.7 16503.0,1394.5C16518.9,1377.9 16529.5,1366.2 16539.0,1354.9C16543.1,1350.1 16549.5,1342.6 16553.2,1338.3C16556.9,1334.0 16562.9,1326.8 16566.7,1322.4C16580.1,1306.3 16589.6,1295.4 16597.1,1287.4C16601.3,1282.9 16608.9,1274.4 16613.9,1268.5C16627.9,1252.2 16635.6,1243.5 16645.6,1233.0C16650.6,1227.8 16657.5,1220.1 16661.0,1216.0C16669.1,1206.4 16678.7,1195.8 16692.5,1181.1C16698.5,1174.6 16709.1,1163.1 16716.0,1155.5C16722.9,1147.8 16733.5,1136.4 16739.5,1130.0C16745.5,1123.6 16756.8,1111.4 16764.5,1103.0C16779.6,1086.5 16807.8,1056.7 16841.6,1021.5C16853.2,1009.4 16865.1,996.8 16868.1,993.4C16888.1,971.0 16895.8,962.2 16904.1,952.2C16924.2,928.0 16927.8,923.8 16934.1,917.3C16937.7,913.5 16943.2,907.1 16946.4,903.0C16949.7,898.9 16954.9,892.8 16958.0,889.5C16961.1,886.2 16966.8,879.7 16970.5,875.0C16974.2,870.3 16979.8,863.8 16983.0,860.5C16988.7,854.5 16998.1,843.7 17015.9,822.6C17021.0,816.5 17027.8,808.8 17030.9,805.5C17037.9,798.1 17058.5,774.3 17066.3,764.7C17069.5,760.7 17077.0,752.5 17082.9,746.5C17095.4,733.7 17110.1,717.4 17115.0,711.0C17116.9,708.5 17122.9,701.7 17128.5,695.9C17157.7,665.0 17164.9,655.6 17165.8,647.0C17166.4,640.6 17164.8,636.8 17159.6,632.4C17151.4,625.4 17156.2,625.6 17042.0,625.8C16985.6,625.9 16910.5,626.5 16875.0,627.1C16839.5,627.8 16785.8,628.0 16755.5,627.7C16684.8,627.0 16691.9,625.2 16661.0,651.5C16645.0,665.2 16604.3,706.9 16591.3,722.9C16587.6,727.6 16581.3,735.0 16577.5,739.4C16573.6,743.9 16567.3,751.3 16563.5,756.0C16559.7,760.7 16554.5,766.8 16551.9,769.7C16549.3,772.6 16544.7,778.6 16541.5,783.0C16538.4,787.5 16532.6,794.8 16528.7,799.3C16524.7,803.8 16518.6,810.9 16515.0,815.1C16503.8,828.3 16486.4,847.8 16468.1,867.4C16458.4,877.8 16444.0,893.6 16436.0,902.4C16428.0,911.3 16415.4,924.6 16408.0,932.0C16390.6,949.4 16381.5,959.1 16369.8,973.2C16364.6,979.4 16359.5,985.2 16358.5,986.0C16357.5,986.8 16353.1,992.0 16348.7,997.5C16341.0,1007.1 16331.4,1017.9 16314.9,1035.4C16310.7,1039.9 16305.1,1046.2 16302.4,1049.6C16299.7,1052.9 16290.1,1063.6 16281.0,1073.3C16271.9,1083.1 16261.0,1095.2 16256.6,1100.3C16252.3,1105.3 16244.8,1113.8 16240.1,1119.0C16225.8,1134.6 16209.8,1153.0 16203.1,1161.5C16199.6,1165.9 16192.2,1174.6 16186.6,1180.9C16181.1,1187.2 16172.7,1196.6 16168.0,1201.9C16163.3,1207.2 16157.7,1213.8 16155.5,1216.5C16153.3,1219.2 16147.9,1225.4 16143.5,1230.1C16139.1,1234.8 16129.4,1245.4 16122.0,1253.5C16100.9,1276.8 16091.2,1286.8 16067.2,1311.0C16046.8,1331.5 16034.0,1345.1 16019.1,1362.3C16016.2,1365.7 16009.5,1373.4 16004.1,1379.4C15998.8,1385.5 15991.2,1394.5 15987.2,1399.4C15983.1,1404.4 15973.5,1415.1 15965.9,1423.2C15954.3,1435.4 15950.8,1438.5 15945.5,1441.1C15940.3,1443.6 15938.2,1444.2 15934.9,1443.7C15929.9,1443.0 15924.1,1439.3 15920.3,1434.4C15917.5,1430.6 15917.5,1430.6 15917.8,1403.6C15918.0,1388.7 15918.6,1373.6 15919.1,1370.0C15921.6,1352.8 15923.8,1102.2 15923.4,883.5C15922.9,652.5 15922.9,651.6 15918.0,641.9C15913.6,633.4 15901.9,626.7 15891.5,626.8C15889.3,626.8 15867.2,627.3 15842.5,627.8C15817.8,628.4 15737.4,628.9 15663.9,628.9C15533.7,629.0 15530.0,629.1 15523.8,631.0C15519.9,632.2 15515.7,634.4 15513.1,636.7C15504.9,643.6 15505.7,623.3 15505.2,852.5C15505.0,965.2 15504.7,1067.0 15504.6,1078.5C15504.6,1090.0 15504.8,1219.0 15505.2,1365.0C15506.5,1838.5 15506.1,2443.3 15504.4,2489.5C15503.6,2513.4 15504.1,2515.4 15512.0,2523.2C15519.5,2530.6 15525.6,2532.6 15537.5,2531.6C15558.8,2529.9 15570.9,2529.8 15585.5,2531.3C15609.8,2533.9 15619.5,2534.1 15752.5,2535.1C15822.4,2535.6 15881.5,2536.4 15884.0,2536.9C15891.1,2538.2 15897.2,2538.1 15902.7,2536.5Z M3733.9,2535.2C3738.5,2534.6 3744.5,2533.3 3747.2,2532.4C3753.3,2530.4 3762.2,2522.4 3764.6,2516.7C3766.4,2512.6 3766.5,2496.2 3766.7,1967.5C3766.7,1659.0 3767.2,1402.3 3767.8,1376.0C3768.3,1348.7 3768.4,1295.6 3768.0,1247.5C3767.5,1202.4 3766.9,1047.6 3766.5,903.5C3766.1,735.4 3765.5,640.3 3764.9,638.3C3763.4,633.4 3754.8,626.3 3748.1,624.4C3743.1,622.9 3740.8,622.9 3727.0,624.0C3717.1,624.8 3683.9,625.4 3635.0,625.6C3363.0,626.9 3372.8,626.8 3367.4,628.4C3361.4,630.3 3355.2,634.5 3351.5,639.4C3345.6,647.2 3345.8,638.3 3346.1,806.5C3346.2,891.2 3346.4,1049.4 3346.4,1158.0C3346.5,1355.5 3346.5,1355.5 3344.2,1360.5C3339.8,1370.0 3332.2,1375.8 3320.5,1378.6C3314.1,1380.1 3305.9,1380.2 3232.0,1379.6C3187.2,1379.2 3065.2,1378.7 2961.0,1378.5C2602.4,1377.7 2557.4,1376.9 2541.9,1371.1C2535.5,1368.7 2527.8,1362.4 2525.3,1357.6C2521.3,1350.0 2521.3,1349.2 2522.1,1218.5C2523.3,1003.6 2523.3,647.7 2522.0,642.8C2521.2,639.8 2519.3,637.0 2515.5,633.3C2508.7,626.6 2502.0,624.4 2492.1,625.5C2488.5,625.9 2407.0,626.4 2311.0,626.5C2190.5,626.7 2134.0,627.2 2128.5,627.9C2114.8,629.8 2104.4,636.9 2102.2,645.7C2100.6,651.9 2100.0,722.8 2101.0,775.5C2102.1,832.0 2104.4,1191.9 2104.2,1289.0C2104.2,1325.0 2103.6,1373.2 2103.0,1396.0C2102.2,1423.0 2101.9,1490.3 2102.2,1589.0C2102.4,1708.8 2102.2,1745.7 2101.1,1765.5C2100.0,1785.6 2099.9,1816.2 2100.4,1922.5C2100.7,1995.1 2101.5,2066.7 2102.2,2081.5C2102.9,2100.4 2103.1,2165.6 2102.7,2298.0C2102.1,2461.9 2101.8,2488.3 2100.5,2493.5C2098.5,2501.6 2098.6,2509.6 2100.9,2514.5C2103.9,2521.3 2111.9,2527.6 2121.2,2530.5C2129.1,2533.0 2129.1,2533.0 2224.8,2534.1C2342.9,2535.4 2459.7,2534.8 2482.5,2532.7C2491.3,2531.9 2500.1,2530.6 2502.1,2529.8C2506.6,2527.9 2512.7,2522.6 2514.6,2518.9C2516.1,2515.9 2518.4,2505.8 2520.1,2495.0C2520.7,2490.9 2521.4,2378.9 2522.0,2196.5C2523.5,1772.2 2523.5,1769.9 2525.4,1766.2C2527.9,1761.3 2534.8,1756.1 2542.0,1753.8C2548.3,1751.7 2550.3,1751.7 2603.0,1751.4C2661.5,1751.2 2803.5,1749.4 2881.0,1748.0C2907.1,1747.6 2928.8,1747.4 2929.2,1747.6C2929.7,1747.9 3005.0,1748.0 3096.7,1747.8C3188.5,1747.7 3277.0,1747.5 3293.5,1747.5C3323.5,1747.5 3323.5,1747.5 3329.2,1750.3C3336.0,1753.7 3344.1,1762.1 3345.7,1767.6C3347.6,1774.1 3348.4,2181.2 3346.8,2337.5C3345.1,2509.9 3345.0,2499.9 3347.8,2508.7C3351.4,2520.4 3359.0,2528.4 3370.7,2533.2C3376.5,2535.5 3376.5,2535.5 3439.5,2536.0C3551.0,2536.9 3724.7,2536.4 3733.9,2535.2Z M8191.8,2535.5C8198.1,2533.6 8207.1,2525.7 8209.3,2520.1C8210.2,2517.9 8211.4,2511.5 8211.9,2505.8C8213.3,2490.4 8213.6,2265.5 8212.5,2037.5C8211.4,1802.2 8211.4,1820.3 8212.4,1373.0C8213.0,1116.5 8213.0,1013.2 8212.1,978.5C8211.5,952.6 8210.9,881.8 8210.8,821.0C8210.7,692.9 8210.0,655.2 8207.5,647.1C8205.1,639.2 8196.5,630.8 8188.4,628.3C8181.5,626.2 8188.3,626.2 8073.5,627.9C8011.7,628.8 7982.1,628.9 7961.5,628.1C7946.1,627.5 7908.5,627.0 7877.9,627.0C7824.3,627.0 7822.0,627.1 7815.5,629.1C7806.5,631.8 7799.0,639.0 7796.6,647.0C7794.6,653.7 7794.6,667.4 7796.4,683.5C7798.6,702.3 7799.6,856.3 7797.9,929.5C7796.4,999.8 7796.3,1152.2 7797.9,1251.0C7798.5,1290.9 7799.2,1395.7 7799.5,1484.0C7799.8,1572.3 7800.5,1661.6 7801.1,1682.5C7801.8,1706.9 7801.8,1726.6 7801.3,1737.7C7800.4,1754.2 7800.2,1755.0 7797.6,1758.5C7793.7,1763.5 7787.8,1767.2 7782.5,1767.7C7779.0,1768.1 7776.9,1767.7 7772.7,1765.6C7765.6,1762.2 7755.2,1751.3 7751.0,1743.0C7749.2,1739.4 7745.6,1733.3 7743.0,1729.5C7740.5,1725.7 7735.9,1718.5 7733.0,1713.5C7730.0,1708.5 7723.9,1700.0 7719.5,1694.5C7715.0,1689.0 7708.6,1680.4 7705.3,1675.4C7701.9,1670.4 7696.7,1663.4 7693.7,1659.9C7690.8,1656.4 7685.8,1649.7 7682.7,1645.0C7679.6,1640.3 7674.8,1633.8 7672.0,1630.5C7669.2,1627.2 7663.6,1619.7 7659.5,1613.9C7655.5,1608.1 7649.1,1599.6 7645.3,1594.9C7641.5,1590.3 7635.9,1583.1 7632.8,1579.0C7629.8,1574.9 7625.2,1569.0 7622.6,1566.0C7620.0,1563.0 7615.3,1556.7 7612.3,1552.0C7609.2,1547.3 7604.1,1540.3 7601.0,1536.5C7597.9,1532.7 7592.5,1525.5 7589.0,1520.5C7585.6,1515.5 7579.9,1508.1 7576.5,1504.0C7573.1,1499.9 7567.2,1492.2 7563.5,1487.0C7559.8,1481.8 7554.1,1474.6 7551.0,1471.0C7547.9,1467.4 7542.4,1460.7 7539.0,1456.0C7535.5,1451.3 7530.7,1445.3 7528.3,1442.6C7525.9,1439.9 7520.7,1433.2 7516.7,1427.6C7512.7,1422.0 7506.4,1413.9 7502.8,1409.5C7490.0,1394.2 7479.0,1380.4 7470.0,1368.5C7459.9,1355.2 7447.4,1339.6 7436.0,1325.8C7431.9,1320.8 7425.1,1312.1 7421.0,1306.5C7416.9,1300.9 7410.8,1292.9 7407.4,1288.9C7404.1,1284.8 7398.5,1277.7 7395.0,1273.0C7391.5,1268.3 7385.9,1261.1 7382.5,1257.0C7379.1,1252.9 7373.5,1245.5 7370.0,1240.5C7366.6,1235.5 7362.1,1229.7 7360.0,1227.4C7357.9,1225.2 7353.0,1218.9 7348.9,1213.4C7344.9,1208.0 7339.1,1200.6 7336.1,1197.0C7333.0,1193.4 7327.8,1186.7 7324.6,1182.0C7321.3,1177.3 7315.7,1169.9 7312.0,1165.5C7308.3,1161.1 7302.0,1153.0 7298.0,1147.5C7294.0,1142.0 7288.5,1135.0 7286.0,1132.0C7283.4,1129.0 7278.9,1122.9 7276.0,1118.5C7273.1,1114.1 7267.9,1107.1 7264.5,1103.0C7261.1,1098.9 7255.3,1091.0 7251.5,1085.5C7247.8,1080.0 7241.5,1071.5 7237.5,1066.5C7233.5,1061.5 7228.1,1054.1 7225.5,1050.0C7222.9,1045.9 7218.4,1039.6 7215.5,1036.0C7212.7,1032.4 7207.6,1025.5 7204.2,1020.5C7200.8,1015.5 7195.4,1008.5 7192.1,1004.8C7188.8,1001.1 7183.5,994.5 7180.2,990.3C7176.9,986.0 7171.4,979.4 7167.8,975.5C7164.3,971.6 7158.5,964.9 7155.0,960.5C7151.5,956.1 7145.6,949.1 7142.0,945.0C7138.3,940.9 7132.8,934.0 7129.6,929.7C7126.4,925.4 7121.4,919.1 7118.3,915.7C7115.2,912.3 7110.5,906.1 7107.7,902.0C7104.9,897.9 7099.0,889.9 7094.6,884.4C7090.1,878.8 7082.2,868.5 7077.0,861.6C7061.7,841.1 7049.8,825.7 7045.3,820.4C7042.9,817.6 7037.8,810.9 7033.8,805.3C7022.3,789.4 7006.3,768.2 6999.0,759.5C6995.3,755.1 6989.5,747.5 6986.0,742.5C6982.5,737.5 6976.9,730.1 6973.5,726.0C6970.2,721.9 6965.0,715.1 6962.1,711.0C6959.1,706.9 6955.4,702.1 6953.8,700.4C6952.2,698.7 6946.5,691.6 6941.2,684.7C6928.0,667.6 6906.1,642.2 6899.7,636.5C6893.4,630.9 6886.7,627.6 6877.6,625.3C6871.6,623.9 6869.5,623.8 6861.1,624.9C6848.5,626.5 6641.4,628.4 6598.0,627.3C6557.9,626.3 6555.6,626.4 6548.9,628.3C6542.3,630.3 6535.0,636.3 6531.7,642.4C6528.8,648.0 6528.2,665.6 6530.4,687.3C6533.0,713.2 6534.2,768.3 6534.7,876.5C6535.1,975.0 6535.1,978.0 6532.9,997.0C6530.3,1021.0 6529.3,1067.8 6530.9,1098.5C6531.5,1110.0 6532.4,1128.5 6533.0,1139.5C6533.5,1150.5 6534.4,1169.0 6535.0,1180.5C6536.7,1214.8 6537.3,1289.9 6536.1,1318.0C6535.5,1332.6 6534.1,1349.3 6533.0,1357.0C6531.9,1364.4 6530.7,1378.2 6530.3,1387.5C6529.7,1405.8 6531.4,1492.5 6533.0,1518.0C6533.5,1526.5 6534.2,1562.1 6534.6,1597.0C6535.2,1652.6 6535.1,1663.8 6533.5,1686.8C6531.9,1709.6 6531.8,1716.6 6532.8,1740.3C6533.6,1759.6 6533.6,1777.2 6532.9,1801.0C6531.8,1837.0 6532.0,1862.0 6534.1,1930.0C6535.7,1979.1 6535.6,2112.0 6534.1,2184.7C6533.4,2216.5 6533.4,2239.3 6534.2,2261.7C6534.8,2279.2 6535.3,2336.0 6535.4,2388.0C6535.5,2482.5 6535.5,2482.5 6532.7,2492.7C6527.9,2510.8 6529.4,2519.7 6538.5,2527.8C6546.6,2534.9 6545.8,2534.8 6605.0,2533.8C6633.9,2533.3 6671.7,2533.2 6689.0,2533.6C6727.5,2534.5 6825.0,2534.4 6868.5,2533.5C6890.3,2533.0 6903.3,2533.2 6909.4,2534.0C6920.9,2535.4 6926.7,2533.9 6933.8,2527.5C6940.0,2521.9 6941.6,2517.9 6943.0,2504.8C6944.2,2492.8 6945.7,2025.1 6945.2,1803.5C6945.0,1727.0 6945.3,1628.5 6945.9,1584.5C6946.5,1538.2 6946.6,1500.1 6946.1,1494.0C6945.7,1488.2 6945.5,1470.8 6945.8,1455.2C6946.2,1428.4 6946.4,1426.7 6948.4,1423.7C6953.4,1416.4 6963.0,1412.5 6970.3,1415.0C6975.1,1416.5 6983.2,1423.9 6988.1,1431.2C6990.3,1434.5 6995.4,1441.0 6999.4,1445.8C7003.4,1450.6 7008.5,1457.1 7010.8,1460.2C7013.1,1463.3 7017.7,1468.9 7021.1,1472.7C7024.4,1476.4 7030.3,1483.8 7034.0,1489.0C7037.8,1494.3 7043.7,1501.7 7047.1,1505.5C7050.5,1509.4 7056.3,1516.5 7060.0,1521.5C7063.7,1526.5 7069.6,1533.7 7073.2,1537.5C7076.7,1541.3 7081.5,1547.2 7083.9,1550.5C7086.2,1553.8 7091.1,1559.9 7094.9,1564.0C7098.6,1568.1 7104.1,1574.9 7107.2,1579.0C7110.3,1583.1 7115.6,1589.7 7119.0,1593.5C7122.4,1597.3 7127.7,1604.1 7130.8,1608.5C7133.9,1612.9 7140.1,1621.0 7144.5,1626.5C7149.0,1632.0 7154.2,1638.7 7156.0,1641.4C7157.8,1644.1 7162.5,1650.0 7166.3,1654.4C7170.1,1658.8 7176.3,1666.7 7180.0,1672.0C7183.7,1677.2 7189.0,1684.0 7191.7,1687.1C7194.5,1690.2 7199.3,1696.5 7202.6,1701.1C7205.8,1705.7 7212.1,1714.2 7216.5,1720.0C7221.0,1725.8 7227.0,1733.9 7229.8,1738.1C7232.6,1742.4 7237.3,1748.7 7240.3,1752.1C7243.3,1755.6 7248.1,1761.9 7251.0,1766.0C7253.9,1770.1 7258.6,1776.2 7261.5,1779.5C7264.3,1782.8 7270.1,1790.4 7274.3,1796.3C7278.6,1802.2 7284.9,1810.5 7288.3,1814.8C7291.8,1819.0 7297.3,1826.1 7300.5,1830.5C7303.7,1834.9 7309.2,1841.7 7312.8,1845.5C7316.4,1849.3 7321.5,1855.8 7324.2,1859.9C7327.0,1863.9 7332.2,1870.7 7335.9,1874.9C7339.6,1879.1 7345.5,1886.3 7349.2,1891.0C7352.8,1895.7 7357.0,1900.6 7358.5,1902.0C7360.0,1903.4 7364.6,1909.0 7368.8,1914.5C7372.9,1920.0 7378.8,1927.4 7381.9,1931.0C7385.0,1934.6 7390.2,1940.9 7393.5,1945.0C7396.7,1949.1 7402.4,1956.1 7406.0,1960.5C7409.7,1964.9 7415.8,1972.8 7419.5,1978.0C7423.2,1983.2 7428.6,1990.0 7431.4,1993.0C7434.3,1996.0 7439.2,2002.1 7442.5,2006.5C7445.7,2010.9 7450.6,2017.0 7453.3,2019.9C7456.0,2022.9 7460.8,2029.3 7464.1,2034.1C7467.3,2038.8 7472.6,2045.8 7475.8,2049.6C7479.1,2053.4 7485.0,2061.2 7489.0,2067.0C7493.0,2072.8 7498.9,2080.7 7502.2,2084.6C7507.9,2091.3 7514.7,2100.8 7532.1,2125.9C7536.1,2131.7 7542.1,2139.8 7545.5,2143.9C7548.9,2148.1 7555.1,2156.2 7559.2,2162.0C7563.4,2167.8 7570.2,2176.4 7574.3,2181.2C7578.5,2186.0 7583.7,2192.7 7586.0,2196.1C7588.3,2199.4 7593.4,2205.9 7597.2,2210.3C7601.1,2214.8 7606.7,2221.9 7609.6,2226.0C7612.5,2230.1 7617.4,2236.4 7620.5,2240.0C7623.6,2243.6 7629.6,2251.0 7633.7,2256.5C7637.9,2262.0 7643.9,2269.4 7647.0,2273.0C7650.1,2276.6 7655.8,2283.6 7659.5,2288.5C7663.3,2293.4 7669.0,2300.5 7672.1,2304.2C7675.3,2307.9 7680.0,2314.0 7682.6,2317.7C7685.2,2321.5 7690.2,2327.8 7693.6,2331.7C7697.1,2335.7 7702.0,2342.0 7704.6,2345.7C7707.2,2349.5 7714.1,2359.0 7720.0,2367.0C7725.8,2375.0 7734.9,2387.3 7740.2,2394.5C7745.4,2401.7 7752.1,2411.1 7755.0,2415.5C7758.0,2419.9 7762.7,2426.4 7765.6,2430.0C7768.4,2433.6 7774.7,2442.6 7779.5,2450.0C7791.4,2468.3 7823.5,2507.9 7835.4,2518.8C7840.7,2523.7 7849.5,2528.1 7858.5,2530.5C7868.4,2533.2 7930.4,2534.9 8047.5,2535.8C8106.4,2536.3 8161.7,2536.7 8170.6,2536.8C8182.5,2537.0 8188.0,2536.6 8191.8,2535.5Z M13991.5,2535.8C14013.5,2535.7 14038.3,2535.9 14046.5,2536.4C14065.6,2537.5 14070.6,2536.3 14078.0,2529.2C14084.6,2522.8 14085.4,2519.3 14085.2,2500.0C14085.1,2491.5 14084.9,2365.5 14084.8,2220.0C14084.7,1956.9 14084.7,1955.5 14086.7,1950.9C14091.1,1941.0 14099.1,1934.9 14111.1,1932.4C14117.7,1931.0 14120.2,1931.0 14137.2,1932.5C14152.6,1933.9 14158.7,1934.0 14170.8,1933.2C14190.5,1931.8 14385.6,1932.5 14404.0,1934.0C14442.1,1937.1 14456.6,1946.4 14476.7,1980.5C14480.0,1986.0 14484.7,1993.3 14487.3,1996.8C14489.8,2000.2 14493.0,2005.4 14494.3,2008.3C14495.7,2011.2 14498.8,2017.8 14501.3,2023.1C14503.7,2028.4 14508.1,2036.2 14511.1,2040.6C14514.0,2044.9 14519.2,2053.9 14522.6,2060.5C14525.9,2067.1 14532.0,2077.4 14536.0,2083.5C14540.0,2089.6 14545.2,2098.5 14547.7,2103.5C14550.2,2108.4 14554.8,2116.3 14558.0,2121.0C14561.1,2125.7 14566.8,2134.9 14570.5,2141.5C14574.3,2148.1 14579.9,2157.3 14583.0,2162.0C14586.1,2166.7 14591.0,2174.8 14594.0,2180.0C14596.9,2185.2 14603.4,2195.5 14608.4,2202.7C14613.4,2210.0 14620.5,2220.6 14624.3,2226.2C14628.0,2231.9 14633.2,2239.7 14635.9,2243.5C14638.6,2247.3 14644.2,2255.7 14648.4,2262.0C14652.6,2268.3 14661.5,2281.4 14668.1,2291.0C14678.7,2306.5 14696.2,2332.7 14721.5,2371.0C14725.9,2377.7 14732.9,2388.5 14737.0,2395.0C14744.7,2407.1 14750.0,2415.1 14784.8,2467.7C14796.0,2484.6 14807.6,2502.5 14810.5,2507.5C14816.4,2517.6 14823.7,2525.1 14830.3,2528.0C14842.6,2533.5 14837.9,2533.2 14956.5,2534.2C15054.2,2534.9 15239.4,2534.0 15270.5,2532.5C15282.8,2532.0 15289.4,2530.1 15294.7,2525.6C15299.9,2521.1 15301.3,2517.5 15300.8,2510.2C15300.5,2505.3 15299.3,2502.4 15293.9,2492.6C15290.4,2486.2 15284.3,2476.9 15280.5,2471.9C15276.6,2467.0 15271.0,2459.0 15268.0,2454.2C15265.0,2449.4 15259.3,2441.0 15255.3,2435.4C15251.3,2429.8 15245.8,2421.6 15243.0,2417.1C15240.2,2412.6 15234.7,2404.5 15230.7,2399.1C15217.4,2380.9 15195.1,2349.3 15172.1,2316.0C15166.6,2308.0 15158.4,2296.2 15153.8,2289.8C15149.2,2283.3 15142.9,2274.3 15139.7,2269.8C15132.5,2259.5 15123.7,2247.2 15112.1,2231.0C15107.1,2224.1 15100.7,2214.9 15097.9,2210.5C15095.1,2206.1 15090.7,2199.8 15088.2,2196.5C15080.0,2185.8 15034.0,2117.1 15027.3,2105.5C15025.0,2101.7 15019.8,2093.9 15015.7,2088.3C15011.6,2082.7 15005.4,2073.4 15001.9,2067.8C14998.4,2062.1 14993.0,2053.9 14989.9,2049.5C14986.8,2045.1 14981.6,2037.2 14978.5,2032.0C14975.4,2026.8 14970.6,2019.6 14968.0,2016.0C14965.3,2012.4 14959.7,2003.9 14955.5,1997.0C14951.3,1990.1 14945.0,1980.7 14941.5,1976.0C14938.0,1971.3 14932.8,1963.5 14929.9,1958.5C14927.0,1953.5 14921.4,1945.0 14917.5,1939.5C14913.5,1934.0 14907.8,1925.2 14904.8,1920.0C14901.8,1914.8 14896.6,1906.3 14893.2,1901.2C14883.5,1886.5 14880.6,1879.8 14880.2,1871.5C14879.9,1865.5 14880.2,1864.0 14882.2,1861.0C14885.7,1855.9 14891.6,1851.8 14901.1,1848.1C14905.7,1846.2 14914.9,1841.7 14921.5,1837.9C14928.1,1834.1 14936.6,1829.9 14940.3,1828.5C14949.9,1824.9 14957.5,1820.9 14968.2,1813.9C14973.3,1810.5 14981.9,1805.6 14987.2,1802.9C14992.5,1800.2 15000.6,1795.2 15005.2,1791.7C15009.8,1788.2 15018.2,1782.2 15024.0,1778.2C15058.7,1754.6 15121.1,1691.3 15146.9,1653.5C15149.9,1649.1 15154.9,1642.1 15158.1,1638.0C15173.0,1618.2 15190.9,1584.5 15207.5,1545.0C15212.1,1534.2 15228.9,1486.0 15231.0,1478.0C15232.1,1473.9 15234.5,1461.3 15236.5,1450.0C15238.5,1438.7 15241.6,1421.4 15243.5,1411.5C15251.7,1367.6 15255.2,1324.7 15255.2,1266.0C15255.2,1228.9 15254.0,1214.1 15246.5,1163.5C15239.8,1117.8 15236.4,1101.4 15229.0,1078.5C15226.3,1070.2 15222.1,1056.8 15219.6,1048.5C15214.2,1030.6 15210.3,1020.5 15197.9,992.0C15192.5,979.7 15186.1,966.8 15182.9,962.0C15179.9,957.3 15174.8,949.1 15171.7,943.8C15168.6,938.5 15162.0,928.8 15157.2,922.3C15152.3,915.8 15146.9,908.2 15145.0,905.5C15143.2,902.8 15138.7,896.9 15135.0,892.5C15131.4,888.1 15126.2,881.6 15123.5,878.0C15120.8,874.4 15115.9,868.4 15112.5,864.5C15109.1,860.6 15102.3,852.8 15097.3,847.0C15078.2,824.6 15038.1,788.5 15013.0,771.0C15007.8,767.3 14999.7,761.6 14995.0,758.2C14990.4,754.9 14982.0,749.5 14976.5,746.4C14971.0,743.2 14962.8,738.2 14958.2,735.3C14953.6,732.3 14945.7,727.9 14940.7,725.4C14935.6,722.8 14925.2,717.3 14917.5,713.0C14894.0,699.9 14837.7,677.6 14792.5,663.5C14777.6,658.9 14714.7,643.5 14698.0,640.5C14642.7,630.3 14597.4,626.4 14545.0,627.3C14527.1,627.6 14488.9,627.4 14460.0,626.9C14431.1,626.4 14252.9,625.7 14064.0,625.3C13875.1,624.9 13715.8,624.6 13710.0,624.6C13695.2,624.5 13689.4,626.4 13682.1,633.8C13678.2,637.7 13676.0,640.9 13675.1,644.0C13673.6,648.9 13673.3,682.8 13672.8,877.0C13672.5,963.6 13672.7,982.3 13673.9,986.3C13676.8,996.2 13688.0,1004.6 13699.7,1005.7C13702.9,1006.0 13711.2,1005.5 13718.0,1004.5C13728.1,1003.2 13736.4,1002.9 13761.0,1003.2C13777.8,1003.3 13937.6,1003.1 14116.3,1002.6C14443.7,1001.7 14454.3,1001.7 14529.2,1005.0C14574.6,1007.1 14609.2,1012.9 14635.5,1023.0C14641.5,1025.3 14651.9,1029.2 14658.5,1031.6C14672.4,1036.7 14685.2,1042.7 14691.3,1046.8C14693.6,1048.4 14701.6,1053.3 14709.1,1057.7C14725.2,1067.1 14750.9,1086.8 14758.5,1095.4C14782.8,1123.3 14784.5,1125.5 14796.0,1143.5C14806.7,1160.2 14809.7,1166.8 14817.6,1190.8C14829.1,1225.6 14832.0,1243.4 14832.0,1279.1C14832.0,1314.7 14829.6,1331.6 14820.0,1363.3C14816.7,1374.4 14812.8,1387.3 14811.4,1392.0C14808.6,1401.1 14804.6,1409.4 14795.9,1423.2C14792.9,1428.0 14788.0,1436.0 14785.0,1441.0C14770.0,1465.9 14732.2,1502.0 14705.3,1517.2C14699.4,1520.5 14691.4,1525.4 14687.5,1528.0C14678.5,1534.1 14673.0,1536.8 14657.5,1543.0C14650.5,1545.8 14642.7,1549.2 14640.0,1550.5C14622.3,1559.5 14575.4,1570.0 14532.5,1574.6C14516.2,1576.3 14502.4,1576.4 13983.5,1577.5C13857.0,1577.8 13747.9,1578.1 13741.0,1578.3C13734.1,1578.4 13722.8,1578.1 13715.9,1577.6C13699.3,1576.5 13694.0,1577.8 13686.6,1585.3C13683.0,1588.8 13681.0,1591.9 13680.1,1595.0C13679.0,1598.5 13678.7,1617.1 13678.4,1677.5C13678.2,1720.4 13677.4,1845.7 13676.8,1956.0C13676.1,2066.3 13675.5,2235.9 13675.3,2333.0C13675.0,2533.5 13674.3,2516.4 13683.4,2525.6C13691.1,2533.2 13696.1,2534.5 13714.5,2533.6C13728.6,2533.0 13844.4,2534.4 13898.5,2536.0C13914.5,2536.4 13932.9,2536.6 13939.5,2536.4C13946.1,2536.2 13969.5,2535.9 13991.5,2535.8Z M6134.8,2533.5C6189.4,2533.3 6187.6,2533.6 6197.5,2523.6C6201.7,2519.4 6204.0,2516.2 6204.9,2513.2C6205.8,2509.9 6206.2,2491.5 6206.5,2438.7C6206.9,2366.6 6207.1,2173.9 6206.8,2063.0C6206.7,2028.6 6206.6,1945.8 6206.6,1879.0C6206.7,1812.2 6206.7,1708.5 6206.6,1648.5C6206.6,1551.7 6208.1,700.2 6208.4,661.0C6208.5,646.8 6208.3,645.2 6206.3,641.4C6203.0,635.3 6195.7,629.3 6189.1,627.3C6183.0,625.5 6180.8,625.4 6150.0,626.4C6138.7,626.8 6056.2,627.3 5966.5,627.5C5805.1,628.0 5803.6,628.0 5799.4,630.1C5793.7,632.8 5787.4,639.8 5785.8,645.2C5784.2,650.7 5784.2,664.7 5785.9,758.0C5787.6,856.0 5787.0,950.9 5784.5,970.5C5783.0,982.3 5782.7,992.4 5782.6,1034.0C5782.5,1061.2 5783.1,1096.5 5783.7,1112.5C5787.4,1199.3 5787.7,1288.6 5784.5,1343.0C5783.4,1363.2 5783.3,1379.1 5784.1,1433.0C5785.6,1534.4 5786.6,1745.8 5785.7,1782.0C5785.2,1800.6 5785.4,1859.1 5786.0,1919.0C5786.6,1976.5 5787.2,2127.2 5787.3,2254.0C5787.5,2470.2 5787.4,2485.0 5785.8,2492.5C5783.4,2503.4 5783.4,2514.5 5785.9,2518.6C5791.4,2527.7 5800.8,2530.8 5826.0,2532.1C5850.0,2533.4 6018.6,2534.9 6057.8,2534.3C6074.5,2534.0 6109.1,2533.7 6134.8,2533.5Z M4613.5,1004.5C4913.6,1004.1 5040.2,1003.7 5059.5,1002.8C5077.6,1002.0 5130.1,1001.7 5219.0,1001.8C5297.7,1001.9 5365.1,1001.6 5385.0,1000.9C5416.3,999.9 5457.1,1000.7 5473.2,1002.6C5483.0,1003.8 5494.6,997.7 5499.0,988.9C5503.7,979.8 5503.9,969.4 5503.7,798.0C5503.5,638.5 5503.5,638.5 5501.2,633.8C5498.0,627.3 5490.1,620.4 5483.7,618.5C5476.2,616.3 5471.0,616.6 5453.9,620.5C5440.6,623.6 5435.6,624.2 5417.0,625.1C5394.4,626.3 4890.7,625.4 4848.0,624.1C4829.6,623.6 4600.8,624.0 4209.5,625.3C4108.5,625.6 4108.5,625.6 4101.8,627.8C4093.8,630.5 4086.1,636.9 4083.4,643.2C4081.7,647.3 4081.5,655.9 4080.8,810.5C4080.3,918.5 4080.4,975.2 4081.1,978.4C4082.4,984.8 4084.9,988.8 4091.5,994.9C4097.8,1000.6 4105.8,1003.7 4117.3,1005.1C4121.3,1005.5 4140.2,1005.7 4159.5,1005.4C4178.8,1005.1 4383.1,1004.7 4613.5,1004.5Z" fill="#ffffff"/><path d="M12691.6,2838.9C12705.2,2836.5 12720.3,2830.5 12738.4,2820.3C12742.7,2817.8 12751.4,2813.8 12757.9,2811.4C12770.4,2806.5 12775.5,2803.9 12787.5,2796.0C12791.8,2793.2 12799.6,2788.9 12804.9,2786.4C12810.2,2783.9 12820.1,2778.1 12827.0,2773.5C12833.9,2768.9 12843.8,2763.1 12849.0,2760.5C12854.2,2757.9 12862.5,2753.2 12867.5,2750.0C12872.4,2746.9 12882.4,2740.9 12889.5,2736.8C12918.5,2720.0 12931.1,2710.5 12935.3,2702.4C12939.4,2694.5 12941.8,2673.5 12943.0,2635.0C12943.5,2619.3 12944.2,2603.8 12944.5,2600.5C12945.8,2586.1 12948.0,2467.6 12947.8,2428.0C12947.5,2385.7 12947.4,2384.4 12945.3,2379.8C12942.1,2372.9 12934.8,2365.6 12924.0,2358.5C12914.1,2352.0 12900.8,2339.3 12893.3,2329.0C12887.9,2321.6 12878.6,2305.5 12873.4,2294.5C12867.9,2282.9 12864.9,2273.7 12861.0,2257.0C12859.3,2249.6 12855.5,2236.3 12852.5,2227.5C12849.6,2218.7 12845.5,2205.0 12843.6,2197.0C12841.6,2189.0 12838.2,2176.4 12835.9,2169.0C12829.6,2148.1 12826.3,2133.2 12823.1,2111.5C12821.5,2100.5 12819.0,2083.6 12817.5,2074.0C12816.1,2064.4 12813.4,2050.4 12811.5,2043.0C12809.6,2035.6 12806.3,2021.4 12804.1,2011.5C12801.9,2001.6 12798.7,1987.7 12797.0,1980.5C12795.3,1973.3 12793.1,1962.3 12791.9,1956.0C12787.9,1932.8 12784.4,1923.5 12776.3,1914.9C12769.5,1907.6 12764.2,1904.5 12751.4,1900.5C12741.9,1897.5 12739.4,1896.3 12735.1,1892.4C12728.1,1886.1 12725.8,1881.3 12725.2,1871.9C12724.6,1862.0 12726.0,1858.1 12731.7,1853.0C12739.7,1846.0 12743.1,1845.5 12783.0,1845.5C12821.4,1845.6 12823.8,1845.9 12832.2,1852.3C12839.6,1857.9 12841.7,1862.1 12845.9,1879.0C12848.1,1887.5 12851.4,1900.7 12853.4,1908.2C12858.4,1927.6 12862.5,1948.0 12865.0,1966.0C12866.2,1974.5 12868.2,1987.1 12869.5,1994.0C12870.8,2000.9 12872.9,2012.1 12874.0,2019.0C12875.2,2025.9 12877.7,2038.3 12879.5,2046.5C12883.9,2065.9 12887.2,2084.9 12891.0,2113.5C12892.7,2126.2 12894.6,2138.2 12895.1,2140.3C12896.4,2145.2 12902.9,2152.3 12908.6,2155.1C12915.0,2158.1 12919.7,2157.3 12933.7,2150.6C12951.9,2142.0 12960.0,2140.9 12974.4,2145.6C12977.2,2146.5 12989.9,2152.3 13002.5,2158.6C13025.5,2170.0 13025.5,2170.0 13040.6,2184.7C13055.4,2199.2 13055.9,2199.7 13060.8,2210.0C13063.5,2215.8 13067.5,2225.0 13069.6,2230.5C13073.1,2239.8 13073.4,2241.4 13073.8,2253.7C13074.3,2269.7 13073.3,2274.8 13065.0,2296.5C13056.7,2318.4 13054.6,2322.2 13044.5,2333.4C13029.3,2350.3 13023.0,2358.2 13020.2,2364.0C13017.5,2369.5 13017.5,2369.5 13016.8,2411.5C13016.4,2434.6 13015.4,2471.3 13014.6,2493.0C13013.8,2514.7 13012.6,2547.8 13012.0,2566.5C13011.5,2585.2 13010.5,2609.5 13010.0,2620.5C13008.1,2657.8 13008.3,2659.6 13015.6,2666.0C13026.0,2675.1 13032.7,2674.1 13053.4,2660.6C13060.0,2656.3 13072.4,2649.3 13081.1,2644.9C13090.7,2640.1 13100.3,2634.5 13105.5,2630.5C13110.3,2626.8 13121.0,2619.6 13129.3,2614.4C13149.3,2601.8 13158.4,2595.2 13169.3,2585.1C13174.3,2580.6 13181.8,2574.2 13185.9,2571.0C13197.2,2562.3 13212.7,2545.6 13223.8,2530.0C13227.1,2525.3 13232.6,2517.9 13235.9,2513.5C13244.3,2502.5 13247.0,2496.9 13253.3,2478.5C13256.3,2469.7 13260.2,2458.9 13262.0,2454.5C13266.3,2443.9 13270.3,2430.6 13273.5,2416.3C13278.0,2396.1 13279.9,2389.0 13286.0,2371.0C13289.2,2361.4 13293.0,2348.8 13294.5,2343.1C13298.4,2327.4 13303.8,2314.2 13314.0,2295.0C13325.1,2274.1 13326.7,2271.4 13333.5,2263.0C13336.3,2259.4 13342.3,2251.0 13346.8,2244.2C13351.3,2237.5 13360.0,2225.8 13366.2,2218.4C13383.3,2197.9 13388.4,2190.9 13393.6,2181.3C13396.2,2176.5 13401.3,2168.2 13405.0,2163.0C13416.2,2147.2 13430.0,2117.7 13434.4,2100.2C13438.6,2084.0 13443.0,2060.5 13445.5,2042.0C13447.8,2025.0 13450.4,2012.1 13455.4,1993.5C13456.7,1988.5 13458.6,1978.4 13459.5,1971.0C13460.4,1963.6 13462.2,1952.8 13463.5,1947.0C13464.8,1941.2 13466.6,1928.8 13467.5,1919.5C13468.4,1910.2 13470.0,1897.4 13471.1,1891.2C13473.5,1876.7 13473.5,1871.4 13471.1,1867.4C13466.6,1860.0 13456.0,1855.2 13448.6,1857.0C13446.3,1857.6 13438.2,1861.2 13430.5,1865.1C13418.0,1871.4 13414.5,1872.6 13396.9,1877.0C13381.7,1880.7 13373.8,1883.3 13362.0,1888.5C13352.9,1892.4 13339.1,1897.3 13328.0,1900.5C13307.1,1906.5 13282.0,1915.5 13271.6,1920.7C13260.8,1926.2 13256.1,1931.2 13248.5,1946.0C13241.3,1959.9 13234.9,1968.2 13221.4,1981.0C13208.3,1993.5 13184.1,2008.0 13167.0,2013.6C13158.7,2016.4 13157.9,2016.4 13136.5,2016.4C13114.5,2016.4 13114.5,2016.4 13105.3,2013.3C13099.4,2011.3 13090.2,2006.8 13079.9,2000.9C13060.8,1989.8 13046.1,1977.3 13036.5,1964.0C13033.2,1959.5 13027.6,1952.1 13024.1,1947.6C13015.6,1936.7 13010.7,1926.2 13007.6,1911.9C13004.6,1898.4 13004.3,1889.2 13006.6,1876.5C13008.7,1864.7 13008.1,1853.0 13005.2,1847.0C13004.0,1844.5 12999.9,1838.8 12996.2,1834.3C12992.4,1829.7 12986.8,1821.3 12983.7,1815.5C12975.1,1799.4 12960.3,1778.5 12951.7,1770.3C12945.0,1763.9 12943.2,1762.9 12936.3,1760.7C12928.5,1758.2 12928.5,1758.2 12848.5,1759.0C12804.5,1759.5 12762.9,1760.1 12756.0,1760.5C12749.1,1760.8 12720.5,1761.2 12692.5,1761.5C12633.2,1762.0 12634.0,1761.9 12625.5,1770.3C12618.7,1777.2 12617.6,1781.3 12618.3,1796.7C12618.6,1803.2 12619.3,1818.2 12619.9,1830.0C12621.7,1867.7 12623.3,2047.0 12622.1,2069.5C12620.9,2091.9 12621.7,2107.4 12624.9,2123.2C12628.1,2138.8 12630.7,2144.9 12643.3,2166.3C12648.0,2174.5 12652.3,2186.7 12656.0,2203.0C12658.5,2213.5 12660.7,2219.7 12667.4,2234.5C12669.9,2240.0 12673.7,2251.4 12676.0,2259.9C12678.2,2268.4 12681.2,2278.1 12682.6,2281.4C12693.2,2306.8 12695.7,2315.7 12704.0,2357.5C12707.3,2373.9 12710.2,2386.0 12712.0,2390.2C12717.5,2403.4 12726.4,2412.7 12743.2,2423.0C12748.9,2426.5 12755.9,2431.7 12758.9,2434.4C12764.6,2439.8 12776.9,2457.7 12783.0,2469.7C12796.6,2496.2 12792.3,2533.5 12771.4,2569.0C12762.4,2584.4 12745.1,2600.1 12728.5,2608.1C12707.4,2618.3 12681.3,2619.7 12658.4,2612.0C12644.7,2607.3 12626.6,2596.6 12616.7,2587.1C12610.8,2581.5 12597.7,2565.4 12590.8,2555.0C12583.7,2544.7 12580.0,2529.4 12580.0,2510.9C12580.0,2492.8 12583.4,2478.1 12590.2,2467.3C12604.4,2444.6 12614.6,2432.5 12627.6,2422.7C12630.9,2420.2 12636.1,2415.4 12639.2,2412.1C12646.6,2404.2 12649.0,2397.8 12649.0,2386.5C12649.0,2376.5 12646.7,2368.5 12637.9,2347.4C12634.7,2339.7 12630.9,2329.1 12629.4,2323.9C12624.3,2305.2 12620.6,2295.4 12614.4,2283.6C12608.8,2272.7 12604.8,2261.7 12599.5,2242.6C12598.6,2239.3 12594.9,2231.0 12591.4,2224.1C12587.8,2217.3 12582.6,2205.1 12579.9,2197.1C12577.1,2189.1 12572.5,2177.6 12569.8,2171.5C12561.1,2152.5 12554.0,2134.9 12550.5,2123.5C12543.5,2101.3 12543.9,2111.5 12543.0,1932.5C12542.5,1833.5 12541.7,1761.7 12541.0,1748.0C12539.3,1715.8 12540.9,1709.2 12552.2,1701.0C12560.9,1694.7 12552.0,1695.1 12718.5,1693.9C12979.0,1692.2 12954.2,1692.1 12963.5,1695.2C12967.9,1696.7 12973.5,1699.2 12976.0,1700.8C12983.0,1705.2 13005.2,1730.7 13011.1,1741.0C13013.0,1744.3 13018.0,1752.5 13022.3,1759.3C13026.6,1766.0 13032.4,1775.9 13035.1,1781.3C13041.1,1793.1 13046.3,1799.0 13053.9,1802.7C13058.8,1805.2 13060.6,1805.5 13068.5,1805.4C13076.2,1805.4 13079.1,1804.8 13089.0,1801.4C13100.1,1797.6 13100.9,1797.5 13113.0,1797.6C13122.6,1797.7 13128.3,1798.3 13137.5,1800.4C13158.0,1804.9 13164.0,1807.3 13179.0,1816.5C13183.7,1819.3 13191.2,1823.9 13195.8,1826.6C13200.6,1829.4 13208.7,1835.7 13214.7,1841.3C13226.9,1852.5 13234.6,1856.9 13243.7,1857.7C13249.2,1858.2 13251.8,1857.5 13285.5,1846.2C13305.3,1839.5 13330.5,1831.8 13341.5,1829.1C13362.0,1824.0 13372.2,1820.7 13393.8,1812.6C13400.6,1810.0 13412.7,1806.1 13420.6,1803.9C13438.9,1798.9 13446.2,1796.2 13457.8,1789.9C13462.9,1787.2 13471.2,1783.3 13476.3,1781.4C13481.3,1779.4 13488.4,1776.3 13492.0,1774.4C13503.0,1768.7 13530.2,1743.9 13535.9,1734.5C13543.9,1721.2 13554.9,1678.1 13558.0,1647.8C13562.5,1602.9 13565.2,1507.6 13563.1,1466.4C13561.4,1432.6 13558.7,1419.5 13548.9,1398.2C13546.6,1393.4 13543.0,1385.0 13540.8,1379.5C13535.3,1365.6 13528.3,1352.5 13519.2,1339.0C13512.6,1329.2 13509.8,1326.0 13499.5,1317.2C13486.5,1305.9 13459.2,1287.1 13447.0,1281.0C13442.9,1278.9 13433.4,1275.1 13426.0,1272.5C13418.6,1269.9 13407.7,1265.8 13401.9,1263.4C13389.7,1258.4 13378.3,1255.0 13366.0,1252.5C13361.3,1251.6 13349.5,1249.1 13339.7,1246.9C13329.9,1244.7 13315.2,1242.0 13307.2,1240.9C13299.1,1239.8 13285.3,1237.6 13276.5,1236.0C13267.7,1234.4 13257.8,1232.9 13254.5,1232.5C13247.8,1231.9 13239.8,1233.6 13232.7,1237.1C13227.8,1239.6 13210.8,1251.7 13200.1,1260.2C13191.6,1267.0 13187.3,1269.3 13170.7,1276.0C13164.0,1278.6 13154.7,1282.4 13150.0,1284.4C13136.6,1290.0 13130.1,1291.3 13118.6,1290.8C13109.9,1290.4 13106.5,1289.7 13094.0,1285.6C13077.6,1280.2 13074.5,1280.1 13065.0,1284.7C13057.0,1288.6 13044.7,1301.5 13037.0,1314.0C13033.5,1319.6 13027.6,1328.1 13023.8,1332.8C13019.8,1337.9 13014.5,1346.4 13011.1,1353.0C13003.7,1367.8 12987.5,1392.4 12982.0,1397.4C12977.0,1401.9 12971.9,1404.3 12961.3,1407.1C12949.3,1410.3 12899.2,1411.0 12723.5,1410.3C12571.5,1409.7 12571.5,1409.7 12563.8,1407.4C12554.6,1404.5 12547.4,1398.6 12543.6,1390.7C12539.0,1381.5 12538.8,1374.6 12540.0,1298.5C12540.5,1260.0 12541.5,1195.2 12542.0,1154.5C12543.3,1058.3 12544.7,1003.6 12546.0,993.0C12549.1,969.3 12555.7,949.8 12566.4,933.3C12572.0,924.4 12574.2,919.4 12578.5,904.8C12580.9,896.9 12584.7,887.6 12589.5,878.1C12593.5,870.1 12598.0,859.7 12599.5,855.0C12604.8,837.7 12607.3,831.3 12611.8,823.0C12621.9,804.3 12623.8,799.0 12627.9,780.3C12630.5,768.4 12633.3,761.5 12640.8,748.8C12650.1,733.0 12653.2,725.0 12653.8,715.4C12654.1,709.1 12653.9,706.5 12652.5,703.7C12650.5,699.4 12643.2,692.5 12632.0,684.5C12618.0,674.4 12610.8,666.9 12600.6,652.0C12583.8,627.4 12581.6,621.1 12581.7,596.0C12581.7,581.4 12582.0,578.4 12584.3,569.6C12587.0,559.4 12592.2,548.7 12602.5,532.1C12609.7,520.4 12615.5,514.2 12627.7,505.1C12641.9,494.5 12649.2,490.4 12660.0,486.8C12669.3,483.7 12670.0,483.6 12688.0,483.6C12708.3,483.5 12713.9,484.5 12725.5,489.9C12733.5,493.6 12753.0,507.7 12760.7,515.3C12768.1,522.5 12771.1,527.9 12777.9,546.2C12785.9,567.7 12786.4,570.3 12786.4,588.5C12786.3,607.1 12785.3,612.7 12778.3,630.0C12768.6,654.3 12764.8,660.0 12745.0,680.5C12736.8,689.0 12729.0,697.8 12727.7,700.2C12724.5,705.6 12722.4,713.1 12721.0,724.0C12719.2,736.9 12717.6,742.5 12711.6,755.7C12708.6,762.3 12703.3,775.8 12700.0,785.6C12696.6,795.5 12691.0,810.5 12687.5,819.0C12681.6,833.5 12678.7,841.7 12671.1,866.3C12669.4,871.7 12665.6,881.4 12662.5,887.9C12659.5,894.3 12655.0,906.5 12652.4,915.0C12649.1,926.2 12646.1,933.9 12641.0,943.7C12633.8,957.8 12629.7,968.8 12625.4,986.0C12622.9,996.0 12622.8,998.6 12621.5,1043.0C12620.7,1068.6 12619.6,1099.4 12619.0,1111.5C12618.4,1123.6 12617.5,1158.9 12617.0,1190.0C12616.5,1221.1 12615.5,1259.1 12614.8,1274.5C12613.1,1312.5 12613.2,1321.7 12615.3,1325.6C12616.2,1327.4 12619.0,1330.6 12621.6,1332.9C12630.7,1340.9 12619.4,1340.3 12777.5,1341.0C12890.4,1341.5 12919.8,1341.4 12924.8,1340.4C12932.9,1338.7 12939.9,1335.5 12947.6,1329.7C12956.3,1323.3 12979.0,1298.3 12986.5,1287.0C12990.0,1281.8 12995.8,1274.2 12999.4,1270.1C13003.0,1266.0 13007.2,1260.2 13008.8,1257.1C13011.2,1252.1 13011.5,1250.5 13011.5,1241.0C13011.4,1232.1 13011.0,1229.0 13008.2,1220.1C13004.5,1208.2 13004.2,1201.6 13006.6,1189.0C13009.9,1171.6 13016.1,1157.5 13030.6,1134.9C13041.6,1117.7 13046.6,1112.8 13074.1,1092.3C13089.3,1081.0 13113.4,1075.8 13141.3,1078.0C13171.1,1080.4 13183.1,1084.3 13200.1,1097.3C13204.7,1100.8 13209.6,1104.3 13211.0,1105.0C13218.8,1109.1 13236.2,1129.6 13246.9,1147.3C13253.8,1158.7 13262.7,1167.0 13271.2,1169.9C13274.6,1171.1 13285.1,1173.2 13294.5,1174.5C13303.9,1175.9 13316.5,1177.9 13322.5,1179.0C13328.5,1180.1 13339.8,1182.1 13347.5,1183.4C13355.2,1184.8 13368.0,1188.0 13376.0,1190.5C13384.0,1193.1 13398.2,1197.3 13407.5,1200.0C13416.9,1202.7 13429.0,1206.5 13434.3,1208.5C13448.2,1213.5 13453.3,1213.0 13461.4,1206.0C13467.3,1200.8 13468.4,1197.8 13468.4,1187.0C13468.5,1176.2 13466.5,1150.6 13464.5,1135.0C13463.7,1129.2 13462.1,1116.5 13461.0,1106.7C13459.6,1094.8 13457.5,1083.7 13454.8,1073.2C13448.9,1050.2 13444.4,1030.7 13440.5,1011.6C13437.0,994.6 13437.0,994.6 13426.0,971.7C13414.6,948.0 13413.7,946.5 13403.3,933.4C13399.8,929.0 13393.6,920.8 13389.3,915.0C13379.5,901.5 13341.4,854.5 13333.4,846.0C13327.0,839.2 13309.7,815.2 13306.2,808.3C13302.8,801.6 13300.0,792.4 13296.9,777.1C13293.3,759.3 13291.9,754.1 13287.3,743.1C13281.7,729.7 13278.3,718.9 13273.5,700.0C13268.6,680.5 13264.2,667.1 13258.3,653.0C13256.1,647.8 13252.6,638.3 13250.5,632.0C13246.1,618.5 13243.4,612.9 13234.1,597.7C13216.9,569.7 13214.9,567.3 13191.1,545.7C13160.0,517.5 13148.1,508.1 13117.5,487.6C13109.8,482.5 13099.7,475.1 13095.0,471.2C13090.3,467.3 13082.9,462.0 13078.5,459.4C13074.1,456.8 13064.7,451.0 13057.5,446.6C13050.4,442.1 13041.4,437.5 13037.7,436.2C13031.2,434.0 13030.6,434.0 13025.6,435.4C13020.0,437.1 13012.8,442.6 13010.5,447.1C13008.6,450.8 13008.6,464.5 13010.5,480.9C13012.2,495.6 13013.4,513.6 13015.5,556.0C13018.6,619.3 13019.3,641.2 13019.4,678.0C13019.7,725.7 13018.7,722.8 13042.0,746.5C13049.6,754.2 13056.5,762.1 13057.5,764.0C13061.5,771.8 13070.3,795.1 13072.6,803.9C13074.5,811.4 13075.0,815.7 13075.0,826.2C13075.0,841.0 13074.0,846.0 13067.9,860.6C13059.5,880.8 13056.9,884.8 13043.6,897.8C13036.9,904.4 13029.3,910.9 13026.9,912.3C13020.2,916.1 12987.9,929.8 12981.3,931.5C12971.5,934.1 12959.7,934.4 12946.6,932.5C12937.0,931.2 12933.9,931.0 12930.1,932.0C12918.8,934.8 12910.1,943.2 12905.2,956.2C12899.7,970.4 12894.2,991.3 12891.0,1010.1C12889.0,1021.7 12885.9,1034.6 12882.4,1046.0C12875.4,1069.0 12872.2,1082.8 12866.5,1113.5C12862.3,1136.5 12856.6,1162.2 12851.9,1179.5C12850.9,1183.3 12848.5,1194.2 12846.6,1203.5C12841.9,1226.6 12840.2,1231.0 12832.5,1238.7C12827.2,1244.0 12825.3,1245.2 12818.9,1247.2C12811.8,1249.4 12810.3,1249.5 12777.5,1249.5C12739.0,1249.5 12735.9,1249.1 12728.1,1242.3C12722.2,1237.3 12720.0,1232.2 12720.0,1223.5C12720.0,1212.6 12721.3,1209.4 12728.4,1202.4C12734.6,1196.3 12734.9,1196.1 12749.1,1191.6C12757.0,1189.1 12765.5,1185.8 12768.0,1184.2C12773.7,1180.6 12782.2,1171.6 12784.8,1166.4C12787.4,1161.2 12796.2,1127.1 12799.4,1109.2C12800.9,1101.3 12803.6,1090.1 12805.5,1084.2C12810.9,1067.5 12815.4,1045.1 12820.5,1009.7C12823.5,989.2 12824.1,986.5 12833.4,952.5C12837.4,937.6 12842.2,920.2 12843.9,913.6C12845.6,907.1 12849.3,896.6 12852.0,890.4C12855.1,883.5 12858.0,874.7 12859.6,867.8C12861.0,861.6 12863.6,850.4 12865.5,843.0C12867.3,835.6 12869.6,825.0 12870.5,819.5C12873.1,803.1 12874.7,798.6 12884.2,779.7C12895.1,757.8 12900.1,751.9 12915.0,743.3C12931.5,733.7 12934.3,731.7 12940.9,725.5C12944.3,722.2 12948.4,717.2 12949.8,714.5C12953.0,708.5 12953.0,711.1 12951.3,632.0C12950.1,576.5 12948.0,531.4 12945.4,503.0C12944.6,493.9 12943.3,477.5 12942.5,466.5C12939.6,426.6 12937.1,419.3 12919.5,400.3C12911.7,391.8 12890.9,373.7 12883.0,368.4C12880.5,366.7 12874.0,363.0 12868.5,360.0C12863.0,357.1 12853.1,351.5 12846.5,347.5C12839.9,343.5 12831.6,338.8 12828.0,337.0C12824.4,335.2 12816.7,330.7 12810.9,327.0C12805.1,323.2 12797.0,318.6 12792.9,316.6C12768.5,305.0 12748.8,296.2 12736.5,291.4C12728.8,288.3 12717.0,282.7 12710.3,278.8C12694.8,269.9 12685.9,267.0 12674.1,267.0C12662.3,267.0 12655.2,269.3 12636.5,278.9C12628.2,283.2 12617.9,288.1 12613.5,289.9C12609.1,291.6 12600.5,295.7 12594.5,299.1C12588.5,302.4 12575.8,308.8 12566.4,313.4C12557.0,318.0 12545.0,324.5 12539.8,327.8C12534.5,331.2 12526.7,336.0 12522.4,338.5C12518.1,341.1 12510.5,346.4 12505.5,350.4C12500.6,354.4 12493.1,360.0 12489.0,362.7C12478.3,369.9 12472.4,374.7 12460.9,385.8C12444.8,401.2 12439.4,410.1 12437.1,424.7C12436.5,428.6 12436.0,443.9 12436.0,458.7C12435.9,473.4 12435.5,498.6 12434.9,514.5C12434.4,531.0 12433.6,735.9 12433.1,989.5C12432.4,1315.0 12431.9,1443.7 12431.0,1465.7C12429.8,1493.7 12429.8,1496.3 12431.4,1500.5C12433.7,1506.3 12440.7,1512.5 12447.2,1514.5C12453.7,1516.4 12638.4,1517.5 12936.5,1517.5C13146.5,1517.4 13146.5,1517.4 13152.5,1515.0C13159.1,1512.4 13169.3,1503.0 13180.5,1489.0C13189.7,1477.7 13196.2,1473.0 13217.5,1462.6C13245.4,1448.9 13253.5,1446.7 13275.5,1446.8C13295.3,1446.9 13302.3,1449.1 13328.5,1463.5C13338.2,1468.9 13344.9,1474.9 13356.5,1488.9C13366.2,1500.6 13369.5,1506.1 13372.4,1514.9C13376.5,1527.4 13377.3,1533.7 13376.7,1549.2C13376.3,1560.4 13375.6,1565.6 13373.6,1573.0C13369.2,1588.8 13364.6,1596.8 13351.5,1611.8C13338.2,1627.0 13335.0,1629.6 13322.0,1635.7C13291.2,1650.3 13260.6,1654.6 13238.0,1647.5C13233.3,1646.0 13223.5,1641.9 13216.2,1638.4C13204.8,1632.9 13201.9,1631.0 13194.9,1624.3C13190.4,1620.0 13182.9,1612.1 13178.2,1606.6C13168.7,1595.6 13163.6,1591.9 13154.0,1588.9C13146.8,1586.6 13160.1,1586.5 12998.0,1590.5C12872.6,1593.7 12597.2,1595.1 12497.5,1593.1C12461.0,1592.3 12458.1,1592.4 12452.3,1594.2C12444.8,1596.4 12437.0,1603.0 12434.5,1609.2C12432.9,1613.2 12432.8,1631.7 12432.9,1912.0C12433.2,2432.2 12433.8,2533.0 12436.9,2643.5C12437.9,2677.1 12438.6,2680.5 12447.1,2693.6C12457.8,2710.3 12500.6,2748.2 12524.0,2761.7C12528.7,2764.4 12538.1,2770.4 12545.0,2775.0C12551.9,2779.5 12561.1,2784.9 12565.5,2787.0C12569.9,2789.0 12578.7,2793.9 12585.0,2797.7C12597.0,2805.0 12647.7,2830.3 12659.0,2834.7C12671.8,2839.6 12681.0,2840.8 12691.6,2838.9Z M12096.4,2837.5C12109.1,2835.3 12133.6,2826.9 12144.4,2821.0C12149.6,2818.3 12160.0,2813.4 12167.6,2810.1C12175.3,2806.9 12184.4,2802.5 12188.0,2800.2C12191.6,2797.9 12199.5,2793.0 12205.5,2789.3C12228.6,2775.0 12272.3,2741.8 12287.5,2727.0C12291.9,2722.8 12298.2,2717.2 12301.6,2714.7C12312.0,2706.9 12317.0,2699.8 12320.5,2687.8C12323.5,2677.2 12324.1,2671.5 12325.0,2638.5C12328.5,2516.2 12328.7,2482.9 12327.9,2208.0C12327.5,2058.7 12327.1,1863.8 12327.1,1775.0C12327.0,1661.7 12326.7,1612.3 12325.9,1609.5C12325.2,1606.8 12323.0,1603.8 12319.5,1600.3C12310.7,1591.7 12310.2,1591.6 12259.0,1591.7C12221.0,1591.8 11650.4,1591.6 11618.5,1591.5C11606.9,1591.5 11606.2,1591.6 11599.8,1594.8C11594.1,1597.6 11590.7,1600.6 11577.5,1614.3C11561.5,1631.1 11559.5,1632.6 11537.0,1645.7C11521.4,1654.8 11500.7,1659.2 11483.1,1657.2C11456.8,1654.2 11425.9,1636.0 11407.4,1612.7C11399.8,1603.0 11390.9,1585.8 11387.9,1574.6C11386.1,1567.8 11385.8,1564.7 11386.2,1553.1C11386.6,1541.1 11387.0,1538.4 11389.8,1530.3C11396.7,1510.2 11403.3,1499.8 11419.6,1483.9C11433.1,1470.8 11436.5,1468.3 11450.5,1461.1C11464.8,1453.7 11477.1,1450.0 11489.5,1449.3C11509.7,1448.2 11524.7,1451.8 11548.5,1463.7C11563.5,1471.2 11563.5,1471.2 11584.5,1492.5C11604.0,1512.3 11605.9,1513.9 11610.9,1515.4C11622.5,1518.8 11881.4,1519.7 12220.5,1517.4C12297.2,1516.9 12302.9,1516.8 12309.0,1515.0C12316.6,1512.8 12323.4,1507.5 12325.9,1502.0C12327.4,1498.7 12327.5,1457.6 12327.3,1009.5C12327.0,446.2 12326.9,426.8 12324.5,419.0C12320.7,406.6 12316.4,400.3 12300.5,384.1C12285.6,368.9 12270.6,356.7 12246.0,339.8C12240.8,336.2 12232.3,329.8 12227.1,325.7C12216.8,317.5 12189.1,301.2 12170.3,292.4C12163.8,289.3 12150.0,282.7 12139.5,277.5C12113.0,264.5 12106.6,262.5 12092.0,262.5C12081.6,262.5 12079.6,262.8 12070.8,265.9C12065.4,267.7 12044.5,277.6 12024.3,287.8C12004.0,298.0 11980.1,310.1 11971.0,314.5C11961.9,319.0 11950.6,325.2 11945.9,328.3C11941.1,331.3 11931.7,336.9 11924.9,340.5C11918.1,344.2 11909.8,349.1 11906.4,351.5C11903.1,353.9 11894.0,359.2 11886.3,363.3C11878.6,367.4 11869.7,372.6 11866.6,374.9C11863.6,377.2 11856.6,381.9 11851.3,385.4C11840.6,392.3 11831.5,401.2 11828.1,407.9C11824.6,414.7 11822.2,425.7 11821.0,440.6C11820.4,448.2 11819.5,456.2 11819.0,458.4C11813.8,482.2 11811.3,561.6 11814.5,597.5C11815.3,606.3 11816.0,618.2 11816.0,624.0C11816.0,629.8 11816.7,641.9 11817.5,651.0C11818.3,660.1 11819.0,673.8 11819.0,681.6C11819.0,689.3 11819.5,698.3 11820.1,701.6C11822.4,714.0 11831.9,726.4 11849.4,740.0C11861.7,749.5 11871.0,759.0 11877.7,769.0C11885.0,780.0 11899.5,808.4 11901.9,816.5C11905.4,828.5 11908.9,852.3 11910.0,871.8C11911.3,894.5 11913.0,904.8 11917.4,918.8C11922.4,934.3 11923.5,939.2 11927.4,962.5C11929.3,974.0 11932.3,990.1 11934.0,998.3C11936.8,1011.7 11938.8,1019.1 11946.5,1045.0C11947.9,1049.7 11950.9,1062.4 11953.1,1073.3C11955.3,1084.2 11958.2,1097.0 11959.6,1101.8C11961.0,1106.6 11963.7,1115.9 11965.6,1122.4C11967.5,1129.0 11969.9,1140.3 11971.0,1147.4C11973.4,1164.0 11975.4,1170.0 11980.2,1175.5C11986.0,1182.1 11990.9,1183.9 12006.2,1185.6C12021.6,1187.2 12027.4,1189.5 12034.0,1196.6C12040.4,1203.6 12042.3,1208.8 12042.8,1220.7C12043.1,1226.9 12042.8,1232.2 12042.0,1234.4C12040.2,1239.9 12032.1,1246.6 12024.2,1249.0C12017.8,1251.0 12016.1,1251.1 11985.0,1250.5C11941.1,1249.6 11933.3,1247.9 11921.3,1236.7C11907.8,1224.0 11906.9,1221.0 11906.0,1186.0C11905.3,1160.7 11905.0,1157.3 11902.1,1143.0C11900.4,1134.5 11897.0,1120.5 11894.5,1112.0C11888.5,1091.1 11885.7,1078.9 11882.0,1057.0C11878.5,1036.0 11876.4,1027.9 11870.8,1013.0C11868.7,1007.2 11864.6,993.3 11861.9,982.1C11855.3,955.3 11853.9,951.8 11847.5,945.4C11843.2,941.1 11841.0,939.8 11835.2,938.0C11828.8,936.1 11827.4,936.0 11818.6,936.9C11797.2,939.3 11791.7,938.1 11767.0,925.3C11745.6,914.1 11741.0,910.8 11726.0,895.3C11715.4,884.3 11712.4,880.4 11705.9,869.4C11696.9,854.1 11695.5,850.7 11693.5,839.4C11691.7,829.2 11691.6,820.8 11693.1,808.5C11695.1,791.2 11696.8,786.9 11708.5,767.5C11715.9,755.3 11720.8,749.7 11729.0,744.0C11735.2,739.8 11743.0,731.8 11745.3,727.4C11749.1,720.1 11749.2,717.0 11749.6,647.5C11749.9,587.6 11751.1,520.3 11752.7,470.5C11753.3,451.1 11752.7,448.7 11745.9,442.6C11739.2,436.6 11731.9,434.3 11725.2,436.0C11717.4,437.9 11712.7,440.5 11705.4,446.7C11696.8,454.1 11694.5,455.7 11683.4,462.0C11673.2,467.9 11654.3,481.3 11642.2,491.2C11637.6,495.0 11627.9,502.0 11620.7,506.9C11613.4,511.8 11603.2,519.6 11597.9,524.2C11592.7,528.8 11582.8,537.0 11576.0,542.5C11569.2,548.0 11560.7,555.2 11557.1,558.5C11544.4,570.4 11529.5,597.3 11523.4,619.5C11519.1,635.4 11514.9,647.7 11508.0,664.0C11504.9,671.6 11500.9,684.1 11497.8,696.0C11494.7,708.2 11489.9,723.2 11484.9,736.2C11480.6,747.6 11477.0,757.3 11477.0,757.8C11477.0,760.7 11468.2,785.7 11464.7,792.5C11462.5,796.9 11458.4,805.7 11455.5,812.1C11449.9,824.6 11446.9,829.4 11437.9,840.5C11434.8,844.4 11429.9,851.3 11427.0,856.0C11421.0,865.8 11415.2,872.7 11398.4,890.0C11391.6,897.0 11383.3,906.9 11379.4,912.5C11375.7,918.0 11369.9,925.9 11366.7,930.0C11363.5,934.1 11359.0,940.6 11356.6,944.5C11335.5,979.3 11333.9,982.6 11328.0,1004.9C11325.8,1013.3 11321.9,1024.7 11319.4,1030.3C11313.8,1042.7 11311.1,1052.9 11307.2,1077.0C11303.9,1096.8 11302.6,1107.6 11301.0,1129.0C11300.4,1136.4 11298.8,1150.1 11297.4,1159.4C11294.7,1178.7 11294.2,1197.2 11296.4,1202.3C11298.3,1207.1 11305.5,1212.8 11311.8,1214.6C11318.0,1216.4 11322.4,1215.9 11332.0,1212.3C11347.9,1206.3 11353.3,1204.8 11368.4,1202.0C11377.3,1200.3 11390.4,1197.4 11397.5,1195.5C11420.6,1189.6 11448.7,1184.6 11468.6,1183.0C11498.1,1180.7 11508.1,1173.5 11520.0,1146.3C11522.4,1140.9 11526.0,1133.7 11528.2,1130.4C11533.9,1121.2 11545.7,1110.6 11559.5,1102.1C11566.1,1098.0 11574.0,1093.2 11577.0,1091.3C11588.2,1084.4 11612.3,1078.9 11631.0,1078.8C11643.6,1078.8 11658.7,1081.3 11670.6,1085.4C11679.7,1088.5 11681.6,1089.5 11696.8,1099.4C11707.1,1106.1 11711.7,1109.9 11720.7,1119.4C11726.9,1125.8 11733.4,1133.2 11735.2,1135.8C11739.5,1142.0 11750.1,1165.3 11753.5,1176.0C11757.1,1187.3 11757.9,1203.6 11755.6,1216.5C11753.5,1228.1 11753.6,1237.2 11755.9,1243.7C11758.5,1251.2 11766.4,1263.9 11773.8,1272.2C11777.3,1276.2 11782.5,1282.9 11785.3,1287.0C11792.4,1297.5 11818.6,1323.9 11828.0,1330.1C11832.2,1332.9 11839.0,1336.2 11843.5,1337.6C11851.5,1340.3 11851.5,1340.3 11926.5,1340.0C11967.8,1339.8 12030.1,1339.6 12065.0,1339.5C12135.4,1339.3 12132.0,1339.7 12139.8,1332.6C12145.1,1327.8 12147.7,1321.2 12148.9,1309.9C12149.5,1304.6 12150.3,1243.3 12150.7,1170.5C12151.7,983.8 12151.8,998.1 12149.1,987.5C12146.3,976.5 12142.1,965.6 12134.1,948.2C12130.7,940.8 12125.6,926.9 12122.5,916.7C12119.3,906.3 12114.3,893.0 12110.9,885.7C12107.6,878.7 12102.8,866.5 12100.1,858.6C12097.4,850.8 12092.4,838.3 12089.0,830.9C12085.6,823.5 12080.4,810.3 12077.3,801.5C12074.3,792.7 12068.3,778.1 12064.0,769.0C12053.8,747.4 12051.6,741.1 12048.0,722.2C12044.5,704.6 12042.9,698.8 12039.2,691.5C12036.2,685.4 12025.5,674.1 12017.9,669.0C12012.4,665.2 11998.3,651.0 11990.7,641.5C11985.4,634.9 11979.9,623.0 11976.0,609.5C11968.8,585.0 11971.7,551.7 11982.7,533.2C11987.8,524.7 12003.5,508.1 12011.8,502.7C12020.8,496.7 12032.9,490.7 12041.5,488.0C12050.5,485.2 12072.8,484.1 12086.3,486.0C12100.6,487.9 12109.1,491.1 12124.0,500.0C12139.4,509.3 12143.6,513.2 12156.0,530.2C12169.9,549.3 12172.5,558.5 12172.5,589.0C12172.5,617.7 12170.3,624.2 12153.4,646.7C12141.9,661.9 12136.6,667.7 12128.5,673.5C12119.5,679.9 12110.3,690.1 12108.9,695.2C12108.3,697.6 12108.0,703.1 12108.2,707.6C12108.6,714.9 12109.2,716.7 12114.7,728.6C12118.0,735.7 12122.2,746.1 12123.9,751.8C12125.7,757.6 12130.7,769.3 12135.5,778.8C12140.1,788.0 12145.5,800.0 12147.5,805.5C12151.9,817.4 12157.3,828.4 12164.3,839.4C12167.1,843.9 12172.0,854.0 12175.2,861.9C12178.4,869.9 12182.7,879.3 12184.9,882.9C12191.2,893.6 12193.1,897.8 12197.2,910.5C12201.1,922.4 12202.4,925.1 12211.4,940.5C12216.5,949.4 12220.3,960.0 12222.5,972.3C12225.3,987.4 12226.1,1028.5 12226.9,1193.0C12227.7,1355.9 12227.7,1356.5 12229.9,1364.0C12232.8,1374.3 12233.6,1384.7 12232.0,1390.7C12231.0,1394.2 12229.1,1397.0 12225.0,1401.2C12215.2,1411.0 12234.7,1410.1 12023.0,1410.0C11906.3,1410.0 11833.8,1409.5 11827.6,1408.9C11809.5,1407.1 11794.8,1400.9 11785.9,1391.4C11778.3,1383.3 11765.0,1365.9 11761.4,1359.3C11758.1,1353.5 11745.0,1332.9 11736.1,1319.6C11732.1,1313.5 11715.8,1294.9 11709.5,1289.2C11705.3,1285.3 11702.3,1283.6 11697.3,1282.0C11689.4,1279.6 11685.0,1280.1 11668.9,1285.5C11652.8,1290.9 11648.5,1291.4 11633.5,1289.5C11626.4,1288.6 11617.4,1287.0 11613.5,1286.0C11603.5,1283.4 11579.1,1273.9 11572.3,1269.9C11569.2,1268.0 11559.5,1259.7 11550.9,1251.3C11535.7,1236.5 11535.0,1236.1 11528.1,1234.0C11521.7,1232.0 11520.3,1231.9 11514.4,1232.9C11510.8,1233.6 11502.2,1235.9 11495.2,1238.1C11486.6,1240.8 11479.3,1242.4 11472.1,1243.1C11456.5,1244.7 11417.9,1249.7 11399.0,1252.6C11378.6,1255.7 11369.9,1257.9 11354.5,1263.7C11347.9,1266.2 11336.6,1270.2 11329.5,1272.7C11313.2,1278.4 11307.6,1281.2 11297.0,1289.1C11277.3,1303.6 11258.7,1321.6 11246.3,1338.1C11240.4,1346.0 11220.5,1385.5 11217.1,1396.0C11214.7,1403.8 11212.7,1414.0 11209.5,1436.0C11205.2,1466.2 11204.6,1478.3 11204.5,1536.5C11204.5,1592.5 11205.5,1615.1 11209.6,1649.5C11210.3,1656.1 11211.7,1667.8 11212.5,1675.5C11215.2,1700.2 11218.7,1710.2 11231.1,1729.1C11238.8,1740.7 11268.6,1772.2 11276.3,1776.7C11279.2,1778.4 11286.5,1782.7 11292.5,1786.2C11298.5,1789.8 11305.8,1794.1 11308.5,1795.8C11311.2,1797.6 11320.9,1801.7 11330.0,1805.0C11339.0,1808.3 11350.3,1812.8 11355.0,1814.9C11366.9,1820.4 11373.8,1822.3 11399.8,1827.5C11457.0,1838.8 11475.9,1843.0 11485.5,1846.5C11508.2,1854.7 11510.1,1855.2 11517.6,1854.8C11527.9,1854.1 11534.3,1850.8 11544.9,1840.6C11552.5,1833.3 11555.4,1831.3 11567.6,1825.1C11575.2,1821.2 11585.3,1815.7 11589.9,1813.0C11604.9,1804.2 11619.1,1800.6 11639.0,1800.6C11652.2,1800.7 11652.9,1800.8 11667.9,1805.3C11676.4,1807.9 11685.2,1810.0 11687.5,1810.0C11698.7,1810.0 11708.6,1803.4 11718.0,1789.6C11720.6,1785.7 11725.2,1779.5 11728.2,1775.8C11731.1,1772.1 11735.5,1765.4 11737.9,1760.9C11740.3,1756.4 11745.3,1748.2 11749.0,1742.6C11752.6,1737.1 11757.6,1728.9 11760.0,1724.5C11767.8,1710.2 11776.2,1703.0 11790.5,1698.3C11798.5,1695.6 11798.5,1695.6 11879.5,1694.9C11924.0,1694.5 12016.2,1693.9 12084.3,1693.6C12205.1,1693.1 12208.2,1693.1 12214.4,1695.0C12221.9,1697.4 12229.4,1703.4 12232.1,1709.5C12234.7,1715.1 12234.6,1729.4 12231.8,1743.5C12229.7,1754.3 12229.7,1757.1 12228.9,1899.5C12228.5,1979.2 12227.8,2047.0 12227.5,2050.0C12227.2,2053.0 12226.3,2065.2 12225.4,2077.0C12222.9,2113.0 12219.8,2126.9 12211.2,2140.1C12203.4,2152.0 12201.4,2155.9 12196.6,2167.3C12193.9,2174.0 12189.2,2182.5 12184.6,2189.3C12179.7,2196.6 12175.5,2204.5 12172.5,2212.0C12169.9,2218.3 12164.7,2229.4 12160.9,2236.7C12157.2,2244.0 12152.9,2253.9 12151.5,2258.7C12145.4,2279.2 12142.5,2287.0 12136.4,2300.3C12131.9,2309.9 12128.2,2320.2 12124.5,2332.9C12118.9,2352.6 12117.4,2356.7 12111.5,2369.5C12107.2,2378.6 12105.9,2388.4 12107.9,2395.8C12109.7,2402.2 12120.8,2413.5 12132.8,2420.9C12142.8,2427.1 12150.6,2434.3 12163.8,2449.7C12178.6,2467.1 12187.0,2492.0 12185.7,2514.0C12185.0,2525.0 12182.7,2533.6 12177.0,2547.4C12171.2,2561.2 12167.4,2566.8 12154.6,2579.9C12143.0,2591.8 12135.9,2597.1 12122.5,2603.7C12093.0,2618.4 12066.3,2617.5 12034.0,2600.8C12018.2,2592.7 12015.2,2590.2 12000.3,2574.2C11986.2,2558.9 11982.2,2552.7 11977.4,2538.0C11974.8,2530.2 11974.6,2528.2 11974.6,2514.5C11974.6,2502.0 11975.0,2498.1 11976.9,2491.1C11980.1,2479.2 11983.7,2471.8 11991.4,2461.5C11995.1,2456.6 12000.3,2448.9 12003.0,2444.5C12008.9,2434.7 12015.9,2427.9 12026.0,2422.0C12045.2,2410.8 12052.6,2398.5 12055.1,2373.7C12057.0,2354.1 12059.8,2341.3 12064.6,2329.5C12067.1,2323.4 12070.9,2311.4 12073.0,2302.8C12075.4,2293.4 12079.0,2282.5 12082.0,2275.7C12088.2,2261.3 12089.5,2257.6 12096.5,2235.0C12105.6,2205.2 12108.1,2197.9 12111.2,2191.0C12115.1,2182.4 12116.4,2178.9 12121.1,2163.6C12125.3,2150.2 12128.2,2143.5 12133.2,2136.2C12137.3,2130.2 12142.7,2118.5 12144.4,2111.6C12148.6,2095.6 12149.1,2086.1 12148.4,2047.5C12147.6,2004.5 12149.5,1834.9 12151.1,1805.5C12152.5,1780.8 12151.8,1775.9 12145.8,1769.4C12143.6,1767.0 12139.8,1764.1 12137.3,1762.9C12132.7,1760.7 12132.7,1760.7 12041.1,1760.7C11990.7,1760.8 11923.4,1761.1 11891.5,1761.5C11829.0,1762.2 11827.4,1762.3 11818.0,1767.7C11811.6,1771.4 11795.6,1787.2 11790.0,1795.5C11787.4,1799.3 11781.1,1808.1 11776.0,1815.0C11765.6,1829.0 11758.1,1843.5 11755.0,1855.5C11753.4,1861.8 11753.0,1866.6 11753.0,1879.9C11753.0,1898.7 11751.9,1904.5 11744.9,1924.5C11738.0,1944.2 11733.4,1952.3 11719.5,1968.5C11708.1,1981.8 11705.1,1984.8 11699.0,1989.0C11689.1,1995.7 11664.3,2009.0 11656.8,2011.6C11640.5,2017.1 11614.6,2016.8 11596.0,2010.8C11588.6,2008.4 11564.3,1996.5 11556.0,1991.2C11549.5,1987.1 11532.6,1972.5 11525.4,1964.9C11520.2,1959.3 11512.7,1947.3 11504.4,1931.0C11498.2,1918.7 11490.1,1910.3 11481.5,1907.1C11475.0,1904.6 11473.4,1904.3 11449.5,1900.5C11426.3,1896.7 11404.8,1891.9 11383.3,1885.6C11373.0,1882.6 11360.2,1879.0 11355.0,1877.5C11349.8,1876.1 11339.2,1872.3 11331.5,1869.2C11314.2,1862.2 11308.7,1861.7 11301.9,1866.5C11292.0,1873.4 11291.0,1879.4 11296.0,1900.0C11297.7,1906.9 11301.1,1924.4 11303.6,1939.0C11306.0,1953.6 11309.9,1974.7 11312.1,1986.0C11314.3,1997.3 11316.5,2009.0 11317.1,2012.0C11317.7,2015.0 11320.1,2024.7 11322.5,2033.5C11324.9,2042.3 11328.0,2056.0 11329.4,2064.0C11333.3,2086.6 11343.1,2124.8 11349.0,2140.5C11356.5,2160.4 11359.7,2166.0 11371.1,2179.0C11376.6,2185.2 11385.9,2197.2 11391.7,2205.4C11398.5,2215.1 11406.4,2224.6 11413.5,2232.0C11421.8,2240.5 11427.1,2247.1 11433.5,2257.0C11444.7,2274.2 11448.4,2281.9 11451.1,2293.9C11455.6,2314.2 11457.3,2319.7 11462.1,2330.3C11466.9,2340.7 11468.6,2346.1 11478.1,2381.0C11480.4,2389.5 11485.2,2403.9 11488.8,2413.0C11492.3,2422.1 11496.3,2434.4 11497.7,2440.5C11502.4,2461.5 11504.0,2465.8 11512.4,2478.7C11514.8,2482.5 11518.4,2488.9 11520.5,2493.0C11525.6,2503.3 11531.7,2512.4 11538.1,2519.5C11541.1,2522.8 11545.8,2528.4 11548.5,2531.9C11553.9,2538.8 11577.1,2560.7 11586.0,2567.4C11589.0,2569.6 11598.0,2576.7 11606.0,2583.1C11635.8,2606.9 11643.7,2612.9 11652.5,2618.3C11657.5,2621.3 11665.1,2627.0 11669.4,2630.8C11674.4,2635.3 11681.1,2639.9 11688.1,2643.6C11694.1,2646.9 11703.4,2653.0 11708.8,2657.3C11722.1,2668.0 11732.7,2671.8 11740.2,2668.7C11745.0,2666.7 11752.0,2660.3 11753.9,2656.0C11756.0,2651.4 11756.4,2600.0 11755.2,2493.0C11754.7,2444.6 11754.7,2409.4 11755.4,2397.3C11757.0,2364.4 11755.0,2360.1 11723.6,2332.6C11717.4,2327.2 11716.3,2325.6 11710.5,2313.6C11703.2,2298.4 11697.9,2283.9 11695.5,2272.1C11694.2,2265.5 11693.9,2260.1 11694.2,2247.6C11694.6,2233.4 11695.0,2230.7 11697.2,2224.9C11699.8,2217.8 11708.6,2204.0 11715.2,2196.5C11719.0,2192.2 11738.9,2175.0 11745.7,2170.2C11750.0,2167.1 11782.3,2152.4 11793.0,2148.7C11805.0,2144.5 11814.9,2144.5 11828.0,2148.7C11841.6,2153.1 11842.6,2153.3 11848.5,2151.5C11855.7,2149.5 11862.9,2142.9 11866.3,2135.3C11872.8,2120.6 11882.5,2077.5 11888.0,2038.4C11889.6,2026.7 11893.0,2006.8 11895.6,1994.3C11900.3,1971.5 11900.3,1971.5 11900.4,1938.5C11900.6,1911.5 11901.0,1903.9 11902.4,1897.0C11907.8,1870.9 11914.3,1859.4 11927.4,1853.0C11937.1,1848.3 11944.0,1847.0 11965.0,1845.9C11975.7,1845.4 11988.3,1844.5 11993.0,1844.0C12010.3,1842.0 12017.7,1843.4 12025.3,1850.0C12031.5,1855.5 12033.4,1860.7 12032.8,1870.5C12032.1,1880.6 12028.1,1888.9 12020.0,1896.3C12014.8,1901.2 12012.8,1902.2 12003.1,1905.5C11994.0,1908.5 11991.1,1910.0 11987.0,1913.7C11978.0,1921.8 11975.1,1929.0 11972.4,1949.9C11971.5,1956.8 11970.2,1964.5 11969.5,1967.0C11962.9,1991.0 11960.6,2001.4 11958.0,2018.4C11953.7,2047.2 11947.4,2078.5 11943.5,2091.0C11938.9,2105.5 11937.9,2110.0 11933.1,2133.5C11928.3,2157.2 11925.4,2167.4 11919.9,2180.7C11914.5,2193.6 11909.3,2209.8 11908.0,2217.4C11907.5,2220.8 11906.6,2230.3 11906.0,2238.6C11904.9,2256.3 11903.4,2261.6 11894.5,2281.5C11891.0,2289.2 11886.6,2299.5 11884.6,2304.3C11879.1,2318.0 11876.7,2321.5 11862.1,2336.3C11852.1,2346.5 11846.4,2351.4 11840.4,2355.0C11831.2,2360.6 11822.8,2369.0 11820.0,2375.4C11818.9,2377.8 11817.6,2382.6 11817.2,2386.1C11816.3,2392.7 11817.3,2514.1 11818.3,2515.7C11818.6,2516.1 11819.3,2526.2 11819.9,2538.0C11821.4,2565.3 11823.7,2595.8 11825.6,2612.5C11826.4,2619.7 11827.5,2635.7 11828.0,2648.0C11829.5,2683.0 11830.9,2694.0 11835.0,2702.0C11836.9,2705.7 11846.0,2714.8 11849.7,2716.9C11850.9,2717.5 11856.3,2721.6 11861.6,2726.0C11866.9,2730.4 11874.7,2736.1 11878.9,2738.7C11883.1,2741.3 11891.8,2746.7 11898.2,2750.7C11904.7,2754.7 11913.6,2759.8 11918.0,2762.0C11922.4,2764.2 11931.5,2769.5 11938.2,2773.7C11944.9,2777.8 11955.4,2783.7 11961.6,2786.6C11967.8,2789.5 11975.4,2793.5 11978.5,2795.4C11985.6,2800.0 11995.6,2805.0 12006.7,2809.6C12011.5,2811.6 12022.2,2816.7 12030.5,2821.0C12045.5,2828.8 12065.0,2836.3 12074.5,2837.9C12082.2,2839.2 12087.0,2839.1 12096.4,2837.5Z M12090.6,2554.9C12106.7,2549.9 12117.6,2541.7 12123.3,2530.1C12126.4,2523.7 12126.5,2523.3 12126.5,2509.5C12126.5,2495.6 12126.5,2495.4 12123.1,2488.5C12118.4,2478.8 12104.4,2464.8 12094.5,2459.9C12085.2,2455.3 12076.3,2455.1 12068.0,2459.2C12061.7,2462.3 12042.5,2477.5 12036.3,2484.2C12028.8,2492.4 12027.5,2496.0 12027.5,2508.0C12027.5,2517.9 12027.7,2519.0 12030.7,2525.1C12033.1,2529.9 12036.2,2533.8 12041.8,2539.1C12050.3,2547.3 12056.8,2551.2 12067.4,2554.6C12076.3,2557.5 12082.0,2557.6 12090.6,2554.9Z M12697.9,2555.9C12700.3,2555.4 12705.8,2553.6 12710.2,2551.9C12716.8,2549.3 12719.5,2547.5 12725.6,2541.8C12730.4,2537.2 12733.9,2532.8 12735.7,2529.1C12738.2,2524.1 12738.5,2522.4 12738.5,2513.5C12738.5,2503.8 12738.4,2503.3 12734.7,2496.3C12728.7,2485.1 12720.7,2478.1 12705.8,2471.1C12692.8,2464.9 12681.6,2461.0 12677.0,2461.0C12675.5,2461.0 12671.2,2461.9 12667.6,2463.0C12651.5,2468.0 12637.1,2489.8 12637.0,2509.1C12636.9,2536.5 12657.7,2556.8 12686.0,2556.9C12690.1,2556.9 12695.5,2556.5 12697.9,2555.9Z M12977.5,2305.0C12982.6,2303.1 12985.2,2301.1 12994.6,2291.6C13009.0,2277.2 13010.5,2274.2 13010.5,2260.0C13010.5,2249.9 13010.4,2249.3 13007.0,2243.3C13005.1,2239.8 12998.5,2231.7 12992.2,2225.1C12983.0,2215.3 12979.7,2212.5 12974.2,2209.8C12968.1,2206.8 12966.8,2206.5 12958.0,2206.5C12949.7,2206.5 12947.7,2206.9 12942.7,2209.2C12935.1,2212.8 12924.8,2222.7 12921.3,2229.9C12919.0,2234.6 12918.5,2237.1 12918.2,2245.6C12917.7,2257.8 12919.3,2264.2 12924.8,2271.6C12926.8,2274.4 12931.0,2280.3 12934.0,2284.6C12949.2,2306.5 12959.9,2311.5 12977.5,2305.0Z M11799.4,2304.0C11810.1,2300.6 11828.6,2284.8 11840.8,2268.5C11851.5,2254.2 11853.5,2249.6 11853.5,2239.0C11853.5,2229.3 11852.4,2226.6 11845.7,2219.2C11834.9,2207.5 11819.0,2200.0 11807.7,2201.4C11800.3,2202.4 11784.2,2208.0 11777.6,2212.1C11761.3,2221.9 11749.0,2242.0 11749.0,2258.4C11749.1,2273.9 11766.8,2300.4 11779.8,2304.4C11786.4,2306.4 11791.7,2306.3 11799.4,2304.0Z M11642.7,1958.5C11652.5,1955.4 11664.5,1948.1 11673.6,1939.6C11687.3,1927.0 11692.5,1915.8 11691.8,1901.0C11691.1,1886.7 11687.2,1881.8 11667.0,1869.5C11651.9,1860.4 11644.5,1857.8 11633.5,1857.7C11620.6,1857.7 11609.9,1861.7 11593.5,1872.5C11583.4,1879.2 11574.7,1888.2 11571.2,1895.7C11568.9,1900.7 11568.5,1902.8 11568.5,1910.5C11568.5,1918.3 11568.9,1920.2 11571.3,1925.1C11576.6,1936.0 11599.8,1954.6 11613.4,1958.9C11622.3,1961.8 11632.9,1961.6 11642.7,1958.5Z M13144.5,1953.7C13166.6,1946.1 13179.3,1934.9 13185.0,1918.0C13188.0,1909.2 13187.5,1898.9 13183.7,1890.7C13180.5,1883.6 13171.8,1874.3 13162.5,1868.0C13148.1,1858.3 13136.8,1854.4 13125.6,1855.3C13110.1,1856.5 13096.5,1863.7 13082.9,1877.7C13072.1,1888.8 13070.5,1892.2 13070.5,1904.0C13070.5,1913.1 13070.7,1914.0 13074.4,1921.4C13078.7,1930.2 13089.6,1942.5 13096.6,1946.6C13102.0,1949.8 13115.8,1954.8 13122.3,1956.0C13129.4,1957.2 13136.2,1956.5 13144.5,1953.7Z M11506.5,1598.3C11516.8,1595.2 11529.1,1586.9 11539.1,1576.3C11547.8,1567.2 11548.5,1565.4 11548.5,1552.5C11548.5,1542.3 11548.3,1541.1 11545.8,1536.9C11542.7,1531.7 11528.2,1517.5 11520.6,1512.4C11515.0,1508.6 11501.8,1504.0 11496.6,1504.0C11490.8,1504.0 11477.7,1507.9 11468.2,1512.5C11443.4,1524.4 11435.9,1543.9 11447.2,1567.7C11452.0,1578.0 11460.8,1586.3 11474.0,1592.8C11490.3,1600.9 11495.2,1601.7 11506.5,1598.3Z M13283.4,1593.0C13294.9,1589.3 13302.5,1584.4 13311.7,1574.7C13321.2,1564.7 13323.3,1560.0 13323.8,1548.0C13324.3,1534.5 13322.1,1528.9 13312.6,1519.5C13304.1,1511.2 13295.4,1505.9 13284.7,1502.5C13275.2,1499.4 13270.2,1499.4 13261.4,1502.1C13243.2,1507.7 13228.9,1518.4 13222.7,1530.9C13219.6,1537.2 13219.5,1538.0 13219.5,1549.5C13219.5,1561.5 13219.5,1561.5 13223.3,1568.7C13230.1,1581.4 13241.8,1590.4 13257.0,1594.4C13265.8,1596.7 13272.8,1596.4 13283.4,1593.0Z M13141.9,1231.5C13152.1,1228.2 13160.3,1222.7 13171.6,1211.5C13183.9,1199.2 13187.5,1192.2 13187.5,1180.0C13187.5,1168.0 13184.1,1161.1 13172.7,1150.3C13159.1,1137.5 13147.1,1132.4 13132.6,1133.2C13121.9,1133.9 13116.0,1136.3 13101.4,1145.8C13087.6,1154.9 13077.3,1165.1 13072.0,1175.0C13068.8,1180.9 13068.5,1182.3 13068.5,1189.5C13068.5,1196.4 13068.9,1198.1 13071.1,1202.0C13078.5,1214.5 13089.6,1223.4 13103.7,1228.1C13123.3,1234.6 13130.0,1235.2 13141.9,1231.5Z M11656.2,1228.5C11674.1,1224.4 11678.4,1222.5 11685.1,1216.3C11693.4,1208.6 11694.5,1205.6 11694.5,1191.5C11694.5,1180.5 11694.3,1179.1 11691.8,1174.0C11688.2,1166.6 11680.0,1158.9 11665.6,1149.1C11646.1,1135.8 11631.9,1132.9 11614.2,1138.5C11600.7,1142.8 11579.8,1159.6 11574.4,1170.6C11572.0,1175.6 11571.8,1176.8 11572.2,1185.8C11572.5,1194.2 11572.9,1196.2 11575.3,1200.2C11578.4,1205.5 11594.5,1221.0 11600.8,1224.7C11614.8,1233.0 11632.1,1234.2 11656.2,1228.5Z M11824.5,880.6C11832.1,877.2 11842.2,867.3 11846.0,859.7C11848.5,854.7 11849.0,852.5 11849.0,846.4C11849.0,837.6 11847.6,833.3 11840.0,817.5C11833.2,803.3 11828.9,798.1 11815.0,787.6C11799.1,775.6 11788.0,773.3 11775.5,779.5C11768.1,783.1 11759.7,792.3 11755.3,801.6C11752.1,808.3 11751.5,810.6 11751.2,818.1C11750.7,828.1 11751.3,830.5 11758.1,844.6C11764.3,857.6 11770.0,863.9 11783.8,872.7C11802.1,884.4 11812.1,886.3 11824.5,880.6Z M12969.4,874.0C12980.3,871.2 12988.3,866.7 12997.3,858.1C13003.2,852.4 13005.9,848.9 13008.8,843.2C13012.2,836.3 13012.5,834.9 13012.8,825.5C13013.4,810.8 13011.8,805.9 13003.4,797.0C12996.2,789.4 12989.9,785.7 12980.9,783.8C12976.1,782.8 12974.6,782.9 12968.5,784.8C12957.1,788.3 12946.1,796.4 12940.1,805.8C12938.5,808.4 12934.4,817.0 12930.9,825.0C12925.7,837.1 12924.6,840.7 12924.2,846.6C12923.9,850.8 12924.3,855.2 12925.0,857.4C12927.6,865.5 12936.3,872.1 12947.2,874.5C12956.0,876.4 12960.5,876.3 12969.4,874.0Z M12689.2,641.0C12702.1,637.0 12720.8,620.5 12725.0,609.3C12734.6,583.5 12719.3,556.3 12690.1,547.6C12679.9,544.6 12667.9,546.3 12657.8,552.3C12651.5,555.9 12642.7,565.7 12638.9,573.1C12636.0,578.8 12635.6,580.6 12635.2,589.5C12634.7,601.4 12636.3,606.7 12643.9,618.2C12651.5,629.7 12661.9,638.3 12672.3,641.5C12678.2,643.4 12681.8,643.3 12689.2,641.0Z M12085.9,635.1C12089.2,634.1 12093.9,632.1 12096.3,630.7C12103.1,626.7 12112.3,616.1 12116.7,607.3C12120.5,599.6 12120.5,599.6 12120.5,587.1C12120.5,575.2 12120.3,574.2 12117.6,569.1C12106.7,548.3 12081.2,537.4 12059.4,544.1C12045.0,548.6 12033.4,556.6 12028.7,565.5C12026.9,568.8 12026.5,571.2 12026.5,579.0C12026.5,587.3 12026.8,589.2 12029.2,594.0C12030.7,597.0 12034.0,602.0 12036.6,605.0C12039.1,608.0 12043.1,613.4 12045.4,617.0C12056.7,634.2 12069.8,640.1 12085.9,635.1Z" fill="#ff7a18"/></svg>