<svg xmlns="http://www.w3.org/2000/svg" fill="none" viewBox="249 258 16992 2588"><path fill="#fff" d="m384 2537 143-1c135 0 140-1 153-12 8-8 10-15 7-29l-1-40-2-94c-2-78-2-188 0-215l1-102c0-84 0-92 4-101q6-11 18-15c6-1 9-1 24 3 11 3 11 3 26 2 18-1 214 0 224 2 45 7 54 9 62 12q10 4 19 20l10 14q5 5 11 18 6 12 12 20c6 8 8 12 13 24l10 18 12 20 13 23 12 22 11 19 12 20a710 710 0 0 0 52 83 2121 2121 0 0 0 78 113l24 33 25 35 26 37 13 18c7 11 23 29 34 39q11 10 25 14c7 1 7 1 21-1s14-2 147-2l201-2 35 2c22 0 27 0 34-6q7-6 6-16-1-11-11-25l-12-17-12-18-12-20-13-20-12-17-22-33-26-36-34-48-25-35-25-36a1631 1631 0 0 1-82-116l-13-19-13-18-23-35-25-38-12-18-13-21-11-18-8-12c-19-33-18-32-19-39 0-8 1-11 8-17 6-6 28-21 34-23 22-8 28-11 37-16l22-12c6-2 16-8 22-12l34-22 15-11a486 486 0 0 0 126-147 770 770 0 0 0 68-167c16-58 21-143 15-229a541 541 0 0 0-91-274l-11-16-24-35-25-31a618 618 0 0 0-187-145l-17-9-25-13c-12-6-19-9-30-12l-29-10c-15-7-24-9-50-15l-31-8a755 755 0 0 0-269-22 49666 49666 0 0 0-779-1q-12 0-21 8c-9 9-9 8-10 70-1 235-1 279 1 283 1 5 10 13 16 15q10 3 116 1a48898 48898 0 0 1 700 1 402 402 0 0 1 138 24l24 9c14 5 20 8 28 13l17 10a133 133 0 0 1 32 22 340 340 0 0 1 47 53 283 283 0 0 1 49 165c-1 24-2 33-8 46l-16 40q-7 21-16 37l-12 22c-6 10-8 13-19 25a288 288 0 0 1-83 59q-9 6-19 10l-20 9c-26 11-42 16-80 22-53 10-62 10-168 11l-711 2q-12 4-17 13c-3 5-3 2-1 80 2 73 2 58 1 346l-1 369c0 119 0 121 2 126q4 11 14 17c7 5 10 5 35 5zm4606 0 385-2c169-1 155 0 163-8q7-4 7-15v-343q-6-10-19-15c-9-3-23-3-100-1-75 3-131 3-154 1l-214-1-521 2q-33 0-39-31l-2-169-1-191c0-4 7-11 13-14 4-2 4-2 109-3 128-1 225 0 254 1h484q18 1 26-6 8-6 10-16l2-121 1-204q-6-10-17-15l-158-1h-387c-559 2-600 2-632 1-58-3-70-2-91 5-10 3-13 4-18 9-7 6-8 10-9 26-2 40-3 422-2 663l1 424q6 18 26 23h304c42-1 64 0 82 1h52a1721 1721 0 0 1 120-1 4643 4643 0 0 1 212 0c25 3 25 3 41 2zm5717 0q11-5 17-14c2-4 6-18 9-33l7-27 27-92 24-78 22-69 20-55c6-16 9-25 13-42l9-26 10-30 30-95 46-146a2103 2103 0 0 1 41-132l26-83 19-60 29-98 24-77a555 555 0 0 0 21-66 544 544 0 0 0 24-76l13-42a558 558 0 0 1 25-82l14-45 8-24 14-44 11-34 12-36 12-38 16-48 10-27a596 596 0 0 1 24-72l12-36c11-29 19-54 19-63q1-16-17-21l-177 1h-115c-70-1-70-1-77 1-6 2-7 3-13 9l-10 13a742 742 0 0 0-28 84 1911 1911 0 0 0-37 123l-48 147a1861 1861 0 0 0-46 145c-7 22-10 30-15 51a677 677 0 0 1-25 82l-22 67c-9 29-25 81-46 142a1137 1137 0 0 0-39 128l-24 81-10 32a1436 1436 0 0 1-43 142q-9 16-23 16-21-6-36-56l-10-29a614 614 0 0 0-23-78l-24-81-11-41-12-42a675 675 0 0 1-25-88l-11-35-11-38-12-42-20-63-22-65-17-53-22-67-24-79c-7-24-21-65-29-86-7-20-15-42-25-76l-31-103a1691 1691 0 0 0-35-118q-7-14-19-20c-9-4-15-5-47-4l-304 3c-10 3-21 12-25 23a529 529 0 0 0-35 103l-13 44-16 53c-4 9-8 25-11 35l-26 84-25 84-24 82a692 692 0 0 1-23 76 848 848 0 0 1-26 83 446 446 0 0 1-20 57l-14 42a721 721 0 0 0-24 75l-8 24c-10 34-12 43-17 56l-11 34-11 38-15 50-11 35-24 78c-5 13-10 30-12 42q-8 33-13 43t-13 14q-18 9-34-23c-8-14-9-18-14-40l-11-39-20-70c-10-27-12-33-17-54a580 580 0 0 0-22-74l-14-48-11-39a704 704 0 0 0-22-78l-21-68a668 668 0 0 0-33-98l-21-66-38-119a575 575 0 0 1-22-72l-25-81-24-79-34-113c-6-22-24-76-28-82q-5-9-16-13c-6-2-13-2-174-1a5551 5551 0 0 1-230 1q-12 4-17 13l-1 10c1 8 10 37 17 58l9 26a1972 1972 0 0 0 49 142l22 72 16 52 12 35 7 23 12 36 36 105 12 34 31 91 50 148 12 38 26 83 9 30 12 43 20 67a753 753 0 0 0 24 78l9 26 26 75 28 84a3250 3250 0 0 1 65 191l9 27a873 873 0 0 0 30 93 2361 2361 0 0 0 57 161l8 24c6 18 10 25 18 33 14 12 1 11 134 11h184c69-1 69-1 77-3q22-7 30-29 7-16 18-57l13-44 10-36 20-65 11-35 26-80c11-34 17-56 28-96a4006 4006 0 0 1 76-239l30-95 12-39a12741 12741 0 0 0 116-376c5-14 16-22 25-21q8 3 14 10c2 3 6 18 18 62l17 59 16 47 31 96 18 61q9 22 14 45a1133 1133 0 0 0 47 162c4 17 20 65 27 83l23 65 106 338a367 367 0 0 0 19 52l31 94c4 15 8 22 15 30q12 12 27 11l273 1c97 1 105 1 111-1m5196 0q10-5 16-14 3-9 5-240c0-139 0-176-4-212-3-38-3-44 3-57 7-13 28-40 49-62l14-16a1137 1137 0 0 1 70-76l24-25a743 743 0 0 0 65-70q7-4 15 1 8 3 17 19l12 17q8 9 17 25l10 14 24 35 11 13 28 37 21 27 22 29 15 18a1181 1181 0 0 1 59 79l11 15 14 19 24 35 24 35 23 32 28 37 11 16 59 80a1797 1797 0 0 0 71 99l19 26 19 23q22 27 30 31c11 4 16 5 53 6 71 3 328 2 407-1 33-2 35-2 41-8q7-6 6-14c-1-11-5-18-36-52l-14-16-21-28a651 651 0 0 0-48-62l-38-48-10-14-63-81-9-12-28-37-24-33-10-14-13-18-48-65-21-27-44-58-13-18-56-73-30-39-15-19a1176 1176 0 0 1-74-99l-35-45-23-30-11-15-27-36-22-29-11-14-30-40c-9-11-10-13-10-22s0-11 13-28c10-13 18-22 38-43l36-40 14-17 14-16 47-53 47-53 55-60 49-53 103-110a1448 1448 0 0 0 78-90l25-28 12-14 48-55 52-59a555 555 0 0 0 46-51c29-31 36-40 37-49q1-8-6-15c-9-7-4-6-118-6l-286 2c-71-1-64-3-95 24a885 885 0 0 0-132 147l-14 16a1607 1607 0 0 1-79 87l-28 30a540 540 0 0 0-59 66l-47 52-45 50-54 62-16 19-19 21-24 28-22 24-55 57a936 936 0 0 0-80 88l-41 42q-8 4-11 3-8-2-15-10c-2-3-2-3-2-30l1-34c3-17 5-268 4-486 0-231 0-232-5-242-4-9-16-15-26-15l-49 1-179 1c-130 0-134 0-140 2q-6 2-11 6c-8 7-7-14-8 216v512c2 474 1 1078-1 1125 0 23 0 25 8 33s14 10 26 9c21-2 33-2 48-1 24 3 34 3 167 4zm-12169-2q9-1 13-3c6-2 15-10 18-15 1-4 2-21 2-549l1-720-3-610q-5-9-17-14h-21l-92 2c-272 1-262 1-268 2q-10 4-15 11c-6 8-6-1-6 168v351c1 198 1 198-2 203q-6 14-23 18l-89 1-271-1c-359-1-404-2-419-8q-11-5-17-13c-4-8-4-9-3-139V643l-6-10q-10-9-24-7l-181 1-182 1q-22 4-27 18c-1 6-2 77-1 130a56401 56401 0 0 1 0 990l-1 157 2 159a9698 9698 0 0 1-1 412q-3 13 0 21 6 10 20 16a5217 5217 0 0 0 381-1q9-4 13-11l5-24 2-298 3-431q6-8 17-12c6-2 8-2 61-3l326-3h365c30 0 30 0 35 2q12 7 17 18c2 6 2 413 1 570-2 172-2 162 1 171q5 17 23 24a11325 11325 0 0 0 363 2m4458 1c6-2 15-10 17-16l3-14c1-16 2-240 1-468-2-236-2-218-1-665a25561 25561 0 0 0-4-726q-5-13-20-19c-6-2 0-2-114 0a2376 2376 0 0 1-196-1c-54 0-56 0-62 2q-15 5-19 18-3 11-1 37c3 18 4 172 2 246-2 70-2 222 0 321a27925 27925 0 0 1 0 508q-7 8-15 9-5 1-10-2c-7-4-18-15-22-23l-8-13-10-16-13-19-15-20-11-15-11-15-11-14-12-17-27-35-10-13-11-14-11-15-24-33-26-33-23-28-11-15-14-18-33-41-63-80-37-48-10-14-11-14-24-31-13-16-26-34-10-13-11-16-13-17-26-36-10-14-24-31-24-29-26-31-12-15-12-14-10-14-31-40-43-57a1078 1078 0 0 0-60-79l-20-26-13-15c-13-17-35-43-41-48q-10-8-22-12h-17a7682 7682 0 0 1-312 3q-12 4-17 14c-3 6-4 24-2 45 3 26 4 81 5 190 0 98 0 101-2 120-3 24-4 71-2 102l2 41 2 41a2209 2209 0 0 1-2 176l-3 31c0 18 1 105 3 130a3074 3074 0 0 1 0 222v61c-1 36-1 61 1 129a6942 6942 0 0 1 0 332l1 126c1 95 1 95-2 105-5 18-4 27 6 35 8 7 7 7 66 6h84a5974 5974 0 0 0 220 0q16 2 25-6c6-6 8-10 9-23a66047 66047 0 0 0 3-1050c0-27 0-28 2-31 5-8 15-11 22-9q9 4 18 16l11 15 22 27 13 16 13 17c4 3 9 11 13 16l13 16q7 6 11 13l11 13 24 30 12 15 35 45 14 18 12 15 11 14 37 51 11 14 11 14 26 35 25 31 11 14 12 15 33 40 25 30 37 48 12 14 10 13 11 14 12 16 13 17 13 18a593 593 0 0 1 44 59l28 37 12 15 11 14 24 30 26 33 25 31 11 14 11 14 11 14 15 21 20 28 40 55c11 18 44 58 55 69q10 8 24 12 13 3 189 5l123 1zm5800 0h55c19 2 24 0 31-7 7-6 7-10 7-29l2-549q6-15 24-19c7-1 9-1 26 1h34c20-1 215 0 233 1 38 3 53 12 73 47l10 16 7 11 7 15 10 18 12 20 13 23 12 20 10 17 25 41 25 41 16 23 24 36 20 29 69 104 48 73 26 40q9 15 19 20c13 6 8 5 127 6 97 1 282 0 314-1q17-1 24-7t6-16c0-5-2-8-7-17l-13-21-13-18-25-37-12-18-77-109-14-20-52-73a2288 2288 0 0 1-86-129l-23-36-11-16-12-19-26-38-12-19a268 268 0 0 1-25-39c-9-14-12-21-13-29q0-8 2-11 6-7 19-13l21-10 18-9q14-5 28-15l19-11 18-11 19-14a630 630 0 0 0 134-140q24-31 50-93l23-67a518 518 0 0 0 13-66 757 757 0 0 0-46-420 263 263 0 0 0-26-48l-27-38-10-13-22-28-16-18c-19-22-59-58-84-76l-18-13-18-12-36-21-23-12a844 844 0 0 0-373-86h-85a63598 63598 0 0 0-750-2c-15 0-21 1-28 9l-7 10c-1 5-2 39-2 233l1 109q6 17 26 20l18-1c10-2 18-2 43-2h355c328-1 338-1 413 2a347 347 0 0 1 230 90 279 279 0 0 1 59 96c11 35 14 52 14 88s-2 53-12 84l-9 29q-2 12-15 31l-11 18a269 269 0 0 1-97 87c-9 6-15 9-30 15l-18 8c-18 9-65 19-107 24l-549 3h-268c-17-1-22 0-29 7l-7 10-2 83-1 278-2 377c0 201-1 183 8 193 8 7 13 9 32 8l225 2zm-7857-2c54-1 53 0 63-10l7-11 2-74a63980 63980 0 0 0 0-790l-1-1008q-5-10-17-14c-6-1-8-2-39-1l-183 2c-162 0-163 0-168 2-5 3-12 10-13 15-2 6-2 20 0 113a2948 2948 0 0 1-3 276l1 79c3 86 4 176 1 230a18945 18945 0 0 1 2 576l-1 574c-3 10-3 22 0 26 5 9 15 12 40 13a8742 8742 0 0 0 309 2M4614 1005a32811 32811 0 0 0 605-3l166-1c31-1 72 0 88 2 10 1 22-5 26-14 5-9 5-20 5-191 0-159 0-159-3-164q-6-12-17-15c-8-3-13-2-30 2-13 3-18 3-37 4a99914 99914 0 0 0-1207 0c-101 1-101 1-108 3q-13 5-19 15l-2 168v167q1 9 11 17 9 9 25 10z"/><path fill="#ff7a18" d="M12692 2839q19-3 46-19l20-9c12-4 18-7 30-15l17-10 22-12 22-13 19-11 22-13c29-17 41-26 45-35q6-9 8-67l2-34a4947 4947 0 0 0 0-221q-5-10-21-21a138 138 0 0 1-51-64c-5-12-8-21-12-38l-8-29a457 457 0 0 1-17-59c-6-21-10-36-13-57l-11-69-20-87c-4-23-8-32-16-41q-7-9-25-14-12-4-16-9-9-8-10-20-1-13 7-19c8-7 11-7 51-7 38 0 41 0 49 6s10 10 14 27l7 29a533 533 0 0 1 17 86l10 53a711 711 0 0 1 15 93q3 9 14 15c6 3 11 2 25-4 18-9 26-10 40-5 3 1 16 6 29 13 23 11 23 11 38 26 14 14 15 15 20 25l9 21c3 9 3 10 4 23 0 16-1 21-9 43-8 21-10 25-20 36q-22 24-25 31c-2 6-2 6-3 48a5062 5062 0 0 1-7 209c-2 37-2 39 6 45 10 9 17 8 37-5l28-16 25-14 23-17c20-12 29-19 40-29l17-14c11-9 27-25 38-41l12-16c8-11 11-17 17-35l9-24 12-39c4-20 6-27 12-45l9-28c3-16 9-29 19-48 11-21 13-24 20-32l13-19 19-26c17-20 22-27 28-37l11-18c11-16 25-45 29-63 5-16 9-39 12-58 2-17 4-30 9-48l5-23c0-7 2-18 4-24l4-27c0-10 2-23 3-29q5-19 0-24c-4-7-15-12-22-10l-18 8c-13 6-16 8-34 12-15 4-23 6-35 12l-34 12c-21 6-46 15-56 20-11 5-16 10-23 25-8 14-14 22-28 35-13 13-37 27-54 33-8 2-9 2-30 2-22 0-22 0-32-3q-10-3-25-12-29-17-43-37l-13-16q-12-16-16-36c-3-14-4-23-1-35q3-19-2-30l-9-13c-4-4-9-13-12-18-9-17-24-37-32-46-7-6-9-7-16-9-7-3-7-3-87-2l-156 3c-60 0-59 0-67 8-7 7-8 11-8 27l2 33c2 38 3 217 2 240-1 22 0 37 3 53s6 22 18 43q7 13 13 37l11 32c3 5 7 16 9 25l7 21c10 26 13 35 21 77l8 32q7 19 31 33l16 11c6 6 18 24 24 36 14 26 9 64-12 99-9 15-26 31-42 39a95 95 0 0 1-71 4c-13-5-31-15-41-25-6-5-19-22-26-32q-11-16-11-44 0-27 10-44c14-22 25-34 38-44l11-11q11-10 10-25c0-10-2-18-11-40l-9-23c-5-19-8-29-15-40-5-11-9-22-14-41l-9-19-11-27-10-25q-14-30-19-48c-7-23-7-12-8-191 0-99-1-171-2-185-2-32 0-39 11-47 9-6 0-6 167-7 260-2 235-2 245 1l12 6a202 202 0 0 1 46 58l13 22q8 17 19 22c5 2 7 3 15 2 7 0 10 0 20-4 11-3 12-3 24-3 10 0 15 0 25 2 20 5 26 7 41 17l17 10q9 5 19 14 17 17 29 17c5 0 8 0 42-12l56-17c20-5 30-8 52-16l27-9c18-5 25-8 37-14l18-9 16-7c11-5 38-30 44-39 8-14 19-57 22-87 5-45 7-140 5-182-2-33-4-46-14-68l-8-18q-9-20-22-41c-6-10-9-13-19-22-13-11-41-30-53-36l-21-8-24-10q-18-7-36-10l-59-12-52-8q-11-1-22 4l-33 23c-8 7-13 9-29 16l-21 8c-13 6-20 7-31 7-9-1-12-1-25-5-16-6-19-6-29-1-8 4-20 17-28 29l-13 19-13 20c-7 15-23 39-29 44q-6 7-21 10c-12 3-62 4-237 3-152 0-152 0-160-3q-15-3-20-16c-5-9-5-16-4-92l2-144q2-145 4-162 5-35 20-60c6-9 8-14 13-28q3-12 11-27l10-23c5-17 7-24 12-32 10-19 12-24 16-43 3-12 5-18 13-31 9-16 12-24 13-34l-1-11q-4-7-21-19c-14-11-21-18-31-33-17-25-19-31-19-56 0-15 0-18 2-26a140 140 0 0 1 44-65c14-10 21-15 32-18 9-3 10-3 28-3 20 0 26 1 38 6 8 4 27 18 35 25 7 8 10 13 17 31 8 22 8 24 8 43 0 18-1 24-8 41-9 24-13 30-33 51l-17 19q-5 8-7 24c-2 13-3 19-9 32l-12 30-12 33-17 47-8 22-11 27q-4 15-11 29c-7 14-11 25-16 42-2 10-2 13-3 57l-5 147-2 85c-2 38-2 47 0 51l7 7c9 8-3 7 156 8 112 1 142 0 147-1q11-1 23-10a266 266 0 0 0 51-60l10-13c2-5 3-6 3-16-1-9-1-12-4-21-3-12-4-18-1-31 3-17 9-31 24-54 11-17 16-22 43-43q24-17 67-14c30 2 42 6 59 19l11 8c8 4 25 25 36 42q11 18 24 23l24 5 81 16 58 18c14 5 19 4 27-3 6-5 7-8 7-19a520 520 0 0 0-13-114q-9-33-14-61c-4-17-4-17-15-40-11-24-12-25-23-39l-14-18c-9-13-48-60-56-69l-27-38q-4-9-9-31c-4-18-5-23-10-34-5-13-9-24-13-43q-7-27-16-47l-7-21c-5-13-8-19-17-34-17-28-19-31-43-52a511 511 0 0 0-96-75l-16-12-21-12-20-11c-7-2-7-2-12-1q-10 4-15 12c-2 4-2 18 0 34l5 75c3 63 3 85 3 122 1 48 0 45 23 69q13 12 16 17l15 40q3 9 2 22c0 15-1 20-7 35-8 20-11 24-24 37l-17 14-46 20q-14 3-34 1c-10-2-13-2-17-1q-17 5-25 24c-5 14-11 35-14 54q-3 19-9 36c-7 23-10 37-15 68a883 883 0 0 1-34 125c-6 5-8 6-14 8-7 2-9 3-41 3-39 0-42-1-50-8q-8-7-8-18c0-11 1-15 8-22 7-6 7-6 21-10 8-3 17-6 19-8 6-3 14-12 17-18a443 443 0 0 0 21-82q7-23 15-74c3-21 3-23 12-57l11-39 8-24 8-22a1037 1037 0 0 1 24-88c11-22 16-28 31-37 17-9 19-11 26-17l9-11c3-6 3-4 1-83a2057 2057 0 0 0-8-165c-3-40-6-48-23-67a317 317 0 0 0-51-40 516 516 0 0 1-58-33l-18-10a972 972 0 0 0-83-38c-15-9-24-12-36-12s-19 2-37 12l-42 20-55 29-34 22-17 13c-11 7-17 12-28 23-16 15-22 24-24 39l-1 34-1 56-2 475-2 511q6 9 16 14c7 1 191 3 490 3 210-1 210-1 216-3q10-5 28-26c9-11 15-16 37-26 27-14 36-16 58-16 19 0 26 2 53 17q12 6 28 25c9 12 13 17 15 26 5 12 5 19 5 34l-3 24c-5 16-9 24-22 39-14 15-17 18-30 24q-48 22-84 12l-22-10c-11-5-14-7-21-14l-17-17c-9-11-14-15-24-18-7-2 6-2-156 2a16458 16458 0 0 1-546 3q-12 5-17 15c-2 4-2 23-2 303 0 520 1 621 4 732 1 33 2 37 10 50a326 326 0 0 0 98 81l21 12 19 11 74 37q18 7 33 4m-596-1c13-3 38-11 48-17l44-21 18-11a682 682 0 0 0 96-74q14-10 19-27c3-11 3-16 4-49 4-123 4-156 3-431l-2-598-6-10c-9-8-10-8-61-8h-640c-12 0-13 0-19 3s-9 6-22 19c-16 17-18 19-41 32q-25 14-54 11c-26-3-57-21-76-44-7-10-16-27-19-38-2-7-2-10-2-22 1-12 1-15 4-23 7-20 13-30 30-46 13-13 17-16 31-23a95 95 0 0 1 98 3c15 7 15 7 36 29 19 19 21 21 26 22a15319 15319 0 0 0 698 0q12-3 17-13c1-3 2-44 1-492 0-564 0-583-2-591-4-12-9-19-24-35-15-15-30-27-55-44l-19-14a380 380 0 0 0-87-48c-27-13-33-15-48-15-10 0-12 0-21 3l-47 22-53 27-25 13-40 24-20 11-35 22q-16 11-23 23-5 10-7 33l-2 17a733 733 0 0 0-1 193l2 51q3 18 29 38 19 15 29 29c7 11 22 39 24 48 3 12 7 35 8 55 1 23 3 33 7 47 5 15 7 20 10 44a1095 1095 0 0 0 33 139l6 20 5 25c2 17 4 23 9 29 6 6 11 8 26 10 16 1 21 4 28 11 6 7 8 12 9 24l-1 13q-4 11-18 15c-6 2-8 2-39 2-44-1-52-3-64-14-13-13-14-16-15-51-1-25-1-29-4-43l-7-31c-6-21-9-33-13-55-3-21-6-29-11-44l-9-31c-7-27-8-30-14-37q-6-5-13-7c-6-2-8-2-16-1-22 2-27 1-52-12-21-11-26-14-41-30a91 91 0 0 1-20-26c-9-15-10-18-12-30q-3-14-1-30c2-18 4-22 16-41 7-13 12-18 20-24 6-4 14-12 16-17 4-7 4-10 5-79 0-60 1-128 3-177 0-20 0-22-7-28q-11-9-21-7c-8 2-12 5-20 11-8 7-10 9-22 15-10 6-29 19-41 29l-21 16-23 17-41 35c-13 11-27 38-34 61q-5 21-15 44l-10 32a380 380 0 0 1-21 62 225 225 0 0 1-21 54c-6 13-9 17-18 29l-11 15c-6 10-12 17-29 34a219 219 0 0 0-31 40l-10 15c-21 34-23 38-29 60-2 8-6 20-9 25a487 487 0 0 0-18 99l-4 30c-2 20-3 38-1 43s10 11 16 13c6 1 10 1 20-3 16-6 21-7 36-10l30-6c23-6 51-11 71-13 29-2 39-9 51-37l8-16q10-14 32-28l17-11a124 124 0 0 1 94-6l26 14a197 197 0 0 1 38 36c5 7 15 30 19 41 3 11 4 28 2 41q-3 17 0 27c3 7 10 20 18 28l11 15c7 11 34 37 43 43l16 8 222 2c69-1 66 0 74-7q7-7 9-23l2-139c1-187 1-173-2-183q-4-15-15-40l-11-31-12-31-11-27-11-28-12-29-13-33c-10-22-12-28-16-47-3-17-5-23-9-30-3-7-13-18-21-23-6-4-20-18-27-27q-9-11-15-32c-7-25-4-58 7-77 5-8 21-25 29-30q15-10 30-15c9-3 31-4 44-2 15 2 23 5 38 14s20 13 32 30c14 19 17 29 17 59 0 29-3 35-20 58-11 15-16 21-24 27-9 6-19 16-20 21l-1 13c1 7 1 9 7 21l9 23 12 27 12 27q6 17 16 33l11 23 10 21c6 11 8 15 12 28 4 11 5 14 14 30q8 13 12 31c2 15 3 57 4 221 1 163 1 164 3 171q5 17 2 27l-7 10c-10 10 10 9-202 9l-195-1q-28-3-42-18c-8-8-21-25-25-32l-25-39-26-31q-6-5-13-7c-8-2-12-2-28 4-16 5-20 5-35 4l-20-4c-10-3-35-12-42-16l-21-19c-15-14-16-15-23-17-6-2-8-2-14-1l-19 5q-12 4-23 5l-73 10c-20 3-29 5-44 11l-25 9c-17 5-22 8-33 16q-31 24-51 49c-6 8-25 48-29 58l-7 40c-5 30-5 42-5 101 0 56 1 78 5 113l3 26c2 24 6 34 18 53 8 12 38 43 45 48l17 9 16 10 47 19c11 5 18 7 44 13a795 795 0 0 1 118 27c10-1 16-4 27-14 8-8 10-10 23-16l22-12q21-13 49-12c13 0 14 0 29 4l20 5q17 0 30-20l10-14 10-15 11-18 11-18q10-21 31-27c8-2 8-2 89-3h334q13 4 18 15c3 5 3 19 0 34-2 10-2 13-3 156l-1 150-3 27c-2 36-5 50-14 63-8 12-10 16-14 27l-12 22-12 23-12 25c-4 7-8 17-9 22-7 20-9 28-16 41q-6 14-11 33l-13 37q-7 14-4 26c2 6 13 18 25 25 10 6 18 13 31 29 15 17 23 42 22 64q-1 15-9 33a117 117 0 0 1-54 57 91 91 0 0 1-89-3c-16-8-19-11-34-27a82 82 0 0 1-23-36c-2-8-2-10-2-23s0-17 2-24c3-12 7-19 14-29l12-17q9-14 23-23c19-11 27-23 29-48q3-29 10-44l8-27q4-16 9-27c6-15 8-18 15-41l14-44 10-27c4-14 7-20 12-28 4-6 10-17 11-24 5-16 5-26 4-64l3-242c2-25 1-30-5-37l-9-6c-4-2-4-2-96-2l-149 1c-63 0-65 0-74 6-6 3-22 19-28 28l-14 19q-16 22-21 41c-2 6-2 11-2 24 0 19-1 25-8 45-7 19-12 27-25 44a98 98 0 0 1-21 20c-10 7-35 20-42 23-16 5-42 5-61-1-7-3-32-14-40-20l-31-26q-8-9-21-34-10-19-22-24c-7-2-9-3-32-6q-35-6-67-15l-28-8-23-9c-18-7-23-7-30-2-10 6-11 12-6 33a749 749 0 0 1 16 86l5 26 6 22 6 30c4 23 14 61 20 77 8 19 11 25 22 38l21 26q10 16 22 27l20 25c11 17 14 25 17 37 5 20 6 26 11 36 5 11 7 16 16 51 2 9 7 23 11 32l9 28c4 21 6 25 14 38l9 14q8 15 17 27l11 12a348 348 0 0 0 57 51 496 496 0 0 0 63 48l19 13 21 13q20 17 31 12c5-2 12-9 14-13 2-5 2-56 1-163v-96c2-33 0-37-31-64-7-6-8-7-13-19q-12-24-15-42-2-8-2-24c1-15 1-17 3-23 3-7 12-21 18-28 4-5 24-22 31-27 4-3 36-18 47-21q17-6 35 0c14 4 15 4 21 3q12-4 17-17c7-14 17-57 22-97l8-44c4-22 4-22 4-55l2-42c6-26 12-38 25-44 10-5 17-6 38-7l28-2c17-2 25-1 32 6q9 8 8 21-1 15-13 25c-5 5-7 6-17 10q-12 3-16 8c-9 8-12 15-15 36l-2 17c-7 24-9 34-12 51a636 636 0 0 1-25 116c-5 23-8 33-13 47-5 13-11 29-12 36l-2 22c-1 17-3 23-11 43l-10 22c-6 14-8 18-23 32q-14 15-22 19-15 10-20 20l-3 11a2881 2881 0 0 0 3 152l8 110c2 35 3 46 7 54 2 4 11 13 15 15l12 9a191 191 0 0 0 36 25l20 11 20 12 41 21q11 8 28 15l24 11c15 8 34 15 44 17zm-5-283q24-7 32-25c3-6 4-7 4-20 0-14 0-15-4-21-5-10-19-24-28-29q-15-7-27-1c-6 3-25 19-32 25-7 8-8 12-8 24 0 10 0 11 3 17q3 7 11 14 11 11 25 16 12 4 24 0m607 1 12-4q9-3 16-10l10-13c2-5 3-7 3-15 0-10-1-11-4-18q-8-15-29-25t-29-10l-9 2c-16 5-31 27-31 46 0 28 21 48 49 48zm280-251c5-2 7-4 17-13 14-15 16-18 16-32 0-10-1-11-4-17l-15-18c-9-10-12-12-18-15s-7-3-16-3c-8 0-10 0-15 2-8 4-18 14-22 21-2 5-2 7-3 16 0 12 1 18 7 26l9 13c15 22 26 27 44 20m-1179-1c11-3 30-19 42-35 11-15 13-19 13-30 0-10-2-12-8-20-11-11-27-19-38-18-8 1-24 7-30 11a60 60 0 0 0-29 46c0 16 18 42 31 46q9 3 19 0m-156-345q16-6 31-19 20-18 18-39c-1-14-5-19-25-31-15-10-22-12-33-12q-18-1-40 15-17 10-23 23c-2 5-2 7-2 15 0 7 0 9 2 14 6 11 29 30 42 34q14 5 30 0m1502-5q32-11 40-36 5-14-1-27-6-12-21-23-21-15-37-13-23 2-43 23c-11 11-12 14-12 26 0 9 0 10 3 17 5 9 16 22 23 26 5 3 19 8 25 9q10 2 23-2m-1638-356q16-5 32-22c9-9 10-11 10-23 0-11-1-12-3-16-3-5-18-19-25-25-6-3-19-8-24-8-6 0-19 4-29 9q-37 18-21 55 8 15 27 25c16 8 21 9 33 5m1776-5q17-5 29-18c9-10 11-15 12-27 0-13-2-19-11-28q-13-13-28-17c-10-4-15-4-24-1q-28 9-38 29c-3 6-3 7-3 19s0 12 3 19q11 19 34 25 12 4 26-1m-141-361q13-5 30-20c12-13 16-20 16-32s-4-19-15-30q-20-18-40-17c-11 1-17 3-32 13q-21 14-29 29c-3 6-3 7-3 15q0 8 2 12 12 19 33 26c19 7 26 7 38 4m-1486-3c18-5 22-6 29-13 8-7 10-10 10-24 0-11-1-13-3-18q-6-10-26-25c-20-13-34-16-52-10-13 4-34 21-40 32-2 5-2 6-2 15 1 8 1 10 3 14 3 6 20 21 26 25q20 12 55 4m169-348c7-4 17-14 21-21 3-5 3-7 3-14 0-8-1-13-9-28-7-15-11-20-25-30q-22-18-39-8-13 6-21 22-4 7-4 16c0 10 0 13 7 27 6 13 12 19 26 28 18 11 28 13 41 8m1144-7q15-3 28-16 8-7 12-15c3-7 4-8 4-17 0-15-1-20-10-29q-10-11-22-13c-5-1-6-1-12 1q-19 5-29 21l-9 19c-5 12-6 16-7 22l1 10q5 13 22 18 12 2 22-1m-280-233c13-4 32-20 36-32 10-25-6-53-35-61q-16-5-32 4c-6 4-15 14-19 21-3 6-3 8-4 17 0 11 1 17 9 28q12 18 28 24 8 2 17-1m-603-6 10-4c7-4 16-15 21-24 4-7 4-7 4-20 0-12-1-13-3-18a51 51 0 0 0-59-25q-23 8-30 22-2 3-2 13c0 8 0 10 2 15l8 11 8 12q17 26 41 18"/></svg>