<svg xmlns="http://www.w3.org/2000/svg" viewBox="0 0 1200 500" role="img" aria-label="Image file being compressed into modern web formats">
  <defs>
    <linearGradient id="bg" x1="0" y1="0" x2="0" y2="1">
      <stop offset="0" stop-color="#15110b"/>
      <stop offset="1" stop-color="#0b0b0d"/>
    </linearGradient>
    <radialGradient id="glow" cx="50%" cy="2%" r="75%">
      <stop offset="0" stop-color="#ff7a18" stop-opacity=".20"/>
      <stop offset="55%" stop-color="#ff7a18" stop-opacity="0"/>
    </radialGradient>
    <linearGradient id="server" x1="0" y1="0" x2="0" y2="1">
      <stop offset="0" stop-color="#241a0c"/>
      <stop offset="1" stop-color="#140f0a"/>
    </linearGradient>
    <linearGradient id="pic" x1="0" y1="0" x2="1" y2="1">
      <stop offset="0" stop-color="#2a2030"/>
      <stop offset="1" stop-color="#171318"/>
    </linearGradient>
    <filter id="soft" x="-40%" y="-40%" width="180%" height="180%">
      <feGaussianBlur stdDeviation="7"/>
    </filter>
    <style>
      .pulse{animation:pulse 3.2s ease-in-out infinite}
      .pulse2{animation:pulse 3.2s ease-in-out infinite;animation-delay:1.1s}
      @keyframes pulse{0%,100%{opacity:.45}50%{opacity:1}}
    </style>
  </defs>

  <!-- background -->
  <rect width="1200" height="500" fill="url(#bg)"/>
  <!-- faint brand columns -->
  <g fill="#ffffff" opacity="0.018">
    <rect x="70"  y="-20" width="120" height="540" rx="60"/>
    <rect x="320" y="-20" width="150" height="540" rx="75"/>
    <rect x="600" y="-20" width="120" height="540" rx="60"/>
    <rect x="860" y="-20" width="150" height="540" rx="75"/>
    <rect x="1110" y="-20" width="120" height="540" rx="60"/>
  </g>
  <rect width="1200" height="500" fill="url(#glow)"/>

  <!-- connection paths -->
  <g fill="none" stroke="#ff7a18" stroke-opacity=".35" stroke-width="2.5">
    <path id="p0" d="M362 250 H512"/>
    <path id="p1" d="M690 250 H912"/>
  </g>
  <g fill="#ff9a3c">
    <circle r="5"><animateMotion dur="1.6s" repeatCount="indefinite"><mpath href="#p0"/></animateMotion></circle>
    <circle r="5"><animateMotion dur="1.8s" begin="0.6s" repeatCount="indefinite"><mpath href="#p1"/></animateMotion></circle>
  </g>

  <!-- heavy source image (large file) -->
  <g>
    <rect x="112" y="160" width="250" height="180" rx="16" fill="url(#pic)" stroke="#ffffff" stroke-opacity=".14"/>
    <circle cx="170" cy="208" r="18" fill="#ff9a3c" opacity=".55"/>
    <path d="M132 320 L196 252 L240 296 L284 250 L342 320 Z" fill="#ffffff" opacity=".12"/>
    <text x="237" y="360" text-anchor="middle" font-family="Inter,Segoe UI,sans-serif" font-size="17" fill="#ffffff" opacity=".4">JPG / PNG  4.2 MB</text>
  </g>

  <!-- compression engine with gear -->
  <g>
    <rect x="512" y="150" width="178" height="200" rx="20" fill="url(#server)" stroke="#ff7a18" stroke-opacity=".7" stroke-width="2.5"/>
    <rect x="512" y="150" width="178" height="200" rx="20" fill="none" stroke="#ff7a18" stroke-opacity=".25" stroke-width="10" filter="url(#soft)"/>
    <!-- gear (compression processing) -->
    <g transform="translate(601,238)" stroke="#ff9a3c" stroke-width="3" fill="none">
      <circle r="26"/>
      <circle r="9" fill="#ff9a3c" stroke="none"/>
      <g stroke-linecap="round">
        <path d="M0 -38 V -28"/><path d="M0 38 V 28"/><path d="M-38 0 H -28"/><path d="M38 0 H 28"/>
        <path d="M-27 -27 L -20 -20"/><path d="M27 27 L 20 20"/><path d="M-27 27 L -20 20"/><path d="M27 -27 L 20 -20"/>
      </g>
    </g>
    <text x="601" y="322" text-anchor="middle" font-family="Inter,Segoe UI,sans-serif" font-size="15" fill="#ff9a3c" opacity=".85">Compress</text>
  </g>

  <!-- modern format badges (light, fast) -->
  <g>
    <rect x="912" y="172" width="176" height="156" rx="16" fill="#16161a" stroke="#ffffff" stroke-opacity=".16"/>
    <g font-family="Inter,Segoe UI,sans-serif" font-weight="700" text-anchor="middle">
      <rect class="pulse"  x="936" y="196" width="128" height="34" rx="17" fill="#ff7a18" opacity=".7"/>
      <text x="1000" y="219" font-size="16" fill="#0b0b0d">WebP</text>
      <rect class="pulse2" x="936" y="242" width="128" height="34" rx="17" fill="#ff9a3c" opacity=".55"/>
      <text x="1000" y="265" font-size="16" fill="#0b0b0d">AVIF</text>
    </g>
    <text x="1000" y="350" text-anchor="middle" font-family="Inter,Segoe UI,sans-serif" font-size="17" fill="#ffffff" opacity=".4">280 KB</text>
  </g>
</svg>
