<svg xmlns="http://www.w3.org/2000/svg" viewBox="0 0 512 512">
  <rect width="512" height="512" rx="112" fill="#0a0a0b"/>
  <g transform="translate(117,96) scale(0.1557) translate(-184.2,-553.8)">
    <path d="M383.5,2537.0C413.2,2536.4 477.8,2535.9 527.0,2535.9C661.5,2535.7 667.1,2535.3 679.8,2523.7C687.6,2516.4 689.5,2508.9 686.9,2494.5C686.3,2491.2 685.7,2473.2 685.5,2454.5C685.3,2435.8 684.6,2393.7 683.9,2361.0C682.3,2283.0 682.4,2172.8 684.1,2145.5C684.9,2131.0 685.3,2099.6 685.1,2044.4C684.9,1960.4 685.2,1951.5 689.1,1943.3C692.1,1937.1 700.1,1930.3 706.7,1928.4C713.0,1926.6 715.9,1926.9 731.0,1931.3C741.5,1934.3 741.5,1934.3 757.0,1933.2C775.3,1931.9 970.7,1933.4 980.5,1934.9C1026.4,1942.0 1035.4,1943.8 1042.6,1946.9C1048.8,1949.7 1055.5,1956.3 1062.3,1966.5C1065.6,1971.5 1070.2,1977.8 1072.3,1980.5C1074.5,1983.2 1079.1,1991.3 1082.6,1998.5C1086.1,2005.7 1091.5,2014.9 1094.6,2019.0C1100.8,2027.3 1102.6,2030.6 1107.7,2042.5C1109.6,2046.9 1114.3,2055.2 1118.2,2061.0C1122.1,2066.7 1127.3,2075.7 1129.8,2081.0C1132.3,2086.2 1138.1,2096.4 1142.6,2103.7C1147.2,2110.9 1153.0,2121.1 1155.4,2126.2C1157.9,2131.3 1162.7,2139.7 1166.1,2144.8C1169.4,2150.0 1174.8,2159.1 1178.1,2165.2C1184.0,2176.3 1190.8,2187.3 1212.1,2219.8C1218.5,2229.5 1226.7,2242.0 1230.3,2247.5C1233.9,2253.0 1242.5,2265.6 1249.3,2275.5C1256.2,2285.4 1267.5,2301.8 1274.5,2312.0C1292.1,2337.8 1302.2,2352.3 1308.4,2360.5C1311.3,2364.3 1316.6,2371.8 1320.0,2377.0C1323.5,2382.2 1328.9,2389.9 1332.1,2394.1C1335.3,2398.3 1340.9,2406.4 1344.6,2412.1C1348.3,2417.8 1353.6,2425.4 1356.5,2429.0C1359.3,2432.6 1364.9,2440.4 1369.0,2446.5C1373.0,2452.6 1379.1,2461.2 1382.6,2465.7C1386.0,2470.1 1392.0,2478.5 1395.8,2484.3C1403.0,2494.9 1418.7,2512.9 1429.8,2523.2C1436.8,2529.6 1445.5,2534.3 1455.1,2536.6C1461.5,2538.2 1462.3,2538.1 1475.6,2535.9C1489.5,2533.7 1489.5,2533.7 1622.5,2533.5C1713.7,2533.3 1763.8,2532.9 1782.0,2532.0C1802.6,2531.0 1811.9,2530.9 1824.0,2531.8C1832.5,2532.5 1848.0,2533.3 1858.5,2533.6C1880.5,2534.4 1885.8,2533.5 1892.6,2527.6C1898.1,2522.9 1899.4,2519.5 1898.8,2511.6C1898.1,2503.6 1895.0,2496.7 1887.6,2487.0C1884.4,2482.9 1879.3,2475.2 1876.3,2470.0C1873.2,2464.8 1867.9,2456.6 1864.4,2451.9C1860.9,2447.2 1855.1,2438.2 1851.5,2432.0C1847.9,2425.8 1842.1,2416.8 1838.6,2412.1C1835.2,2407.4 1829.9,2399.4 1827.0,2394.5C1824.0,2389.6 1819.1,2382.1 1816.0,2378.0C1812.9,2373.9 1807.7,2366.4 1804.5,2361.5C1801.3,2356.6 1795.3,2348.0 1791.0,2342.5C1786.8,2337.0 1781.4,2329.6 1779.0,2326.0C1776.6,2322.4 1771.4,2315.2 1767.5,2309.9C1763.5,2304.7 1758.1,2297.0 1755.5,2292.9C1752.8,2288.9 1747.9,2281.9 1744.5,2277.5C1741.1,2273.1 1735.5,2265.2 1732.0,2260.0C1728.6,2254.8 1722.9,2246.9 1719.5,2242.5C1716.1,2238.1 1710.9,2230.6 1707.9,2226.0C1705.0,2221.3 1698.9,2212.6 1694.5,2206.5C1666.0,2168.1 1665.1,2166.8 1636.3,2124.4C1631.2,2116.9 1625.6,2108.9 1623.7,2106.6C1621.8,2104.3 1616.7,2097.0 1612.5,2090.5C1608.2,2083.9 1602.4,2075.6 1599.5,2072.0C1596.6,2068.4 1590.9,2060.2 1586.7,2053.7C1582.5,2047.3 1576.8,2039.1 1574.1,2035.6C1571.4,2032.0 1566.6,2024.7 1563.5,2019.3C1560.3,2013.9 1554.3,2004.5 1550.0,1998.5C1545.8,1992.5 1540.6,1984.3 1538.5,1980.5C1536.4,1976.7 1531.4,1968.8 1527.4,1962.9C1523.4,1957.1 1517.6,1947.5 1514.4,1941.6C1511.3,1935.6 1506.3,1927.8 1503.4,1924.1C1500.5,1920.5 1496.6,1915.0 1494.9,1912.0C1476.2,1879.1 1476.6,1879.8 1476.2,1872.9C1475.7,1865.0 1476.8,1862.4 1483.7,1855.9C1490.0,1849.8 1512.2,1834.8 1518.0,1832.7C1540.3,1824.6 1545.7,1822.2 1555.1,1816.5C1561.0,1812.9 1570.7,1807.8 1576.6,1805.2C1582.6,1802.5 1592.7,1797.0 1599.0,1792.8C1605.3,1788.7 1614.0,1783.4 1618.4,1780.9C1622.7,1778.5 1629.5,1773.8 1633.4,1770.5C1637.3,1767.2 1643.7,1762.4 1647.5,1759.8C1661.0,1750.6 1698.7,1715.3 1709.8,1701.5C1712.9,1697.7 1719.3,1690.5 1724.0,1685.5C1728.7,1680.5 1735.0,1672.9 1738.0,1668.5C1741.0,1664.1 1746.0,1656.9 1749.3,1652.5C1752.5,1648.1 1758.4,1639.1 1762.3,1632.5C1766.2,1625.9 1771.5,1617.3 1774.2,1613.3C1783.4,1599.5 1808.2,1548.0 1819.5,1519.0C1825.0,1505.1 1834.5,1474.5 1842.4,1445.5C1858.1,1387.9 1863.3,1302.7 1856.5,1216.5C1851.7,1156.1 1846.6,1123.7 1837.3,1094.0C1834.8,1086.0 1830.1,1070.5 1826.9,1059.5C1819.7,1035.1 1818.8,1032.8 1808.2,1011.6C1799.9,994.9 1776.9,957.3 1766.4,943.3C1763.4,939.3 1758.5,931.9 1755.4,926.8C1752.3,921.8 1747.0,914.0 1743.6,909.6C1740.1,905.1 1734.3,897.2 1730.7,892.0C1727.1,886.8 1721.6,879.6 1718.5,876.0C1715.3,872.4 1709.5,865.5 1705.5,860.5C1698.3,851.5 1674.9,828.1 1657.1,812.0C1647.0,802.9 1630.2,789.7 1612.7,777.2C1606.8,773.0 1597.3,766.2 1591.7,762.1C1586.1,758.0 1578.3,752.6 1574.5,750.1C1570.7,747.6 1564.2,743.2 1560.3,740.3C1556.3,737.3 1547.1,731.8 1539.8,727.9C1532.5,724.0 1523.3,718.8 1519.3,716.3C1515.3,713.9 1507.7,709.8 1502.3,707.3C1496.9,704.8 1485.5,699.0 1477.0,694.4C1465.1,688.1 1458.0,685.1 1446.5,681.5C1438.2,678.9 1425.4,674.4 1418.0,671.5C1402.6,665.4 1394.1,662.8 1368.0,656.5C1357.8,654.0 1344.1,650.5 1337.4,648.6C1291.9,635.8 1233.3,627.5 1169.5,624.9C1141.9,623.8 1127.8,624.2 1106.0,626.7C1095.0,628.0 1088.0,628.1 1067.5,627.4C1053.8,626.9 874.2,626.4 668.5,626.3C462.8,626.2 292.2,626.1 289.3,626.0C280.5,625.7 273.5,628.4 267.5,634.4C258.5,643.3 258.7,641.9 258.4,704.0C257.2,939.2 257.2,982.5 258.5,986.5C260.4,992.1 268.7,999.5 275.3,1001.6C282.4,1003.8 319.9,1004.3 391.0,1003.0C478.3,1001.4 1027.6,1000.6 1044.5,1002.0C1052.2,1002.6 1073.1,1003.5 1091.0,1004.0C1126.7,1005.0 1136.9,1006.2 1177.5,1014.1C1201.7,1018.7 1214.5,1022.2 1229.1,1028.0C1234.8,1030.3 1245.3,1034.3 1252.6,1037.0C1266.7,1042.2 1273.0,1045.1 1281.3,1050.4C1284.2,1052.2 1291.7,1056.5 1298.1,1059.9C1304.4,1063.3 1312.1,1068.1 1315.1,1070.6C1318.1,1073.1 1324.5,1078.4 1329.5,1082.4C1334.5,1086.5 1344.4,1095.8 1351.6,1103.2C1362.8,1114.5 1366.6,1119.3 1377.1,1135.0C1390.1,1154.6 1397.9,1169.7 1407.3,1193.5C1421.9,1230.5 1426.7,1257.9 1425.7,1299.5C1425.1,1323.8 1423.6,1333.2 1418.2,1345.7C1407.2,1370.9 1404.9,1376.7 1402.1,1385.6C1397.3,1401.2 1392.6,1412.3 1386.2,1423.3C1382.9,1428.9 1377.4,1438.7 1373.9,1445.0C1368.3,1455.0 1365.8,1458.2 1354.5,1469.9C1347.3,1477.2 1337.2,1486.6 1332.0,1490.6C1326.8,1494.6 1319.2,1500.6 1315.1,1503.9C1310.7,1507.4 1301.9,1512.9 1293.9,1517.0C1286.4,1520.8 1276.4,1526.4 1271.8,1529.2C1267.2,1532.1 1258.7,1536.5 1253.0,1538.9C1247.2,1541.3 1238.0,1545.3 1232.5,1547.7C1206.8,1559.2 1191.3,1563.6 1153.0,1570.4C1100.1,1579.8 1091.2,1580.3 985.0,1580.5C937.4,1580.6 774.1,1581.1 622.0,1581.7C447.5,1582.3 333.6,1582.3 313.3,1581.7C282.1,1580.8 280.8,1580.9 274.2,1582.9C266.4,1585.3 260.0,1590.2 256.8,1596.4C254.2,1601.3 254.2,1597.6 255.9,1675.5C257.5,1749.2 257.5,1733.5 256.5,2022.0C256.1,2158.7 255.7,2324.8 255.8,2391.2C256.0,2510.2 256.0,2511.9 258.0,2517.3C260.3,2523.4 266.2,2530.7 271.6,2534.1C278.9,2538.6 282.0,2539.0 306.5,2538.5C319.1,2538.2 353.8,2537.5 383.5,2537.0Z" fill="#ff7a18"/>
  </g>
</svg>
